<?xml version="1.0" standalone="no"?>
<!DOCTYPE svg PUBLIC "-//W3C//DTD SVG 1.1//EN" "http://www.w3.org/Graphics/SVG/1.1/DTD/svg11.dtd" >
<svg xmlns="http://www.w3.org/2000/svg" xmlns:xlink="http://www.w3.org/1999/xlink" version="1.1">
<metadata>
Created by FontForge 20170731 at Mon Oct  1 05:55:51 2012
 By Aleksey,,,
Copyright (c) 2011 by Glenjan. All rights reserved.
</metadata>
<defs>
<font id="RoadRadio" horiz-adv-x="659" >
  <font-face 
    font-family="RoadRadio"
    font-weight="400"
    font-stretch="normal"
    units-per-em="1000"
    panose-1="0 0 0 0 0 0 0 0 0 0"
    ascent="750"
    descent="-250"
    x-height="553"
    cap-height="553"
    bbox="-82 -273 1067 847"
    underline-thickness="50"
    underline-position="-250"
    unicode-range="U+0020-2212"
  />
<missing-glyph horiz-adv-x="329" 
d="M50 553h145q44 0 72.5 -27t28.5 -69q0 -58 -47 -82l37 -68h-59l-30 56h-91v-56h-56v246zM106 503v-90h87q47 0 47 44q0 21 -13 33.5t-34 12.5h-87zM50 246h145q44 0 72.5 -27t28.5 -69q0 -58 -47 -82l37 -68h-59l-30 56h-91v-56h-56v246zM106 196v-90h87q47 0 47 44
q0 21 -13 33.5t-34 12.5h-87z" />
    <glyph glyph-name=".notdef" horiz-adv-x="329" 
d="M50 553h145q44 0 72.5 -27t28.5 -69q0 -58 -47 -82l37 -68h-59l-30 56h-91v-56h-56v246zM106 503v-90h87q47 0 47 44q0 21 -13 33.5t-34 12.5h-87zM50 246h145q44 0 72.5 -27t28.5 -69q0 -58 -47 -82l37 -68h-59l-30 56h-91v-56h-56v246zM106 196v-90h87q47 0 47 44
q0 21 -13 33.5t-34 12.5h-87z" />
    <glyph glyph-name=".null" horiz-adv-x="0" 
 />
    <glyph glyph-name="nonmarkingreturn" horiz-adv-x="333" 
 />
    <glyph glyph-name="space" unicode=" " horiz-adv-x="303" 
 />
    <glyph glyph-name="exclam" unicode="!" horiz-adv-x="228" 
d="M66 185v447h96v-447h-96zM114 139q31 0 53.5 -22.5t22.5 -53.5q0 -32 -22.5 -54t-53.5 -22q-32 0 -54 22t-22 54q0 31 22 53.5t54 22.5z" />
    <glyph glyph-name="quotedbl" unicode="&#x22;" horiz-adv-x="287" 
d="M35 553h90v-77l-13 -109h-77v186zM163 553h90v-77l-13 -109h-77v186z" />
    <glyph glyph-name="numbersign" unicode="#" horiz-adv-x="425" 
d="M37 262h69l7 55h-76v76h85l10 78h76l-10 -78h56l10 78h76l-10 -78h68v-76h-77l-7 -55h84v-76h-94l-8 -75h-76l8 75h-55l-9 -75h-76l9 75h-60v76zM189 317l-7 -55h56l7 55h-56z" />
    <glyph glyph-name="dollar" unicode="$" horiz-adv-x="640" 
d="M275 -95l-5 83q-130 9 -231 82l48 78q112 -73 247 -73q77 0 122.5 22t45.5 64q0 60 -86 69l-182 20q-87 10 -132 45.5t-45 105.5q0 73 60 114t154 49l4 69h91l3 -69q123 -11 212 -74l-49 -72q-96 57 -221 57q-154 0 -154 -73q0 -28 21.5 -40t65.5 -17l172 -20
q184 -23 184 -162q0 -79 -61 -122.5t-168 -52.5l-5 -83h-91z" />
    <glyph glyph-name="uni0025" unicode="%" horiz-adv-x="769" 
d="M505 560l73 -34l-319 -554l-74 34zM584 -12q-65 0 -108.5 42.5t-43.5 107.5t43.5 107t108.5 42t108 -42t43 -107q0 -66 -43 -108t-108 -42zM584 62q32 0 53 20t21 56q0 35 -21 54.5t-53 19.5t-54 -19.5t-22 -54.5q0 -36 22 -56t54 -20zM181 249q-64 0 -107.5 42
t-43.5 107t43.5 107t107.5 42q66 0 109 -41.5t43 -107.5q0 -65 -43 -107t-109 -42zM181 323q32 0 53.5 19.5t21.5 55.5t-21.5 55.5t-53.5 19.5q-33 0 -54.5 -19.5t-21.5 -55.5t21.5 -55.5t54.5 -19.5z" />
    <glyph glyph-name="ampersand" unicode="&#x26;" horiz-adv-x="698" 
d="M650 339v-69l-61 -14l60 -256h-55l-45 47q-104 -61 -232 -61q-127 0 -200 40q-83 48 -83 147q0 91 87 131q-49 31 -49 96q0 67 47 106q68 60 222 60q74 0 132 -14t120 -49l-43 -75q-95 48 -211 48q-86 0 -125.5 -19t-39.5 -59q0 -59 61 -59h415zM312 75q109 0 206 49
l-30 128h-255q-47 0 -72 -20.5t-25 -54.5q0 -102 176 -102z" />
    <glyph glyph-name="quotesingle" unicode="'" horiz-adv-x="161" 
d="M35 553h90v-77l-13 -109h-77v186z" />
    <glyph glyph-name="parenleft" unicode="(" horiz-adv-x="223" 
d="M110 601l81 -20q-46 -147 -46 -305t46 -305l-82 -21q-58 146 -58 327q0 185 59 324z" />
    <glyph glyph-name="parenright" unicode=")" horiz-adv-x="223" 
d="M34 581l81 20q59 -139 59 -324q0 -181 -58 -327l-82 21q47 150 47 305t-47 305z" />
    <glyph glyph-name="asterisk" unicode="*" horiz-adv-x="358" 
d="M142 505l6 87h62l6 -87l76 40l31 -55l-72 -47l72 -46l-31 -56l-76 41l-7 -87h-61l-6 87l-76 -41l-32 55l74 47l-74 47l32 55z" />
    <glyph glyph-name="plus" unicode="+" horiz-adv-x="418" 
d="M35 327h127v129h93v-129h128v-85h-128v-125h-93v125h-127v85z" />
    <glyph glyph-name="comma" unicode="," horiz-adv-x="226" 
d="M65 -96l16 94q-45 18 -45 68q0 31 21.5 53.5t57.5 22.5q31 0 53 -21t22 -56q0 -15 -5 -30l-58 -146z" />
    <glyph glyph-name="hyphen" unicode="-" horiz-adv-x="395" 
d="M40 327h315v-89h-315v89z" />
    <glyph glyph-name="period" unicode="." horiz-adv-x="235" 
d="M117 143q33 0 56 -23t23 -55t-23 -53.5t-56 -21.5q-32 0 -54.5 21.5t-22.5 53.5t22.5 55t54.5 23z" />
    <glyph glyph-name="slash" unicode="/" horiz-adv-x="330" 
d="M222 593l87 -25l-207 -607l-84 26z" />
    <glyph glyph-name="zero" unicode="0" horiz-adv-x="667" 
d="M138 276q0 -95 52.5 -148.5t143.5 -53.5t143.5 53.5t52.5 148.5t-52.5 148.5t-143.5 53.5t-143.5 -53.5t-52.5 -148.5zM630 276q0 -133 -84 -211.5t-212 -78.5t-212.5 78.5t-84.5 211.5t84.5 211.5t212.5 78.5t212 -78.5t84 -211.5z" />
    <glyph glyph-name="one" unicode="1" horiz-adv-x="289" 
d="M29 553h207v-553h-101v462h-106v91z" />
    <glyph glyph-name="two" unicode="2" horiz-adv-x="583" 
d="M530 91v-91h-476v103l334 192q56 32 56 84q0 95 -153 95q-105 0 -188 -75l-61 65q102 102 253 102q114 0 181.5 -47.5t67.5 -141.5q0 -96 -102 -153l-238 -133h326z" />
    <glyph glyph-name="three" unicode="3" horiz-adv-x="624" 
d="M197 345h188q64 0 64 57q0 39 -35.5 57t-116.5 18q-106 0 -192 -57l-46 72q59 41 114 57.5t123 16.5q124 0 188 -42q67 -42 67 -121q0 -63 -55 -94q91 -31 91 -131q0 -82 -72 -137q-71 -55 -224 -55q-151 0 -260 79l49 78q57 -36 104.5 -51.5t113.5 -15.5q188 0 188 104
q0 78 -96 78h-193v87z" />
    <glyph glyph-name="four" unicode="4" horiz-adv-x="637" 
d="M353 553h186v-373h61v-89h-61v-91h-100v91h-406v91zM393 462l-236 -282h282v282h-46z" />
    <glyph glyph-name="five" unicode="5" horiz-adv-x="606" 
d="M162 248l-84 6l15 299h434v-91h-340l-8 -120q67 25 156 25q110 0 172 -48.5t62 -135.5q0 -98 -74 -147t-201 -49q-156 0 -268 74l46 80q60 -35 110 -49t122 -14q83 0 123.5 28.5t40.5 76.5q0 96 -154 96q-79 0 -152 -31z" />
    <glyph glyph-name="six" unicode="6" horiz-adv-x="631" 
d="M572 511l-40 -78q-87 44 -191 44q-82 0 -132 -39.5t-60 -117.5q93 41 198 41q106 0 174 -45t68 -140q0 -87 -72 -138.5t-191 -51.5q-137 0 -207 78t-70 213q0 127 81 208t211 81q132 0 231 -55zM148 238q7 -85 50.5 -123t139.5 -38q152 0 152 100q0 51 -37 72.5
t-121 21.5q-88 0 -184 -33z" />
    <glyph glyph-name="seven" unicode="7" horiz-adv-x="570" 
d="M254 0h-118l287 462h-387v91h502v-87z" />
    <glyph glyph-name="eight" unicode="8" horiz-adv-x="648" 
d="M324 566q126 0 184.5 -43t58.5 -111q0 -76 -59 -105q101 -35 101 -143q0 -85 -75 -131.5t-210 -46.5q-137 0 -211 45.5t-74 134.5q0 45 27.5 85t71.5 55q-57 35 -57 102q0 80 69 119t174 39zM436 239l-219 24q-38 -10 -57 -34.5t-19 -55.5q0 -98 183 -98q92 0 137.5 25
t45.5 69q0 62 -71 70zM256 351l172 -18q39 27 39 69q0 39 -33.5 57.5t-109.5 18.5q-81 0 -112 -18t-31 -53q0 -26 17.5 -38.5t57.5 -17.5z" />
    <glyph glyph-name="nine" unicode="9" horiz-adv-x="631" 
d="M63 38l39 79q83 -41 192 -41q170 0 191 156q-100 -44 -197 -44q-108 0 -175.5 45t-67.5 140q0 88 71.5 140.5t192.5 52.5q137 0 206.5 -77t69.5 -214q0 -127 -80 -208t-211 -81t-231 52zM486 315q-7 85 -50 123t-138 38q-75 0 -114 -27.5t-39 -76.5q0 -51 37 -72.5
t120 -21.5q91 0 184 37z" />
    <glyph glyph-name="colon" unicode=":" horiz-adv-x="228" 
d="M115 432q31 0 53 -21.5t22 -52.5t-22 -53t-53 -22q-32 0 -54 22t-22 53t22 52.5t54 21.5zM115 138q31 0 53 -22t22 -53t-22 -51.5t-53 -20.5q-32 0 -54 20.5t-22 51.5t22.5 53t53.5 22z" />
    <glyph glyph-name="semicolon" unicode=";" horiz-adv-x="228" 
d="M113 432q31 0 53 -21.5t22 -52.5t-22 -53t-53 -22q-32 0 -54 22t-22 53t22 52.5t54 21.5zM117 138q30 0 52 -22.5t22 -53.5q0 -12 -6 -26l-55 -146l-62 14l17 89q-21 8 -33 27.5t-12 41.5q0 31 23 53.5t54 22.5z" />
    <glyph glyph-name="less" unicode="&#x3c;" horiz-adv-x="284" 
d="M200 439l54 -52l-99 -117l99 -116l-54 -53l-173 169z" />
    <glyph glyph-name="equal" unicode="=" horiz-adv-x="386" 
d="M41 389h305v-84h-305v84zM41 247h305v-83h-305v83z" />
    <glyph glyph-name="greater" unicode="&#x3e;" horiz-adv-x="284" 
d="M83 439l174 -169l-174 -169l-53 53l99 116l-99 117z" />
    <glyph glyph-name="question" unicode="?" horiz-adv-x="575" 
d="M287 141q32 0 54.5 -22.5t22.5 -54.5t-22.5 -52.5t-54.5 -20.5t-54.5 20.5t-22.5 52.5t22.5 54.5t54.5 22.5zM236 189v59q0 35 21.5 65.5t63.5 43.5l40 12q87 26 87 93q0 95 -150 95q-70 0 -120 -18t-95 -58l-49 70q103 97 263 97q118 0 186 -46.5t68 -145.5
q0 -58 -37.5 -101.5t-102.5 -64.5l-38 -11q-36 -11 -36 -50v-40h-101z" />
    <glyph glyph-name="at" unicode="@" horiz-adv-x="705" 
d="M429 288v63q-30 20 -76 20q-37 0 -58.5 -22t-21.5 -58t23 -56t55 -20t55 19t23 54zM510 385v-113q0 -51 33 -51q22 0 34 20t12 51q0 104 -59.5 166t-175.5 62q-105 0 -168.5 -61t-63.5 -165q0 -105 67.5 -168.5t180.5 -63.5q86 0 156 36l32 -59q-76 -53 -189 -53
q-153 0 -242 84t-89 224q0 138 90.5 220.5t225.5 82.5q145 0 230 -84.5t85 -220.5q0 -59 -33.5 -105t-89.5 -46q-58 0 -88 46q-47 -49 -109 -49q-69 0 -114 42t-45 111t46 112t115 43q92 0 159 -61z" />
    <glyph glyph-name="A" unicode="A" horiz-adv-x="735" 
d="M337 462l-119 -285h298l-116 285h-63zM275 553h192l235 -553h-107l-38 87h-377l-38 -87h-109z" />
    <glyph glyph-name="B" unicode="B" horiz-adv-x="648" 
d="M53 553h353q76 0 122.5 -39t46.5 -104q0 -69 -47 -101q86 -38 86 -139q0 -71 -51.5 -120.5t-131.5 -49.5h-378v553zM155 461v-128h260q28 0 44.5 18.5t16.5 44.5q0 65 -76 65h-245zM155 244v-152h272q42 0 65 21.5t23 55.5q0 35 -21.5 55t-56.5 20h-282z" />
    <glyph glyph-name="C" unicode="C" 
d="M621 427l-79 -46q-69 94 -197 94q-93 0 -148.5 -54t-55.5 -145q0 -88 56.5 -143.5t147.5 -55.5q125 0 197 95l80 -47q-91 -139 -275 -139q-134 0 -220.5 79t-86.5 211t87 211t220 79q186 0 274 -139z" />
    <glyph glyph-name="D" unicode="D" horiz-adv-x="670" 
d="M53 553h279q122 0 210 -76.5t88 -199.5t-88.5 -200t-209.5 -77h-279v553zM155 461v-368h175q89 0 143.5 51t54.5 133t-54.5 133t-143.5 51h-175z" />
    <glyph glyph-name="E" unicode="E" horiz-adv-x="608" 
d="M53 553h495v-92h-393v-133h354v-91h-354v-144h408v-93h-510v553z" />
    <glyph glyph-name="F" unicode="F" horiz-adv-x="590" 
d="M53 0v553h499v-92h-397v-147h353v-91h-353v-223h-102z" />
    <glyph glyph-name="G" unicode="G" horiz-adv-x="689" 
d="M389 314h244v-314h-65l-15 51q-84 -65 -205 -65q-135 0 -221.5 79t-86.5 211t87 211t221 79q180 0 272 -133l-80 -46q-35 45 -80.5 65.5t-114.5 20.5q-93 0 -148.5 -53t-55.5 -144q0 -89 56.5 -143t147.5 -54q121 0 190 65v81l-146 6v83z" />
    <glyph glyph-name="H" unicode="H" horiz-adv-x="665" 
d="M53 553h102v-221h355v221h101v-553h-101v241h-355v-241h-102v553z" />
    <glyph glyph-name="I" unicode="I" horiz-adv-x="208" 
d="M53 553h102v-553h-102v553z" />
    <glyph glyph-name="J" unicode="J" horiz-adv-x="597" 
d="M444 553h99v-314q0 -113 -66 -183t-200 -70q-85 0 -150 37.5t-100 107.5l87 45q23 -47 67 -73t95 -26q92 0 130 44t38 128v304z" />
    <glyph glyph-name="K" unicode="K" horiz-adv-x="647" 
d="M53 553h101v-214h193l146 214h117l-176 -256l190 -297h-120l-154 247h-196v-247h-101v553z" />
    <glyph glyph-name="L" unicode="L" horiz-adv-x="581" 
d="M53 553h102v-461h398v-92h-500v553z" />
    <glyph glyph-name="M" unicode="M" horiz-adv-x="836" 
d="M53 553h148l216 -435h5l217 435h144v-553h-101v427h-10l-210 -427h-91l-209 427h-11v-427h-98v553z" />
    <glyph glyph-name="N" unicode="N" horiz-adv-x="676" 
d="M53 553h102l367 -411v411h101v-553h-103l-367 413v-413h-100v553z" />
    <glyph glyph-name="O" unicode="O" horiz-adv-x="701" 
d="M143 276q0 -93 58.5 -147.5t148.5 -54.5t149 54.5t59 147.5t-59 147.5t-149 54.5t-148.5 -54.5t-58.5 -147.5zM659 276q0 -129 -89 -209.5t-220 -80.5t-220 80.5t-89 209.5t89 209.5t220 80.5t220 -80.5t89 -209.5z" />
    <glyph glyph-name="P" unicode="P" horiz-adv-x="638" 
d="M53 553h325q97 0 161 -59.5t64 -154.5t-64 -153t-161 -58h-223v-128h-102v553zM155 460v-239h219q58 0 93 31.5t35 86.5q0 56 -35 88.5t-93 32.5h-219z" />
    <glyph glyph-name="Q" unicode="Q" horiz-adv-x="701" 
d="M648 35l-67 -67l-62 62q-73 -44 -169 -44q-131 0 -220 80.5t-89 209.5t89 209.5t220 80.5t220 -80.5t89 -209.5q0 -110 -66 -187zM462 221l62 -62q34 50 34 117q0 93 -59 147.5t-149 54.5t-148.5 -54.5t-58.5 -147.5t58.5 -147.5t148.5 -54.5q58 0 101 24l-56 56z" />
    <glyph glyph-name="R" unicode="R" horiz-adv-x="638" 
d="M53 553h325q97 0 161 -59.5t64 -154.5q0 -64 -31 -112.5t-84 -73.5l87 -153h-111l-70 128h-239v-128h-102v553zM155 460v-239h219q58 0 93 31.5t35 86.5q0 56 -35 88.5t-93 32.5h-219z" />
    <glyph glyph-name="S" unicode="S" horiz-adv-x="640" 
d="M581 490l-49 -75q-94 61 -221 61q-154 0 -154 -74q0 -29 22 -41.5t65 -17.5l172 -20q184 -23 184 -161q0 -88 -75.5 -132t-205.5 -44q-163 0 -280 84l48 79q110 -74 247 -74q77 0 122.5 21.5t45.5 63.5q0 59 -86 68l-182 20q-87 10 -132 46t-45 107q0 81 71.5 123
t182.5 42q162 0 270 -76z" />
    <glyph glyph-name="T" unicode="T" horiz-adv-x="632" 
d="M30 553h572v-92h-235v-461h-102v461h-235v92z" />
    <glyph glyph-name="U" unicode="U" 
d="M48 553h102v-283q0 -92 44.5 -143t134.5 -51t135 51.5t45 142.5v283h101v-282q0 -136 -75 -210.5t-206 -74.5t-206 74.5t-75 210.5v282z" />
    <glyph glyph-name="V" unicode="V" horiz-adv-x="713" 
d="M30 553h112l195 -461h40l195 461h111l-244 -553h-166z" />
    <glyph glyph-name="W" unicode="W" horiz-adv-x="1012" 
d="M30 553h108l151 -464h17l131 464h134l135 -464h17l153 464h106l-197 -553h-152l-124 443h-12l-124 -443h-150z" />
    <glyph glyph-name="X" unicode="X" horiz-adv-x="671" 
d="M43 553h116l153 -223h47l153 223h116l-186 -262l201 -291h-118l-163 238h-53l-164 -238h-118l203 288z" />
    <glyph glyph-name="Y" unicode="Y" horiz-adv-x="686" 
d="M30 553h116l194 -314h12l188 314h116l-263 -415v-138h-100v138z" />
    <glyph glyph-name="Z" unicode="Z" horiz-adv-x="608" 
d="M51 553h507v-89l-388 -377l184 4h214v-91h-528v91l394 374l-172 -3h-211v91z" />
    <glyph glyph-name="bracketleft" unicode="[" horiz-adv-x="218" 
d="M40 652h161v-79h-61v-595h61v-79h-161v753z" />
    <glyph glyph-name="backslash" unicode="\" horiz-adv-x="330" 
d="M18 568l87 25l204 -606l-84 -26z" />
    <glyph glyph-name="bracketright" unicode="]" horiz-adv-x="218" 
d="M17 652h161v-753h-161v80h61v594h-61v79z" />
    <glyph glyph-name="asciicircum" unicode="^" horiz-adv-x="369" 
d="M184 583l156 -153l-57 -56l-99 86l-101 -86l-55 56z" />
    <glyph glyph-name="underscore" unicode="_" horiz-adv-x="505" 
d="M10 -64h485v-81h-485v81z" />
    <glyph glyph-name="grave" unicode="`" horiz-adv-x="211" 
d="M118 810l48 -183l-85 -20l-50 182z" />
    <glyph glyph-name="a" unicode="a" horiz-adv-x="735" 
d="M337 462l-119 -285h298l-116 285h-63zM275 553h192l235 -553h-107l-38 87h-377l-38 -87h-109z" />
    <glyph glyph-name="b" unicode="b" horiz-adv-x="648" 
d="M53 553h353q76 0 122.5 -39t46.5 -104q0 -69 -47 -101q86 -38 86 -139q0 -71 -51.5 -120.5t-131.5 -49.5h-378v553zM155 461v-128h260q28 0 44.5 18.5t16.5 44.5q0 65 -76 65h-245zM155 244v-152h272q42 0 65 21.5t23 55.5q0 35 -21.5 55t-56.5 20h-282z" />
    <glyph glyph-name="c" unicode="c" 
d="M621 427l-79 -46q-69 94 -197 94q-93 0 -148.5 -54t-55.5 -145q0 -88 56.5 -143.5t147.5 -55.5q125 0 197 95l80 -47q-91 -139 -275 -139q-134 0 -220.5 79t-86.5 211t87 211t220 79q186 0 274 -139z" />
    <glyph glyph-name="d" unicode="d" horiz-adv-x="670" 
d="M53 553h279q122 0 210 -76.5t88 -199.5t-88.5 -200t-209.5 -77h-279v553zM155 461v-368h175q89 0 143.5 51t54.5 133t-54.5 133t-143.5 51h-175z" />
    <glyph glyph-name="e" unicode="e" horiz-adv-x="608" 
d="M53 553h495v-92h-393v-133h354v-91h-354v-144h408v-93h-510v553z" />
    <glyph glyph-name="f" unicode="f" horiz-adv-x="590" 
d="M53 0v553h499v-92h-397v-147h353v-91h-353v-223h-102z" />
    <glyph glyph-name="g" unicode="g" horiz-adv-x="689" 
d="M389 314h244v-314h-65l-15 51q-84 -65 -205 -65q-135 0 -221.5 79t-86.5 211t87 211t221 79q180 0 272 -133l-80 -46q-35 45 -80.5 65.5t-114.5 20.5q-93 0 -148.5 -53t-55.5 -144q0 -89 56.5 -143t147.5 -54q121 0 190 65v81l-146 6v83z" />
    <glyph glyph-name="h" unicode="h" horiz-adv-x="665" 
d="M53 553h102v-221h355v221h101v-553h-101v241h-355v-241h-102v553z" />
    <glyph glyph-name="i" unicode="i" horiz-adv-x="208" 
d="M53 553h102v-553h-102v553z" />
    <glyph glyph-name="j" unicode="j" horiz-adv-x="597" 
d="M444 553h99v-314q0 -113 -66 -183t-200 -70q-85 0 -150 37.5t-100 107.5l87 45q23 -47 67 -73t95 -26q92 0 130 44t38 128v304z" />
    <glyph glyph-name="k" unicode="k" horiz-adv-x="647" 
d="M53 553h101v-214h193l146 214h117l-176 -256l190 -297h-120l-154 247h-196v-247h-101v553z" />
    <glyph glyph-name="l" unicode="l" horiz-adv-x="581" 
d="M53 553h102v-461h398v-92h-500v553z" />
    <glyph glyph-name="m" unicode="m" horiz-adv-x="836" 
d="M53 553h148l216 -435h5l217 435h144v-553h-101v427h-10l-210 -427h-91l-209 427h-11v-427h-98v553z" />
    <glyph glyph-name="n" unicode="n" horiz-adv-x="676" 
d="M53 553h102l367 -411v411h101v-553h-103l-367 413v-413h-100v553z" />
    <glyph glyph-name="o" unicode="o" horiz-adv-x="701" 
d="M143 276q0 -93 58.5 -147.5t148.5 -54.5t149 54.5t59 147.5t-59 147.5t-149 54.5t-148.5 -54.5t-58.5 -147.5zM659 276q0 -129 -89 -209.5t-220 -80.5t-220 80.5t-89 209.5t89 209.5t220 80.5t220 -80.5t89 -209.5z" />
    <glyph glyph-name="p" unicode="p" horiz-adv-x="635" 
d="M53 553h325q97 0 161 -59.5t64 -154.5t-64 -153t-161 -58h-223v-128h-102v553zM155 460v-239h219q58 0 93 31.5t35 86.5q0 56 -35 88.5t-93 32.5h-219z" />
    <glyph glyph-name="q" unicode="q" horiz-adv-x="701" 
d="M648 35l-67 -67l-62 62q-73 -44 -169 -44q-131 0 -220 80.5t-89 209.5t89 209.5t220 80.5t220 -80.5t89 -209.5q0 -110 -66 -187zM462 221l62 -62q34 50 34 117q0 93 -59 147.5t-149 54.5t-148.5 -54.5t-58.5 -147.5t58.5 -147.5t148.5 -54.5q58 0 101 24l-56 56z" />
    <glyph glyph-name="r" unicode="r" horiz-adv-x="637" 
d="M53 553h325q97 0 161 -59.5t64 -154.5q0 -64 -31 -112.5t-84 -73.5l87 -153h-111l-70 128h-239v-128h-102v553zM155 460v-239h219q58 0 93 31.5t35 86.5q0 56 -35 88.5t-93 32.5h-219z" />
    <glyph glyph-name="s" unicode="s" horiz-adv-x="640" 
d="M581 490l-49 -75q-94 61 -221 61q-154 0 -154 -74q0 -29 22 -41.5t65 -17.5l172 -20q184 -23 184 -161q0 -88 -75.5 -132t-205.5 -44q-163 0 -280 84l48 79q110 -74 247 -74q77 0 122.5 21.5t45.5 63.5q0 59 -86 68l-182 20q-87 10 -132 46t-45 107q0 81 71.5 123
t182.5 42q162 0 270 -76z" />
    <glyph glyph-name="t" unicode="t" horiz-adv-x="632" 
d="M30 553h572v-92h-235v-461h-102v461h-235v92z" />
    <glyph glyph-name="u" unicode="u" 
d="M48 553h102v-283q0 -92 44.5 -143t134.5 -51t135 51.5t45 142.5v283h101v-282q0 -136 -75 -210.5t-206 -74.5t-206 74.5t-75 210.5v282z" />
    <glyph glyph-name="v" unicode="v" horiz-adv-x="713" 
d="M30 553h112l195 -461h40l195 461h111l-244 -553h-166z" />
    <glyph glyph-name="w" unicode="w" horiz-adv-x="1011" 
d="M30 553h108l151 -464h17l131 464h134l135 -464h17l153 464h106l-197 -553h-152l-124 443h-12l-124 -443h-150z" />
    <glyph glyph-name="x" unicode="x" horiz-adv-x="671" 
d="M43 553h116l153 -223h47l153 223h116l-186 -262l201 -291h-118l-163 238h-53l-164 -238h-118l203 288z" />
    <glyph glyph-name="y" unicode="y" horiz-adv-x="686" 
d="M30 553h116l194 -314h12l188 314h116l-263 -415v-138h-100v138z" />
    <glyph glyph-name="z" unicode="z" horiz-adv-x="608" 
d="M51 553h507v-89l-388 -377l184 4h214v-91h-528v91l394 374l-172 -3h-211v91z" />
    <glyph glyph-name="braceleft" unicode="{" horiz-adv-x="282" 
d="M273 -25v-84h-46q-61 0 -95 36.5t-34 98.5v142q0 25 -14 43t-37 18h-25v91h25q23 0 37 18t14 43v142q0 62 34 98.5t95 36.5h46v-84h-29q-50 0 -50 -51v-148q0 -69 -52 -100q52 -31 52 -101v-148q0 -51 50 -51h29z" />
    <glyph glyph-name="bar" unicode="|" horiz-adv-x="200" 
d="M147 586v-620h-94v620h94z" />
    <glyph glyph-name="braceright" unicode="}" horiz-adv-x="282" 
d="M10 -109v84h29q50 0 50 51v148q0 71 51 101q-51 30 -51 100v148q0 51 -50 51h-29v84h45q61 0 95 -36.5t34 -98.5v-142q0 -25 14 -43t37 -18h25v-91h-25q-23 0 -37 -18t-14 -43v-142q0 -62 -34 -98.5t-95 -36.5h-45z" />
    <glyph glyph-name="asciitilde" unicode="~" horiz-adv-x="435" 
d="M365 337l40 -51q-40 -62 -114 -62q-31 0 -74 19t-67 19q-47 0 -77 -38l-48 48q47 72 128 72q38 0 78 -18t61 -18q45 0 73 29z" />
    <glyph glyph-name="exclamdown" unicode="&#xa1;" horiz-adv-x="228" 
d="M161 368v-447h-96v447h96zM113 414q-31 0 -53.5 22.5t-22.5 53.5q0 32 22.5 54t53.5 22q32 0 54 -22t22 -54q0 -31 -22 -53.5t-54 -22.5z" />
    <glyph glyph-name="cent" unicode="&#xa2;" horiz-adv-x="652" 
d="M296 607h90l3 -64q140 -16 225 -135l-79 -46q-70 93 -193 93q-92 0 -146.5 -51.5t-54.5 -137.5q0 -85 56 -137t145 -52q122 0 193 93l80 -47q-86 -118 -225 -134l-3 -81h-91l-4 82q-113 14 -182.5 89t-69.5 187t70.5 186t181.5 89z" />
    <glyph glyph-name="brokenbar" unicode="&#xa6;" horiz-adv-x="200" 
d="M147 301h-94v285h94v-285zM147 -34h-94v285h94v-285z" />
    <glyph glyph-name="section" unicode="&#xa7;" horiz-adv-x="604" 
d="M503 630l-44 -71q-73 38 -155 38q-123 0 -123 -66q0 -48 67 -57l107 -16q89 -12 139.5 -55.5t50.5 -117.5q0 -93 -89 -139q31 -20 44.5 -46t13.5 -67q0 -75 -65.5 -115.5t-169.5 -40.5q-74 0 -122 12.5t-102 45.5l40 73q47 -25 87 -34.5t99 -9.5q65 0 99 19.5t34 50.5
q0 29 -14.5 42t-51.5 19l-118 19q-191 30 -191 173q0 44 25 82t70 60q-53 34 -53 105q0 51 34.5 86.5t82.5 50.5t103 15q115 0 202 -56zM360 362l-153 23q-64 -26 -64 -87q0 -76 81 -88l140 -21q78 26 78 93t-82 80z" />
    <glyph glyph-name="dieresis" unicode="&#xa8;" horiz-adv-x="454" 
d="M108 746q27 0 46.5 -19t19.5 -45q0 -27 -19 -46.5t-47 -19.5q-27 0 -46 19.5t-19 46.5q0 26 19 45t46 19zM345 746q28 0 47.5 -19t19.5 -45q0 -27 -19.5 -46.5t-47.5 -19.5q-26 0 -45.5 19.5t-19.5 46.5q0 26 19.5 45t45.5 19z" />
    <glyph glyph-name="copyright" unicode="&#xa9;" horiz-adv-x="727" 
d="M26 291q0 143 97 233.5t240 90.5t240.5 -90.5t97.5 -233.5t-97.5 -233.5t-240.5 -90.5t-240 90.5t-97 233.5zM517 397l-45 -46q-42 42 -104 42q-49 0 -76.5 -26t-27.5 -75q0 -48 27.5 -74.5t76.5 -26.5q62 0 105 43l44 -47q-60 -63 -149 -63q-77 0 -129 46t-52 122
t52 122t129 46q90 0 149 -63zM620 291q0 111 -73 179t-184 68q-109 0 -182 -68t-73 -179t73 -179t182 -68q111 0 184 68t73 179z" />
    <glyph glyph-name="guillemotleft" unicode="&#xab;" horiz-adv-x="428" 
d="M190 455l52 -52l-99 -119l99 -118l-52 -51l-169 169zM351 451l52 -52l-95 -115l95 -114l-52 -52l-165 166z" />
    <glyph glyph-name="uni00AD" unicode="&#xad;" horiz-adv-x="395" 
d="M40 327h315v-89h-315v89z" />
    <glyph glyph-name="registered" unicode="&#xae;" horiz-adv-x="464" 
d="M86 416q0 -62 40 -102t106 -40q67 0 107 40t40 102q0 61 -42.5 102t-104.5 41q-66 0 -106 -40t-40 -103zM149 509h107q34 0 56 -19.5t22 -47.5q0 -41 -35 -59l31 -54h-54l-20 39h-58v-39h-49v180zM198 464v-51h56q30 0 30 26q0 25 -30 25h-56zM30 415q0 84 58.5 140
t143.5 56q84 0 143.5 -56t59.5 -140t-58.5 -139.5t-144.5 -55.5q-85 0 -143.5 56t-58.5 139z" />
    <glyph glyph-name="macron" unicode="&#xaf;" horiz-adv-x="439" 
d="M39 707h362v-81h-362v81z" />
    <glyph glyph-name="degree" unicode="&#xb0;" horiz-adv-x="351" 
d="M168 299q-59 0 -99.5 36.5t-40.5 95.5t40.5 95.5t99.5 36.5q60 0 100.5 -36.5t40.5 -95.5t-40.5 -95.5t-100.5 -36.5zM168 369q28 0 46 16.5t18 45.5t-18 45t-46 16t-45.5 -16t-17.5 -45t18 -45.5t45 -16.5z" />
    <glyph glyph-name="plusminus" unicode="&#xb1;" horiz-adv-x="418" 
d="M35 397h127v128h93v-128h128v-85h-128v-125h-93v125h-127v85zM36 147h346v-83h-346v83z" />
    <glyph glyph-name="acute" unicode="&#xb4;" horiz-adv-x="205" 
d="M31 627l48 183l87 -21l-50 -182z" />
    <glyph glyph-name="paragraph" unicode="&#xb6;" horiz-adv-x="550" 
d="M504 651l4 -62l-79 -24v-565h-76v574h-67v-574h-77v343q-66 0 -108.5 46t-42.5 108t42.5 108t108.5 46h295z" />
    <glyph glyph-name="periodcentered" unicode="&#xb7;" horiz-adv-x="228" 
d="M112 375q31 0 52.5 -22t21.5 -53q0 -30 -21.5 -52t-52.5 -22t-53 22t-22 52q0 31 22 53t53 22z" />
    <glyph glyph-name="cedilla" unicode="&#xb8;" horiz-adv-x="238" 
d="M72 16l66 -5v-46q42 -3 66 -26t24 -62q0 -48 -38.5 -73t-97.5 -25q-42 0 -78 18l18 53q30 -12 63 -12q59 0 59 39q0 30 -41 30h-45l-6 6z" />
    <glyph glyph-name="guillemotright" unicode="&#xbb;" horiz-adv-x="428" 
d="M184 403l52 52l168 -171l-168 -169l-52 51l99 118zM22 399l52 52l165 -167l-165 -166l-52 52l96 114z" />
    <glyph glyph-name="questiondown" unicode="&#xbf;" horiz-adv-x="575" 
d="M307 412q-32 0 -54.5 22.5t-22.5 54.5t22.5 52.5t54.5 20.5t54.5 -20.5t22.5 -52.5t-22.5 -54.5t-54.5 -22.5zM358 364v-59q0 -35 -21.5 -65.5t-63.5 -43.5l-40 -12q-87 -26 -87 -93q0 -95 150 -95q70 0 120 18t95 58l49 -70q-103 -97 -263 -97q-118 0 -186 46.5
t-68 145.5q0 58 37.5 101.5t102.5 64.5l38 11q36 11 36 50v40h101z" />
    <glyph glyph-name="Agrave" unicode="&#xc0;" horiz-adv-x="735" 
d="M337 462l-119 -285h298l-116 285h-63zM275 553h192l235 -553h-107l-38 87h-377l-38 -87h-109zM366 810l48 -183l-85 -20l-50 182z" />
    <glyph glyph-name="Aacute" unicode="&#xc1;" horiz-adv-x="735" 
d="M337 462l-119 -285h298l-116 285h-63zM275 553h192l235 -553h-107l-38 87h-377l-38 -87h-109zM331 628l48 183l87 -21l-50 -182z" />
    <glyph glyph-name="Acircumflex" unicode="&#xc2;" horiz-adv-x="735" 
d="M337 462l-119 -285h298l-116 285h-63zM275 553h192l235 -553h-107l-38 87h-377l-38 -87h-109zM474 601l-108 68l-109 -68l-40 53l149 110l150 -110z" />
    <glyph glyph-name="Atilde" unicode="&#xc3;" horiz-adv-x="735" 
d="M337 462l-119 -285h298l-116 285h-63zM275 553h192l235 -553h-107l-38 87h-377l-38 -87h-109zM516 716l40 -51q-40 -62 -114 -62q-30 0 -73 19t-68 19q-47 0 -77 -38l-48 48q46 72 128 72q38 0 78 -18t61 -18q45 0 73 29z" />
    <glyph glyph-name="Adieresis" unicode="&#xc4;" horiz-adv-x="735" 
d="M337 462l-119 -285h298l-116 285h-63zM275 553h192l235 -553h-107l-38 87h-377l-38 -87h-109zM243 746q27 0 46.5 -19t19.5 -45q0 -27 -19 -46.5t-47 -19.5q-27 0 -46 19.5t-19 46.5q0 26 19 45t46 19zM480 746q28 0 47.5 -19t19.5 -45q0 -27 -19.5 -46.5t-47.5 -19.5
q-26 0 -45.5 19.5t-19.5 46.5q0 26 19.5 45t45.5 19z" />
    <glyph glyph-name="Aring" unicode="&#xc5;" horiz-adv-x="735" 
d="M337 462l-119 -285h298l-116 285h-63zM275 553h192l235 -553h-107l-38 87h-377l-38 -87h-109zM497 723q0 -56 -38.5 -90.5t-92.5 -34.5t-92.5 34.5t-38.5 90.5q0 55 38.5 89.5t92.5 34.5t92.5 -34.5t38.5 -89.5zM308 723q0 -28 16 -43t42 -15t42 15t16 43q0 27 -16 42
t-42 15t-42 -15t-16 -42z" />
    <glyph glyph-name="AE" unicode="&#xc6;" horiz-adv-x="1095" 
d="M383 553h649v-91h-401v-133h361v-90h-361v-146h421v-93h-522v100h-331l-71 -100h-119zM433 462l-169 -268h266v268h-97z" />
    <glyph glyph-name="Ccedilla" unicode="&#xc7;" 
d="M621 427l-79 -46q-69 94 -197 94q-93 0 -148.5 -54t-55.5 -145q0 -88 56.5 -143.5t147.5 -55.5q125 0 197 95l80 -47q-83 -128 -247 -138v-30q42 -3 66 -26t24 -62q0 -48 -38.5 -73t-97.5 -25q-42 0 -78 18l18 53q26 -11 62 -11q59 0 59 38q0 30 -40 30h-45l-6 6l8 84
q-120 11 -193.5 88t-73.5 199q0 132 87 211t220 79q186 0 274 -139z" />
    <glyph glyph-name="Egrave" unicode="&#xc8;" horiz-adv-x="608" 
d="M53 553h495v-92h-393v-133h354v-91h-354v-144h408v-93h-510v553zM328 810l48 -183l-85 -20l-50 182z" />
    <glyph glyph-name="Eacute" unicode="&#xc9;" horiz-adv-x="608" 
d="M53 553h495v-92h-393v-133h354v-91h-354v-144h408v-93h-510v553zM254 627l48 183l87 -21l-50 -182z" />
    <glyph glyph-name="Ecircumflex" unicode="&#xca;" horiz-adv-x="608" 
d="M53 553h495v-92h-393v-133h354v-91h-354v-144h408v-93h-510v553zM421 601l-108 68l-109 -68l-40 53l149 110l150 -110z" />
    <glyph glyph-name="Edieresis" unicode="&#xcb;" horiz-adv-x="608" 
d="M53 553h495v-92h-393v-133h354v-91h-354v-144h408v-93h-510v553zM186 746q27 0 46.5 -19t19.5 -45q0 -27 -19 -46.5t-47 -19.5q-27 0 -46 19.5t-19 46.5q0 26 19 45t46 19zM423 746q28 0 47.5 -19t19.5 -45q0 -27 -19.5 -46.5t-47.5 -19.5q-26 0 -45.5 19.5t-19.5 46.5
q0 26 19.5 45t45.5 19z" />
    <glyph glyph-name="Igrave" unicode="&#xcc;" horiz-adv-x="208" 
d="M53 553h102v-553h-102v553zM120 810l48 -183l-85 -20l-50 182z" />
    <glyph glyph-name="Iacute" unicode="&#xcd;" horiz-adv-x="208" 
d="M53 553h102v-553h-102v553zM50 627l48 183l87 -21l-50 -182z" />
    <glyph glyph-name="Icircumflex" unicode="&#xce;" horiz-adv-x="208" 
d="M53 553h102v-553h-102v553zM217 601l-108 68l-109 -68l-40 53l149 110l150 -110z" />
    <glyph glyph-name="Idieresis" unicode="&#xcf;" horiz-adv-x="208" 
d="M53 553h102v-553h-102v553zM-13 746q27 0 46.5 -19t19.5 -45q0 -27 -19 -46.5t-47 -19.5q-27 0 -46 19.5t-19 46.5q0 26 19 45t46 19zM224 746q28 0 47.5 -19t19.5 -45q0 -27 -19.5 -46.5t-47.5 -19.5q-26 0 -45.5 19.5t-19.5 46.5q0 26 19.5 45t45.5 19z" />
    <glyph glyph-name="Eth" unicode="&#xd0;" horiz-adv-x="691" 
d="M75 553h279q122 0 209.5 -76.5t87.5 -199.5q0 -122 -88.5 -199.5t-208.5 -77.5h-279v241h-65v90h65v222zM176 461v-130h149v-90h-149v-148h175q89 0 144 51t55 133t-55 133t-144 51h-175z" />
    <glyph glyph-name="Ntilde" unicode="&#xd1;" horiz-adv-x="676" 
d="M53 553h102l367 -411v411h101v-553h-103l-367 413v-413h-100v553zM491 727l40 -51q-40 -62 -114 -62q-31 0 -74 19t-67 19q-47 0 -77 -38l-48 48q47 72 128 72q38 0 78 -18t61 -18q45 0 73 29z" />
    <glyph glyph-name="Ograve" unicode="&#xd2;" horiz-adv-x="701" 
d="M143 276q0 -93 58.5 -147.5t148.5 -54.5t149 54.5t59 147.5t-59 147.5t-149 54.5t-148.5 -54.5t-58.5 -147.5zM659 276q0 -129 -89 -209.5t-220 -80.5t-220 80.5t-89 209.5t89 209.5t220 80.5t220 -80.5t89 -209.5zM340 810l48 -183l-85 -20l-50 182z" />
    <glyph glyph-name="Oacute" unicode="&#xd3;" horiz-adv-x="701" 
d="M143 276q0 -93 58.5 -147.5t148.5 -54.5t149 54.5t59 147.5t-59 147.5t-149 54.5t-148.5 -54.5t-58.5 -147.5zM659 276q0 -129 -89 -209.5t-220 -80.5t-220 80.5t-89 209.5t89 209.5t220 80.5t220 -80.5t89 -209.5zM316 627l48 183l87 -21l-50 -182z" />
    <glyph glyph-name="Ocircumflex" unicode="&#xd4;" horiz-adv-x="701" 
d="M143 276q0 -93 58.5 -147.5t148.5 -54.5t149 54.5t59 147.5t-59 147.5t-149 54.5t-148.5 -54.5t-58.5 -147.5zM659 276q0 -129 -89 -209.5t-220 -80.5t-220 80.5t-89 209.5t89 209.5t220 80.5t220 -80.5t89 -209.5zM457 601l-108 68l-109 -68l-40 53l149 110l150 -110z
" />
    <glyph glyph-name="Otilde" unicode="&#xd5;" horiz-adv-x="701" 
d="M143 276q0 -93 58.5 -147.5t148.5 -54.5t149 54.5t59 147.5t-59 147.5t-149 54.5t-148.5 -54.5t-58.5 -147.5zM659 276q0 -129 -89 -209.5t-220 -80.5t-220 80.5t-89 209.5t89 209.5t220 80.5t220 -80.5t89 -209.5zM500 727l40 -51q-40 -62 -114 -62q-31 0 -74 19t-67 19
q-47 0 -77 -38l-48 48q47 72 128 72q38 0 78 -18t61 -18q45 0 73 29z" />
    <glyph glyph-name="Odieresis" unicode="&#xd6;" horiz-adv-x="701" 
d="M143 276q0 -93 58.5 -147.5t148.5 -54.5t149 54.5t59 147.5t-59 147.5t-149 54.5t-148.5 -54.5t-58.5 -147.5zM659 276q0 -129 -89 -209.5t-220 -80.5t-220 80.5t-89 209.5t89 209.5t220 80.5t220 -80.5t89 -209.5zM231 746q27 0 46.5 -19t19.5 -45q0 -27 -19 -46.5
t-47 -19.5q-27 0 -46 19.5t-19 46.5q0 26 19 45t46 19zM468 746q28 0 47.5 -19t19.5 -45q0 -27 -19.5 -46.5t-47.5 -19.5q-26 0 -45.5 19.5t-19.5 46.5q0 26 19.5 45t45.5 19z" />
    <glyph glyph-name="multiply" unicode="&#xd7;" horiz-adv-x="418" 
d="M121 438l90 -90l92 92l63 -62l-92 -92l90 -90l-60 -61l-91 91l-89 -90l-62 63l89 89l-90 90z" />
    <glyph glyph-name="Oslash" unicode="&#xd8;" horiz-adv-x="701" 
d="M483 590l80 -42l-23 -39q119 -84 119 -232q0 -129 -89 -209.5t-220 -80.5q-50 0 -105 15l-26 -44l-77 42l23 40q-58 39 -91 100t-33 137q0 128 89 208.5t220 80.5q56 0 109 -17zM212 122l200 347q-28 9 -62 9q-90 0 -148.5 -54t-58.5 -147q0 -100 69 -155zM493 427
l-201 -345q27 -6 58 -6q90 0 149 54t59 147q0 95 -65 150z" />
    <glyph glyph-name="Ugrave" unicode="&#xd9;" 
d="M48 553h102v-283q0 -92 44.5 -143t134.5 -51t135 51.5t45 142.5v283h101v-282q0 -136 -75 -210.5t-206 -74.5t-206 74.5t-75 210.5v282zM321 810l48 -183l-85 -20l-50 182z" />
    <glyph glyph-name="Uacute" unicode="&#xda;" 
d="M48 553h102v-283q0 -92 44.5 -143t134.5 -51t135 51.5t45 142.5v283h101v-282q0 -136 -75 -210.5t-206 -74.5t-206 74.5t-75 210.5v282zM287 626l48 183l87 -21l-50 -182z" />
    <glyph glyph-name="Ucircumflex" unicode="&#xdb;" 
d="M48 553h102v-283q0 -92 44.5 -143t134.5 -51t135 51.5t45 142.5v283h101v-282q0 -136 -75 -210.5t-206 -74.5t-206 74.5t-75 210.5v282zM438 601l-108 68l-109 -68l-40 53l149 110l150 -110z" />
    <glyph glyph-name="Udieresis" unicode="&#xdc;" 
d="M48 553h102v-283q0 -92 44.5 -143t134.5 -51t135 51.5t45 142.5v283h101v-282q0 -136 -75 -210.5t-206 -74.5t-206 74.5t-75 210.5v282zM210 746q27 0 46.5 -19t19.5 -45q0 -27 -19 -46.5t-47 -19.5q-27 0 -46 19.5t-19 46.5q0 26 19 45t46 19zM447 746q28 0 47.5 -19
t19.5 -45q0 -27 -19.5 -46.5t-47.5 -19.5q-26 0 -45.5 19.5t-19.5 46.5q0 26 19.5 45t45.5 19z" />
    <glyph glyph-name="Yacute" unicode="&#xdd;" horiz-adv-x="686" 
d="M30 553h116l194 -314h12l188 314h116l-263 -415v-138h-100v138zM306 627l48 183l87 -21l-50 -182z" />
    <glyph glyph-name="Thorn" unicode="&#xde;" horiz-adv-x="615" 
d="M53 553h102v-67h210q89 0 150.5 -61t61.5 -149t-61.5 -148t-150.5 -60h-210v-68h-102v553zM155 394v-234h206q55 0 85.5 33t30.5 83q0 51 -30.5 84.5t-85.5 33.5h-206z" />
    <glyph glyph-name="agrave" unicode="&#xe0;" horiz-adv-x="735" 
d="M337 462l-119 -285h298l-116 285h-63zM275 553h192l235 -553h-107l-38 87h-377l-38 -87h-109zM366 810l48 -183l-85 -20l-50 182z" />
    <glyph glyph-name="aacute" unicode="&#xe1;" horiz-adv-x="735" 
d="M337 462l-119 -285h298l-116 285h-63zM275 553h192l235 -553h-107l-38 87h-377l-38 -87h-109zM331 628l48 183l87 -21l-50 -182z" />
    <glyph glyph-name="acircumflex" unicode="&#xe2;" horiz-adv-x="735" 
d="M337 462l-119 -285h298l-116 285h-63zM275 553h192l235 -553h-107l-38 87h-377l-38 -87h-109zM474 601l-108 68l-109 -68l-40 53l149 110l150 -110z" />
    <glyph glyph-name="atilde" unicode="&#xe3;" horiz-adv-x="735" 
d="M337 462l-119 -285h298l-116 285h-63zM275 553h192l235 -553h-107l-38 87h-377l-38 -87h-109zM516 727l40 -51q-40 -62 -114 -62q-30 0 -73 19t-68 19q-47 0 -77 -38l-48 48q46 72 128 72q38 0 78 -18t61 -18q45 0 73 29z" />
    <glyph glyph-name="adieresis" unicode="&#xe4;" horiz-adv-x="735" 
d="M337 462l-119 -285h298l-116 285h-63zM275 553h192l235 -553h-107l-38 87h-377l-38 -87h-109zM247 746q27 0 46.5 -19t19.5 -45q0 -27 -19 -46.5t-47 -19.5q-27 0 -46 19.5t-19 46.5q0 26 19 45t46 19zM484 746q28 0 47.5 -19t19.5 -45q0 -27 -19.5 -46.5t-47.5 -19.5
q-26 0 -45.5 19.5t-19.5 46.5q0 26 19.5 45t45.5 19z" />
    <glyph glyph-name="aring" unicode="&#xe5;" horiz-adv-x="735" 
d="M337 462l-119 -285h298l-116 285h-63zM275 553h192l235 -553h-107l-38 87h-377l-38 -87h-109zM497 723q0 -56 -38.5 -90.5t-92.5 -34.5t-92.5 34.5t-38.5 90.5q0 55 38.5 89.5t92.5 34.5t92.5 -34.5t38.5 -89.5zM308 723q0 -28 16 -43t42 -15t42 15t16 43q0 27 -16 42
t-42 15t-42 -15t-16 -42z" />
    <glyph glyph-name="ae" unicode="&#xe6;" horiz-adv-x="1095" 
d="M383 553h649v-91h-401v-133h361v-90h-361v-146h421v-93h-522v100h-331l-71 -100h-119zM433 462l-169 -268h266v268h-97z" />
    <glyph glyph-name="ccedilla" unicode="&#xe7;" 
d="M621 427l-79 -46q-69 94 -197 94q-93 0 -148.5 -54t-55.5 -145q0 -88 56.5 -143.5t147.5 -55.5q125 0 197 95l80 -47q-83 -128 -247 -138v-30q42 -3 66 -26t24 -62q0 -48 -38.5 -73t-97.5 -25q-42 0 -78 18l18 53q26 -11 62 -11q59 0 59 38q0 30 -40 30h-45l-6 6l8 84
q-120 11 -193.5 88t-73.5 199q0 132 87 211t220 79q186 0 274 -139z" />
    <glyph glyph-name="egrave" unicode="&#xe8;" horiz-adv-x="608" 
d="M53 553h495v-92h-393v-133h354v-91h-354v-144h408v-93h-510v553zM328 810l48 -183l-85 -20l-50 182z" />
    <glyph glyph-name="eacute" unicode="&#xe9;" horiz-adv-x="608" 
d="M53 553h495v-92h-393v-133h354v-91h-354v-144h408v-93h-510v553zM265 627l48 183l87 -21l-50 -182z" />
    <glyph glyph-name="ecircumflex" unicode="&#xea;" horiz-adv-x="608" 
d="M53 553h495v-92h-393v-133h354v-91h-354v-144h408v-93h-510v553zM421 601l-108 68l-109 -68l-40 53l149 110l150 -110z" />
    <glyph glyph-name="edieresis" unicode="&#xeb;" horiz-adv-x="608" 
d="M53 553h495v-92h-393v-133h354v-91h-354v-144h408v-93h-510v553zM186 746q27 0 46.5 -19t19.5 -45q0 -27 -19 -46.5t-47 -19.5q-27 0 -46 19.5t-19 46.5q0 26 19 45t46 19zM423 746q28 0 47.5 -19t19.5 -45q0 -27 -19.5 -46.5t-47.5 -19.5q-26 0 -45.5 19.5t-19.5 46.5
q0 26 19.5 45t45.5 19z" />
    <glyph glyph-name="igrave" unicode="&#xec;" horiz-adv-x="208" 
d="M53 553h102v-553h-102v553zM104 810l48 -183l-85 -20l-50 182z" />
    <glyph glyph-name="iacute" unicode="&#xed;" horiz-adv-x="208" 
d="M53 553h102v-553h-102v553zM63 627l48 183l87 -21l-50 -182z" />
    <glyph glyph-name="icircumflex" unicode="&#xee;" horiz-adv-x="208" 
d="M53 553h102v-553h-102v553zM217 601l-108 68l-109 -68l-40 53l149 110l150 -110z" />
    <glyph glyph-name="idieresis" unicode="&#xef;" horiz-adv-x="208" 
d="M53 553h102v-553h-102v553zM-13 746q27 0 46.5 -19t19.5 -45q0 -27 -19 -46.5t-47 -19.5q-27 0 -46 19.5t-19 46.5q0 26 19 45t46 19zM224 746q28 0 47.5 -19t19.5 -45q0 -27 -19.5 -46.5t-47.5 -19.5q-26 0 -45.5 19.5t-19.5 46.5q0 26 19.5 45t45.5 19z" />
    <glyph glyph-name="eth" unicode="&#xf0;" horiz-adv-x="691" 
d="M75 553h279q122 0 209.5 -76.5t87.5 -199.5q0 -122 -88.5 -199.5t-208.5 -77.5h-279v241h-65v90h65v222zM176 461v-130h149v-90h-149v-148h175q89 0 144 51t55 133t-55 133t-144 51h-175z" />
    <glyph glyph-name="ntilde" unicode="&#xf1;" horiz-adv-x="676" 
d="M53 553h102l367 -411v411h101v-553h-103l-367 413v-413h-100v553zM487 727l40 -51q-40 -62 -114 -62q-31 0 -74 19t-67 19q-47 0 -77 -38l-48 48q47 72 128 72q38 0 78 -18t61 -18q45 0 73 29z" />
    <glyph glyph-name="ograve" unicode="&#xf2;" horiz-adv-x="701" 
d="M143 276q0 -93 58.5 -147.5t148.5 -54.5t149 54.5t59 147.5t-59 147.5t-149 54.5t-148.5 -54.5t-58.5 -147.5zM659 276q0 -129 -89 -209.5t-220 -80.5t-220 80.5t-89 209.5t89 209.5t220 80.5t220 -80.5t89 -209.5zM341 810l48 -183l-85 -20l-50 182z" />
    <glyph glyph-name="oacute" unicode="&#xf3;" horiz-adv-x="701" 
d="M143 276q0 -93 58.5 -147.5t148.5 -54.5t149 54.5t59 147.5t-59 147.5t-149 54.5t-148.5 -54.5t-58.5 -147.5zM659 276q0 -129 -89 -209.5t-220 -80.5t-220 80.5t-89 209.5t89 209.5t220 80.5t220 -80.5t89 -209.5zM313 627l48 183l87 -21l-50 -182z" />
    <glyph glyph-name="ocircumflex" unicode="&#xf4;" horiz-adv-x="701" 
d="M143 276q0 -93 58.5 -147.5t148.5 -54.5t149 54.5t59 147.5t-59 147.5t-149 54.5t-148.5 -54.5t-58.5 -147.5zM659 276q0 -129 -89 -209.5t-220 -80.5t-220 80.5t-89 209.5t89 209.5t220 80.5t220 -80.5t89 -209.5zM457 601l-108 68l-109 -68l-40 53l149 110l150 -110z
" />
    <glyph glyph-name="otilde" unicode="&#xf5;" horiz-adv-x="701" 
d="M143 276q0 -93 58.5 -147.5t148.5 -54.5t149 54.5t59 147.5t-59 147.5t-149 54.5t-148.5 -54.5t-58.5 -147.5zM659 276q0 -129 -89 -209.5t-220 -80.5t-220 80.5t-89 209.5t89 209.5t220 80.5t220 -80.5t89 -209.5zM492 729l40 -51q-40 -62 -114 -62q-31 0 -74 19t-67 19
q-47 0 -77 -38l-48 48q47 72 128 72q38 0 78 -18t61 -18q45 0 73 29z" />
    <glyph glyph-name="odieresis" unicode="&#xf6;" horiz-adv-x="701" 
d="M143 276q0 -93 58.5 -147.5t148.5 -54.5t149 54.5t59 147.5t-59 147.5t-149 54.5t-148.5 -54.5t-58.5 -147.5zM659 276q0 -129 -89 -209.5t-220 -80.5t-220 80.5t-89 209.5t89 209.5t220 80.5t220 -80.5t89 -209.5zM231 746q27 0 46.5 -19t19.5 -45q0 -27 -19 -46.5
t-47 -19.5q-27 0 -46 19.5t-19 46.5q0 26 19 45t46 19zM468 746q28 0 47.5 -19t19.5 -45q0 -27 -19.5 -46.5t-47.5 -19.5q-26 0 -45.5 19.5t-19.5 46.5q0 26 19.5 45t45.5 19z" />
    <glyph glyph-name="divide" unicode="&#xf7;" horiz-adv-x="383" 
d="M193 509q29 0 49 -20.5t20 -48.5q0 -29 -20 -49t-49 -20t-49.5 20t-20.5 49t20.5 49t49.5 20zM193 194q29 0 49 -20t20 -48q0 -29 -20 -48t-49 -19t-49.5 19t-20.5 47q0 29 20.5 49t49.5 20zM33 320h316v-82h-316v82z" />
    <glyph glyph-name="oslash" unicode="&#xf8;" horiz-adv-x="690" 
d="M483 590l80 -42l-23 -39q119 -84 119 -232q0 -129 -89 -209.5t-220 -80.5q-50 0 -105 15l-26 -44l-77 42l23 40q-58 39 -91 100t-33 137q0 128 89 208.5t220 80.5q56 0 109 -17zM212 122l200 347q-28 9 -62 9q-90 0 -148.5 -54t-58.5 -147q0 -100 69 -155zM493 427
l-201 -345q27 -6 58 -6q90 0 149 54t59 147q0 95 -65 150z" />
    <glyph glyph-name="ugrave" unicode="&#xf9;" 
d="M48 553h102v-283q0 -92 44.5 -143t134.5 -51t135 51.5t45 142.5v283h101v-282q0 -136 -75 -210.5t-206 -74.5t-206 74.5t-75 210.5v282zM325 810l48 -183l-85 -20l-50 182z" />
    <glyph glyph-name="uacute" unicode="&#xfa;" 
d="M48 553h102v-283q0 -92 44.5 -143t134.5 -51t135 51.5t45 142.5v283h101v-282q0 -136 -75 -210.5t-206 -74.5t-206 74.5t-75 210.5v282zM280 627l48 183l87 -21l-50 -182z" />
    <glyph glyph-name="ucircumflex" unicode="&#xfb;" 
d="M48 553h102v-283q0 -92 44.5 -143t134.5 -51t135 51.5t45 142.5v283h101v-282q0 -136 -75 -210.5t-206 -74.5t-206 74.5t-75 210.5v282zM437 601l-108 68l-109 -68l-40 53l149 110l150 -110z" />
    <glyph glyph-name="udieresis" unicode="&#xfc;" 
d="M48 553h102v-283q0 -92 44.5 -143t134.5 -51t135 51.5t45 142.5v283h101v-282q0 -136 -75 -210.5t-206 -74.5t-206 74.5t-75 210.5v282zM210 746q27 0 46.5 -19t19.5 -45q0 -27 -19 -46.5t-47 -19.5q-27 0 -46 19.5t-19 46.5q0 26 19 45t46 19zM447 746q28 0 47.5 -19
t19.5 -45q0 -27 -19.5 -46.5t-47.5 -19.5q-26 0 -45.5 19.5t-19.5 46.5q0 26 19.5 45t45.5 19z" />
    <glyph glyph-name="yacute" unicode="&#xfd;" horiz-adv-x="686" 
d="M30 553h116l194 -314h12l188 314h116l-263 -415v-138h-100v138zM302 627l48 183l87 -21l-50 -182z" />
    <glyph glyph-name="thorn" unicode="&#xfe;" horiz-adv-x="615" 
d="M53 553h102v-67h210q89 0 150.5 -61t61.5 -149t-61.5 -148t-150.5 -60h-210v-68h-102v553zM155 394v-234h206q55 0 85.5 33t30.5 83q0 51 -30.5 84.5t-85.5 33.5h-206z" />
    <glyph glyph-name="ydieresis" unicode="&#xff;" horiz-adv-x="686" 
d="M30 553h116l194 -314h12l188 314h116l-263 -415v-138h-100v138zM223 746q27 0 46.5 -19t19.5 -45q0 -27 -19 -46.5t-47 -19.5q-27 0 -46 19.5t-19 46.5q0 26 19 45t46 19zM460 746q28 0 47.5 -19t19.5 -45q0 -27 -19.5 -46.5t-47.5 -19.5q-26 0 -45.5 19.5t-19.5 46.5
q0 26 19.5 45t45.5 19z" />
    <glyph glyph-name="Amacron" unicode="&#x100;" horiz-adv-x="735" 
d="M337 462l-119 -285h298l-116 285h-63zM275 553h192l235 -553h-107l-38 87h-377l-38 -87h-109zM186 707h362v-81h-362v81z" />
    <glyph glyph-name="amacron" unicode="&#x101;" horiz-adv-x="735" 
d="M337 462l-119 -285h298l-116 285h-63zM275 553h192l235 -553h-107l-38 87h-377l-38 -87h-109zM193 707h362v-81h-362v81z" />
    <glyph glyph-name="Abreve" unicode="&#x102;" horiz-adv-x="735" 
d="M337 462l-119 -285h298l-116 285h-63zM275 553h192l235 -553h-107l-38 87h-377l-38 -87h-109zM474 733l52 -53q-68 -73 -159 -73t-160 73l52 53q45 -46 108 -46q62 0 107 46z" />
    <glyph glyph-name="abreve" unicode="&#x103;" horiz-adv-x="735" 
d="M337 462l-119 -285h298l-116 285h-63zM275 553h192l235 -553h-107l-38 87h-377l-38 -87h-109zM474 733l52 -53q-68 -73 -159 -73t-160 73l52 53q45 -46 108 -46q62 0 107 46z" />
    <glyph glyph-name="Aogonek" unicode="&#x104;" horiz-adv-x="735" 
d="M276 553h190l236 -553q-25 -32 -25 -72q0 -52 44 -90l-48 -39q-78 35 -78 109q0 57 38 92h-36l-38 87h-380l-38 -87h-108zM334 460l-118 -284h302l-115 284h-69z" />
    <glyph glyph-name="aogonek" unicode="&#x105;" horiz-adv-x="735" 
d="M276 553h190l236 -553q-25 -32 -25 -72q0 -52 44 -90l-48 -39q-78 35 -78 109q0 57 38 92h-36l-38 87h-380l-38 -87h-108zM334 460l-118 -284h302l-115 284h-69z" />
    <glyph glyph-name="Cacute" unicode="&#x106;" 
d="M621 427l-79 -46q-69 94 -197 94q-93 0 -148.5 -54t-55.5 -145q0 -88 56.5 -143.5t147.5 -55.5q125 0 197 95l80 -47q-91 -139 -275 -139q-134 0 -220.5 79t-86.5 211t87 211t220 79q186 0 274 -139zM286 627l48 183l87 -21l-50 -182z" />
    <glyph glyph-name="cacute" unicode="&#x107;" 
d="M621 427l-79 -46q-69 94 -197 94q-93 0 -148.5 -54t-55.5 -145q0 -88 56.5 -143.5t147.5 -55.5q125 0 197 95l80 -47q-91 -139 -275 -139q-134 0 -220.5 79t-86.5 211t87 211t220 79q186 0 274 -139zM321 627l48 183l87 -21l-50 -182z" />
    <glyph glyph-name="Ccircumflex" unicode="&#x108;" 
d="M621 427l-79 -46q-69 94 -197 94q-93 0 -148.5 -54t-55.5 -145q0 -88 56.5 -143.5t147.5 -55.5q125 0 197 95l80 -47q-91 -139 -275 -139q-134 0 -220.5 79t-86.5 211t87 211t220 79q186 0 274 -139zM449 601l-108 68l-109 -68l-40 53l149 110l150 -110z" />
    <glyph glyph-name="ccircumflex" unicode="&#x109;" 
d="M621 427l-79 -46q-69 94 -197 94q-93 0 -148.5 -54t-55.5 -145q0 -88 56.5 -143.5t147.5 -55.5q125 0 197 95l80 -47q-91 -139 -275 -139q-134 0 -220.5 79t-86.5 211t87 211t220 79q186 0 274 -139zM458 601l-108 68l-109 -68l-40 53l149 110l150 -110z" />
    <glyph glyph-name="Cdotaccent" unicode="&#x10a;" 
d="M621 427l-79 -46q-69 94 -197 94q-93 0 -148.5 -54t-55.5 -145q0 -88 56.5 -143.5t147.5 -55.5q125 0 197 95l80 -47q-91 -139 -275 -139q-134 0 -220.5 79t-86.5 211t87 211t220 79q186 0 274 -139zM342 746q28 0 48 -19t20 -46q0 -28 -20 -48t-48 -20t-47.5 20
t-19.5 48q0 27 19.5 46t47.5 19z" />
    <glyph glyph-name="cdotaccent" unicode="&#x10b;" 
d="M621 427l-79 -46q-69 94 -197 94q-93 0 -148.5 -54t-55.5 -145q0 -88 56.5 -143.5t147.5 -55.5q125 0 197 95l80 -47q-91 -139 -275 -139q-134 0 -220.5 79t-86.5 211t87 211t220 79q186 0 274 -139zM353 746q28 0 48 -19t20 -46q0 -28 -20 -48t-48 -20t-47.5 20
t-19.5 48q0 27 19.5 46t47.5 19z" />
    <glyph glyph-name="Ccaron" unicode="&#x10c;" 
d="M621 427l-79 -46q-69 94 -197 94q-93 0 -148.5 -54t-55.5 -145q0 -88 56.5 -143.5t147.5 -55.5q125 0 197 95l80 -47q-91 -139 -275 -139q-134 0 -220.5 79t-86.5 211t87 211t220 79q186 0 274 -139zM236 761l108 -68l109 68l40 -53l-149 -110l-150 110z" />
    <glyph glyph-name="ccaron" unicode="&#x10d;" 
d="M621 427l-79 -46q-69 94 -197 94q-93 0 -148.5 -54t-55.5 -145q0 -88 56.5 -143.5t147.5 -55.5q125 0 197 95l80 -47q-91 -139 -275 -139q-134 0 -220.5 79t-86.5 211t87 211t220 79q186 0 274 -139zM248 761l108 -68l109 68l40 -53l-149 -110l-150 110z" />
    <glyph glyph-name="Dcaron" unicode="&#x10e;" horiz-adv-x="670" 
d="M53 553h279q122 0 210 -76.5t88 -199.5t-88.5 -200t-209.5 -77h-279v553zM155 461v-368h175q89 0 143.5 51t54.5 133t-54.5 133t-143.5 51h-175zM196 761l108 -68l109 68l40 -53l-149 -110l-150 110z" />
    <glyph glyph-name="dcaron" unicode="&#x10f;" horiz-adv-x="670" 
d="M53 553h279q122 0 210 -76.5t88 -199.5t-88.5 -200t-209.5 -77h-279v553zM155 461v-368h175q89 0 143.5 51t54.5 133t-54.5 133t-143.5 51h-175zM196 761l108 -68l109 68l40 -53l-149 -110l-150 110z" />
    <glyph glyph-name="Dcroat" unicode="&#x110;" horiz-adv-x="691" 
d="M75 553h279q122 0 209.5 -76.5t87.5 -199.5q0 -122 -88.5 -199.5t-208.5 -77.5h-279v241h-65v90h65v222zM176 461v-130h149v-90h-149v-148h175q89 0 144 51t55 133t-55 133t-144 51h-175z" />
    <glyph glyph-name="dcroat" unicode="&#x111;" horiz-adv-x="691" 
d="M75 553h279q122 0 209.5 -76.5t87.5 -199.5q0 -122 -88.5 -199.5t-208.5 -77.5h-279v241h-65v90h65v222zM176 461v-130h149v-90h-149v-148h175q89 0 144 51t55 133t-55 133t-144 51h-175z" />
    <glyph glyph-name="Emacron" unicode="&#x112;" horiz-adv-x="608" 
d="M53 553h495v-92h-393v-133h354v-91h-354v-144h408v-93h-510v553zM127 707h362v-81h-362v81z" />
    <glyph glyph-name="emacron" unicode="&#x113;" horiz-adv-x="608" 
d="M53 553h495v-92h-393v-133h354v-91h-354v-144h408v-93h-510v553zM131 707h362v-81h-362v81z" />
    <glyph glyph-name="Ebreve" unicode="&#x114;" horiz-adv-x="608" 
d="M53 553h495v-92h-393v-133h354v-91h-354v-144h408v-93h-510v553zM422 739l52 -53q-68 -73 -159 -73t-160 73l52 53q45 -46 108 -46q62 0 107 46z" />
    <glyph glyph-name="ebreve" unicode="&#x115;" horiz-adv-x="608" 
d="M53 553h495v-92h-393v-133h354v-91h-354v-144h408v-93h-510v553zM414 739l52 -53q-68 -73 -159 -73t-160 73l52 53q45 -46 108 -46q62 0 107 46z" />
    <glyph glyph-name="Edotaccent" unicode="&#x116;" horiz-adv-x="608" 
d="M53 553h495v-92h-393v-133h354v-91h-354v-144h408v-93h-510v553zM311 746q28 0 48 -19t20 -46q0 -28 -20 -48t-48 -20t-47.5 20t-19.5 48q0 27 19.5 46t47.5 19z" />
    <glyph glyph-name="edotaccent" unicode="&#x117;" horiz-adv-x="608" 
d="M53 553h495v-92h-393v-133h354v-91h-354v-144h408v-93h-510v553zM311 746q28 0 48 -19t20 -46q0 -28 -20 -48t-48 -20t-47.5 20t-19.5 48q0 27 19.5 46t47.5 19z" />
    <glyph glyph-name="Eogonek" unicode="&#x118;" horiz-adv-x="608" 
d="M53 553h495v-92h-393v-132h354v-92h-354v-144h408v-93q-30 -30 -30 -72q0 -52 44 -90l-47 -41q-37 17 -57.5 46.5t-20.5 64.5q0 58 41 92h-440v553z" />
    <glyph glyph-name="eogonek" unicode="&#x119;" horiz-adv-x="608" 
d="M53 553h495v-92h-393v-132h354v-92h-354v-144h408v-93q-30 -30 -30 -72q0 -52 44 -90l-47 -41q-37 17 -57.5 46.5t-20.5 64.5q0 58 41 92h-440v553z" />
    <glyph glyph-name="Ecaron" unicode="&#x11a;" horiz-adv-x="608" 
d="M53 553h495v-92h-393v-133h354v-91h-354v-144h408v-93h-510v553zM207 761l108 -68l109 68l40 -53l-149 -110l-150 110z" />
    <glyph glyph-name="ecaron" unicode="&#x11b;" horiz-adv-x="608" 
d="M53 553h495v-92h-393v-133h354v-91h-354v-144h408v-93h-510v553zM207 761l108 -68l109 68l40 -53l-149 -110l-150 110z" />
    <glyph glyph-name="Gcircumflex" unicode="&#x11c;" horiz-adv-x="689" 
d="M389 314h244v-314h-65l-15 51q-84 -65 -205 -65q-135 0 -221.5 79t-86.5 211t87 211t221 79q180 0 272 -133l-80 -46q-35 45 -80.5 65.5t-114.5 20.5q-93 0 -148.5 -53t-55.5 -144q0 -89 56.5 -143t147.5 -54q121 0 190 65v81l-146 6v83zM458 601l-108 68l-109 -68
l-40 53l149 110l150 -110z" />
    <glyph glyph-name="gcircumflex" unicode="&#x11d;" horiz-adv-x="689" 
d="M389 314h244v-314h-65l-15 51q-84 -65 -205 -65q-135 0 -221.5 79t-86.5 211t87 211t221 79q180 0 272 -133l-80 -46q-35 45 -80.5 65.5t-114.5 20.5q-93 0 -148.5 -53t-55.5 -144q0 -89 56.5 -143t147.5 -54q121 0 190 65v81l-146 6v83zM458 601l-108 68l-109 -68
l-40 53l149 110l150 -110z" />
    <glyph glyph-name="Gbreve" unicode="&#x11e;" horiz-adv-x="689" 
d="M389 314h244v-314h-65l-15 51q-84 -65 -205 -65q-135 0 -221.5 79t-86.5 211t87 211t221 79q180 0 272 -133l-80 -46q-35 45 -80.5 65.5t-114.5 20.5q-93 0 -148.5 -53t-55.5 -144q0 -89 56.5 -143t147.5 -54q121 0 190 65v81l-146 6v83zM456 739l52 -53
q-68 -73 -159 -73t-160 73l52 53q45 -46 108 -46q62 0 107 46z" />
    <glyph glyph-name="gbreve" unicode="&#x11f;" horiz-adv-x="689" 
d="M389 314h244v-314h-65l-15 51q-84 -65 -205 -65q-135 0 -221.5 79t-86.5 211t87 211t221 79q180 0 272 -133l-80 -46q-35 45 -80.5 65.5t-114.5 20.5q-93 0 -148.5 -53t-55.5 -144q0 -89 56.5 -143t147.5 -54q121 0 190 65v81l-146 6v83zM463 739l52 -53
q-68 -73 -159 -73t-160 73l52 53q45 -46 108 -46q62 0 107 46z" />
    <glyph glyph-name="Gdotaccent" unicode="&#x120;" horiz-adv-x="689" 
d="M389 314h244v-314h-65l-15 51q-84 -65 -205 -65q-135 0 -221.5 79t-86.5 211t87 211t221 79q180 0 272 -133l-80 -46q-35 45 -80.5 65.5t-114.5 20.5q-93 0 -148.5 -53t-55.5 -144q0 -89 56.5 -143t147.5 -54q121 0 190 65v81l-146 6v83zM345 746q28 0 48 -19t20 -46
q0 -28 -20 -48t-48 -20t-47.5 20t-19.5 48q0 27 19.5 46t47.5 19z" />
    <glyph glyph-name="gdotaccent" unicode="&#x121;" horiz-adv-x="689" 
d="M389 314h244v-314h-65l-15 51q-84 -65 -205 -65q-135 0 -221.5 79t-86.5 211t87 211t221 79q180 0 272 -133l-80 -46q-35 45 -80.5 65.5t-114.5 20.5q-93 0 -148.5 -53t-55.5 -144q0 -89 56.5 -143t147.5 -54q121 0 190 65v81l-146 6v83zM345 746q28 0 48 -19t20 -46
q0 -28 -20 -48t-48 -20t-47.5 20t-19.5 48q0 27 19.5 46t47.5 19z" />
    <glyph glyph-name="Gcommaaccent" unicode="&#x122;" horiz-adv-x="689" 
d="M389 314h244v-314h-65l-15 51q-84 -65 -205 -65q-135 0 -221.5 79t-86.5 211t87 211t221 79q180 0 272 -133l-80 -46q-35 45 -80.5 65.5t-114.5 20.5q-93 0 -148.5 -53t-55.5 -144q0 -89 56.5 -143t147.5 -54q121 0 190 65v81l-146 6v83zM349 -40q29 0 48 -20t19 -49
q0 -10 -4 -26l-51 -131l-55 13l14 82q-18 7 -29 24.5t-11 38.5q0 28 20 48t49 20z" />
    <glyph glyph-name="gcommaaccent" unicode="&#x123;" horiz-adv-x="689" 
d="M389 314h244v-314h-65l-15 51q-84 -65 -205 -65q-135 0 -221.5 79t-86.5 211t87 211t221 79q180 0 272 -133l-80 -46q-35 45 -80.5 65.5t-114.5 20.5q-93 0 -148.5 -53t-55.5 -144q0 -89 56.5 -143t147.5 -54q121 0 190 65v81l-146 6v83zM356 -47q29 0 48 -20t19 -49
q0 -10 -4 -26l-51 -131l-55 13l14 82q-18 7 -29 24.5t-11 38.5q0 28 20 48t49 20z" />
    <glyph glyph-name="Hcircumflex" unicode="&#x124;" horiz-adv-x="665" 
d="M53 553h102v-221h355v221h101v-553h-101v241h-355v-241h-102v553zM435 601l-108 68l-109 -68l-40 53l149 110l150 -110z" />
    <glyph glyph-name="hcircumflex" unicode="&#x125;" horiz-adv-x="665" 
d="M53 553h102v-221h355v221h101v-553h-101v241h-355v-241h-102v553zM444 601l-108 68l-109 -68l-40 53l149 110l150 -110z" />
    <glyph glyph-name="Hbar" unicode="&#x126;" horiz-adv-x="658" 
d="M53 553h97v-69h358v69h97v-69h31v-81h-31v-403h-97v232h-358v-232h-97v403h-29v81h29v69zM150 329h358v74h-358v-74z" />
    <glyph glyph-name="hbar" unicode="&#x127;" horiz-adv-x="658" 
d="M53 553h97v-69h358v69h97v-69h31v-81h-31v-403h-97v232h-358v-232h-97v403h-29v81h29v69zM150 329h358v74h-358v-74z" />
    <glyph glyph-name="Itilde" unicode="&#x128;" horiz-adv-x="208" 
d="M53 553h102v-553h-102v553zM258 727l40 -51q-40 -62 -114 -62q-30 0 -73 19t-68 19q-47 0 -77 -38l-48 48q46 72 128 72q38 0 78 -18t61 -18q45 0 73 29z" />
    <glyph glyph-name="itilde" unicode="&#x129;" horiz-adv-x="208" 
d="M53 553h102v-553h-102v553zM258 727l40 -51q-40 -62 -114 -62q-31 0 -74 19t-67 19q-47 0 -77 -38l-48 48q47 72 128 72q38 0 78 -18t61 -18q45 0 73 29z" />
    <glyph glyph-name="imacron" unicode="&#x12b;" horiz-adv-x="208" 
d="M53 553h102v-553h-102v553zM-76 707h362v-81h-362v81z" />
    <glyph glyph-name="Ibreve" unicode="&#x12c;" horiz-adv-x="208" 
d="M53 553h102v-553h-102v553zM218 739l52 -53q-68 -73 -159 -73t-160 73l52 53q45 -46 108 -46q62 0 107 46z" />
    <glyph glyph-name="Iogonek" unicode="&#x12e;" horiz-adv-x="208" 
d="M53 553h102v-553q-23 -32 -23 -72q0 -53 44 -90l-48 -39q-78 35 -78 109q0 59 45 92h-42v553z" />
    <glyph glyph-name="iogonek" unicode="&#x12f;" horiz-adv-x="208" 
d="M53 553h102v-553q-23 -32 -23 -72q0 -53 44 -90l-48 -39q-78 35 -78 109q0 59 45 92h-42v553z" />
    <glyph glyph-name="Idotaccent" unicode="&#x130;" horiz-adv-x="208" 
d="M53 553h102v-553h-102v553zM110 746q28 0 48 -19t20 -46q0 -28 -20 -48t-48 -20t-47.5 20t-19.5 48q0 27 19.5 46t47.5 19z" />
    <glyph glyph-name="dotlessi" unicode="&#x131;" horiz-adv-x="208" 
d="M53 553h102v-553h-102v553z" />
    <glyph glyph-name="Jcircumflex" unicode="&#x134;" horiz-adv-x="597" 
d="M444 553h99v-314q0 -113 -66 -183t-200 -70q-85 0 -150 37.5t-100 107.5l87 45q23 -47 67 -73t95 -26q92 0 130 44t38 128v304zM600 601l-108 68l-109 -68l-40 53l149 110l150 -110z" />
    <glyph glyph-name="jcircumflex" unicode="&#x135;" horiz-adv-x="597" 
d="M444 553h99v-314q0 -113 -66 -183t-200 -70q-85 0 -150 37.5t-100 107.5l87 45q23 -47 67 -73t95 -26q92 0 130 44t38 128v304zM603 601l-108 68l-109 -68l-40 53l149 110l150 -110z" />
    <glyph glyph-name="Kcommaaccent" unicode="&#x136;" horiz-adv-x="647" 
d="M53 553h101v-214h193l146 214h117l-176 -256l190 -297h-120l-154 247h-196v-247h-101v553zM306 3q29 0 48 -20t19 -49q0 -10 -4 -26l-51 -131l-55 13l14 82q-18 7 -29 24.5t-11 38.5q0 28 20 48t49 20z" />
    <glyph glyph-name="kcommaaccent" unicode="&#x137;" horiz-adv-x="647" 
d="M53 553h101v-214h193l146 214h117l-176 -256l190 -297h-120l-154 247h-196v-247h-101v553zM306 3q29 0 48 -20t19 -49q0 -10 -4 -26l-51 -131l-55 13l14 82q-18 7 -29 24.5t-11 38.5q0 28 20 48t49 20z" />
    <glyph glyph-name="Lacute" unicode="&#x139;" horiz-adv-x="581" 
d="M53 553h102v-461h398v-92h-500v553zM72 626l48 183l87 -21l-50 -182z" />
    <glyph glyph-name="lacute" unicode="&#x13a;" horiz-adv-x="581" 
d="M53 553h102v-461h398v-92h-500v553zM72 626l48 183l87 -21l-50 -182z" />
    <glyph glyph-name="Lcommaaccent" unicode="&#x13b;" horiz-adv-x="581" 
d="M53 553h102v-461h398v-92h-500v553zM309 -40q29 0 48 -20t19 -49q0 -10 -4 -26l-51 -131l-55 13l14 82q-18 7 -29 24.5t-11 38.5q0 28 20 48t49 20z" />
    <glyph glyph-name="lcommaaccent" unicode="&#x13c;" horiz-adv-x="581" 
d="M53 553h102v-461h398v-92h-500v553zM309 -40q29 0 48 -20t19 -49q0 -10 -4 -26l-51 -131l-55 13l14 82q-18 7 -29 24.5t-11 38.5q0 28 20 48t49 20z" />
    <glyph glyph-name="Lcaron" unicode="&#x13d;" horiz-adv-x="581" 
d="M53 553h102v-461h398v-92h-500v553zM310 381l18 81q-40 14 -40 62q0 29 20 48t50 19q27 0 47 -19t20 -49q0 -11 -5 -24l-55 -130z" />
    <glyph glyph-name="lcaron" unicode="&#x13e;" horiz-adv-x="581" 
d="M53 553h102v-461h398v-92h-500v553zM323 381l18 81q-40 14 -40 62q0 29 20 48t50 19q27 0 47 -19t20 -49q0 -11 -5 -24l-55 -130z" />
    <glyph glyph-name="Ldot" unicode="&#x13f;" horiz-adv-x="581" 
d="M53 553h102v-461h398v-92h-500v553zM309 375q31 0 52.5 -22t21.5 -53q0 -30 -21.5 -52t-52.5 -22t-53 22t-22 52q0 31 22 53t53 22z" />
    <glyph glyph-name="ldot" unicode="&#x140;" horiz-adv-x="581" 
d="M53 553h102v-461h398v-92h-500v553zM346 375q31 0 52.5 -22t21.5 -53q0 -30 -21.5 -52t-52.5 -22t-53 22t-22 52q0 31 22 53t53 22z" />
    <glyph glyph-name="Lslash" unicode="&#x141;" horiz-adv-x="610" 
d="M43 223l-34 78l74 33v219h101v-174l107 48l35 -79l-142 -63v-192h398v-93h-499v240z" />
    <glyph glyph-name="lslash" unicode="&#x142;" horiz-adv-x="610" 
d="M43 223l-34 78l74 33v219h101v-174l107 48l35 -79l-142 -63v-192h398v-93h-499v240z" />
    <glyph glyph-name="Nacute" unicode="&#x143;" horiz-adv-x="676" 
d="M53 553h102l367 -411v411h101v-553h-103l-367 413v-413h-100v553zM291 627l48 183l87 -21l-50 -182z" />
    <glyph glyph-name="nacute" unicode="&#x144;" horiz-adv-x="676" 
d="M53 553h102l367 -411v411h101v-553h-103l-367 413v-413h-100v553zM291 627l48 183l87 -21l-50 -182z" />
    <glyph glyph-name="Ncommaaccent" unicode="&#x145;" horiz-adv-x="676" 
d="M53 553h102l367 -411v411h101v-553h-103l-367 413v-413h-100v553zM339 1q29 0 48 -20t19 -49q0 -10 -4 -26l-51 -131l-55 13l14 82q-18 7 -29 24.5t-11 38.5q0 28 20 48t49 20z" />
    <glyph glyph-name="ncommaaccent" unicode="&#x146;" horiz-adv-x="676" 
d="M53 553h102l367 -411v411h101v-553h-103l-367 413v-413h-100v553zM339 1q29 0 48 -20t19 -49q0 -10 -4 -26l-51 -131l-55 13l14 82q-18 7 -29 24.5t-11 38.5q0 28 20 48t49 20z" />
    <glyph glyph-name="Ncaron" unicode="&#x147;" horiz-adv-x="676" 
d="M53 553h102l367 -411v411h101v-553h-103l-367 413v-413h-100v553zM236 761l108 -68l109 68l40 -53l-149 -110l-150 110z" />
    <glyph glyph-name="ncaron" unicode="&#x148;" horiz-adv-x="676" 
d="M53 553h102l367 -411v411h101v-553h-103l-367 413v-413h-100v553zM230 761l108 -68l109 68l40 -53l-149 -110l-150 110z" />
    <glyph glyph-name="napostrophe" unicode="&#x149;" horiz-adv-x="788" 
d="M163 553h102l367 -411v411h101v-553h-103l-367 413v-413h-100v553zM69 710q29 0 48 -20t19 -49q0 -10 -4 -26l-51 -131l-55 13l14 82q-18 7 -29 24.5t-11 38.5q0 28 20 48t49 20z" />
    <glyph glyph-name="Omacron" unicode="&#x14c;" horiz-adv-x="701" 
d="M143 276q0 -93 58.5 -147.5t148.5 -54.5t149 54.5t59 147.5t-59 147.5t-149 54.5t-148.5 -54.5t-58.5 -147.5zM659 276q0 -129 -89 -209.5t-220 -80.5t-220 80.5t-89 209.5t89 209.5t220 80.5t220 -80.5t89 -209.5zM169 707h362v-81h-362v81z" />
    <glyph glyph-name="omacron" unicode="&#x14d;" horiz-adv-x="701" 
d="M143 276q0 -93 58.5 -147.5t148.5 -54.5t149 54.5t59 147.5t-59 147.5t-149 54.5t-148.5 -54.5t-58.5 -147.5zM659 276q0 -129 -89 -209.5t-220 -80.5t-220 80.5t-89 209.5t89 209.5t220 80.5t220 -80.5t89 -209.5zM169 707h362v-81h-362v81z" />
    <glyph glyph-name="Obreve" unicode="&#x14e;" horiz-adv-x="701" 
d="M143 276q0 -93 58.5 -147.5t148.5 -54.5t149 54.5t59 147.5t-59 147.5t-149 54.5t-148.5 -54.5t-58.5 -147.5zM659 276q0 -129 -89 -209.5t-220 -80.5t-220 80.5t-89 209.5t89 209.5t220 80.5t220 -80.5t89 -209.5zM457 739l52 -53q-68 -73 -159 -73t-160 73l52 53
q45 -46 108 -46q62 0 107 46z" />
    <glyph glyph-name="obreve" unicode="&#x14f;" horiz-adv-x="701" 
d="M143 276q0 -93 58.5 -147.5t148.5 -54.5t149 54.5t59 147.5t-59 147.5t-149 54.5t-148.5 -54.5t-58.5 -147.5zM659 276q0 -129 -89 -209.5t-220 -80.5t-220 80.5t-89 209.5t89 209.5t220 80.5t220 -80.5t89 -209.5zM457 739l52 -53q-68 -73 -159 -73t-160 73l52 53
q45 -46 108 -46q62 0 107 46z" />
    <glyph glyph-name="Ohungarumlaut" unicode="&#x150;" horiz-adv-x="701" 
d="M143 276q0 -93 58.5 -147.5t148.5 -54.5t149 54.5t59 147.5t-59 147.5t-149 54.5t-148.5 -54.5t-58.5 -147.5zM659 276q0 -129 -89 -209.5t-220 -80.5t-220 80.5t-89 209.5t89 209.5t220 80.5t220 -80.5t89 -209.5zM244 627l46 183l87 -21l-48 -182zM378 627l50 183
l86 -21l-51 -182z" />
    <glyph glyph-name="ohungarumlaut" unicode="&#x151;" horiz-adv-x="701" 
d="M143 276q0 -93 58.5 -147.5t148.5 -54.5t149 54.5t59 147.5t-59 147.5t-149 54.5t-148.5 -54.5t-58.5 -147.5zM659 276q0 -129 -89 -209.5t-220 -80.5t-220 80.5t-89 209.5t89 209.5t220 80.5t220 -80.5t89 -209.5zM239 627l46 183l87 -21l-48 -182zM373 627l50 183
l86 -21l-51 -182z" />
    <glyph glyph-name="OE" unicode="&#x152;" horiz-adv-x="1074" 
d="M547 553h465v-92h-367v-132h327v-92h-327v-144h381v-93h-479v53q-77 -67 -200 -67q-133 0 -214 75q-92 83 -92 216q0 131 92 214q81 75 214 75q124 0 200 -67v54zM143 276q0 -87 47 -140q54 -62 157 -62q102 0 156 62q46 50 46 141q0 89 -46 139q-54 62 -156 62
q-103 0 -157 -62q-47 -53 -47 -140z" />
    <glyph glyph-name="oe" unicode="&#x153;" horiz-adv-x="1074" 
d="M547 553h465v-92h-367v-132h327v-92h-327v-144h381v-93h-479v53q-77 -67 -200 -67q-133 0 -214 75q-92 83 -92 216q0 131 92 214q81 75 214 75q124 0 200 -67v54zM143 276q0 -87 47 -140q54 -62 157 -62q102 0 156 62q46 50 46 141q0 89 -46 139q-54 62 -156 62
q-103 0 -157 -62q-47 -53 -47 -140z" />
    <glyph glyph-name="Racute" unicode="&#x154;" horiz-adv-x="637" 
d="M53 553h325q97 0 161 -59.5t64 -154.5q0 -64 -31 -112.5t-84 -73.5l87 -153h-111l-70 128h-239v-128h-102v553zM155 460v-239h219q58 0 93 31.5t35 86.5q0 56 -35 88.5t-93 32.5h-219zM252 627l48 183l87 -21l-50 -182z" />
    <glyph glyph-name="racute" unicode="&#x155;" horiz-adv-x="637" 
d="M53 553h325q97 0 161 -59.5t64 -154.5q0 -64 -31 -112.5t-84 -73.5l87 -153h-111l-70 128h-239v-128h-102v553zM155 460v-239h219q58 0 93 31.5t35 86.5q0 56 -35 88.5t-93 32.5h-219zM252 627l48 183l87 -21l-50 -182z" />
    <glyph glyph-name="Rcommaaccent" unicode="&#x156;" horiz-adv-x="637" 
d="M53 553h325q97 0 161 -59.5t64 -154.5q0 -64 -31 -112.5t-84 -73.5l87 -153h-111l-70 128h-239v-128h-102v553zM155 460v-239h219q58 0 93 31.5t35 86.5q0 56 -35 88.5t-93 32.5h-219zM316 5q29 0 48 -20t19 -49q0 -10 -4 -26l-51 -131l-55 13l14 82q-18 7 -29 24.5
t-11 38.5q0 28 20 48t49 20z" />
    <glyph glyph-name="rcommaaccent" unicode="&#x157;" horiz-adv-x="637" 
d="M53 553h325q97 0 161 -59.5t64 -154.5q0 -64 -31 -112.5t-84 -73.5l87 -153h-111l-70 128h-239v-128h-102v553zM155 460v-239h219q58 0 93 31.5t35 86.5q0 56 -35 88.5t-93 32.5h-219zM307 5q29 0 48 -20t19 -49q0 -10 -4 -26l-51 -131l-55 13l14 82q-18 7 -29 24.5
t-11 38.5q0 28 20 48t49 20z" />
    <glyph glyph-name="Rcaron" unicode="&#x158;" horiz-adv-x="637" 
d="M53 553h325q97 0 161 -59.5t64 -154.5q0 -64 -31 -112.5t-84 -73.5l87 -153h-111l-70 128h-239v-128h-102v553zM155 460v-239h219q58 0 93 31.5t35 86.5q0 56 -35 88.5t-93 32.5h-219zM204 761l108 -68l109 68l40 -53l-149 -110l-150 110z" />
    <glyph glyph-name="rcaron" unicode="&#x159;" horiz-adv-x="637" 
d="M53 553h325q97 0 161 -59.5t64 -154.5q0 -64 -31 -112.5t-84 -73.5l87 -153h-111l-70 128h-239v-128h-102v553zM155 460v-239h219q58 0 93 31.5t35 86.5q0 56 -35 88.5t-93 32.5h-219zM195 761l108 -68l109 68l40 -53l-149 -110l-150 110z" />
    <glyph glyph-name="Sacute" unicode="&#x15a;" horiz-adv-x="640" 
d="M581 490l-49 -75q-94 61 -221 61q-154 0 -154 -74q0 -29 22 -41.5t65 -17.5l172 -20q184 -23 184 -161q0 -88 -75.5 -132t-205.5 -44q-163 0 -280 84l48 79q110 -74 247 -74q77 0 122.5 21.5t45.5 63.5q0 59 -86 68l-182 20q-87 10 -132 46t-45 107q0 81 71.5 123
t182.5 42q162 0 270 -76zM281 627l48 183l87 -21l-50 -182z" />
    <glyph glyph-name="sacute" unicode="&#x15b;" horiz-adv-x="640" 
d="M581 490l-49 -75q-94 61 -221 61q-154 0 -154 -74q0 -29 22 -41.5t65 -17.5l172 -20q184 -23 184 -161q0 -88 -75.5 -132t-205.5 -44q-163 0 -280 84l48 79q110 -74 247 -74q77 0 122.5 21.5t45.5 63.5q0 59 -86 68l-182 20q-87 10 -132 46t-45 107q0 81 71.5 123
t182.5 42q162 0 270 -76zM286 627l48 183l87 -21l-50 -182z" />
    <glyph glyph-name="Scircumflex" unicode="&#x15c;" horiz-adv-x="640" 
d="M581 490l-49 -75q-94 61 -221 61q-154 0 -154 -74q0 -29 22 -41.5t65 -17.5l172 -20q184 -23 184 -161q0 -88 -75.5 -132t-205.5 -44q-163 0 -280 84l48 79q110 -74 247 -74q77 0 122.5 21.5t45.5 63.5q0 59 -86 68l-182 20q-87 10 -132 46t-45 107q0 81 71.5 123
t182.5 42q162 0 270 -76zM420 601l-108 68l-109 -68l-40 53l149 110l150 -110z" />
    <glyph glyph-name="scircumflex" unicode="&#x15d;" horiz-adv-x="640" 
d="M581 490l-49 -75q-94 61 -221 61q-154 0 -154 -74q0 -29 22 -41.5t65 -17.5l172 -20q184 -23 184 -161q0 -88 -75.5 -132t-205.5 -44q-163 0 -280 84l48 79q110 -74 247 -74q77 0 122.5 21.5t45.5 63.5q0 59 -86 68l-182 20q-87 10 -132 46t-45 107q0 81 71.5 123
t182.5 42q162 0 270 -76zM428 601l-108 68l-109 -68l-40 53l149 110l150 -110z" />
    <glyph glyph-name="Scedilla" unicode="&#x15e;" horiz-adv-x="640" 
d="M581 490l-49 -75q-94 61 -221 61q-154 0 -154 -74q0 -29 22 -41.5t65 -17.5l172 -20q184 -23 184 -161q0 -85 -71 -129t-195 -47v-28q43 -3 66.5 -26t23.5 -62q0 -48 -38.5 -73t-96.5 -25q-43 0 -79 18l19 54q29 -12 62 -12q59 0 59 38q0 31 -41 31h-45l-6 6l8 81
q-129 11 -227 82l48 79q108 -74 247 -74q77 0 122.5 21.5t45.5 63.5q0 59 -86 68l-182 20q-87 10 -132 46t-45 107q0 81 71.5 123t182.5 42q162 0 270 -76z" />
    <glyph glyph-name="scedilla" unicode="&#x15f;" horiz-adv-x="640" 
d="M581 490l-49 -75q-94 61 -221 61q-154 0 -154 -74q0 -29 22 -41.5t65 -17.5l172 -20q184 -23 184 -161q0 -85 -71 -129t-195 -47v-28q43 -3 66.5 -26t23.5 -62q0 -48 -38.5 -73t-96.5 -25q-43 0 -79 18l19 54q29 -12 62 -12q59 0 59 38q0 31 -41 31h-45l-6 6l8 81
q-129 11 -227 82l48 79q108 -74 247 -74q77 0 122.5 21.5t45.5 63.5q0 59 -86 68l-182 20q-87 10 -132 46t-45 107q0 81 71.5 123t182.5 42q162 0 270 -76z" />
    <glyph glyph-name="Scaron" unicode="&#x160;" horiz-adv-x="640" 
d="M581 490l-49 -75q-94 61 -221 61q-154 0 -154 -74q0 -29 22 -41.5t65 -17.5l172 -20q184 -23 184 -161q0 -88 -75.5 -132t-205.5 -44q-163 0 -280 84l48 79q110 -74 247 -74q77 0 122.5 21.5t45.5 63.5q0 59 -86 68l-182 20q-87 10 -132 46t-45 107q0 81 71.5 123
t182.5 42q162 0 270 -76zM215 761l108 -68l109 68l40 -53l-149 -110l-150 110z" />
    <glyph glyph-name="scaron" unicode="&#x161;" horiz-adv-x="640" 
d="M581 490l-49 -75q-94 61 -221 61q-154 0 -154 -74q0 -29 22 -41.5t65 -17.5l172 -20q184 -23 184 -161q0 -88 -75.5 -132t-205.5 -44q-163 0 -280 84l48 79q110 -74 247 -74q77 0 122.5 21.5t45.5 63.5q0 59 -86 68l-182 20q-87 10 -132 46t-45 107q0 81 71.5 123
t182.5 42q162 0 270 -76zM217 761l108 -68l109 68l40 -53l-149 -110l-150 110z" />
    <glyph glyph-name="Tcommaaccent" unicode="&#x162;" horiz-adv-x="632" 
d="M30 553h572v-92h-235v-461h-102v461h-235v92zM315 -37q29 0 48 -20t19 -49q0 -10 -4 -26l-51 -131l-55 13l14 82q-18 7 -29 24.5t-11 38.5q0 28 20 48t49 20z" />
    <glyph glyph-name="tcommaaccent" unicode="&#x163;" horiz-adv-x="632" 
d="M30 553h572v-92h-235v-461h-102v461h-235v92zM315 -37q29 0 48 -20t19 -49q0 -10 -4 -26l-51 -131l-55 13l14 82q-18 7 -29 24.5t-11 38.5q0 28 20 48t49 20z" />
    <glyph glyph-name="Tcaron" unicode="&#x164;" horiz-adv-x="632" 
d="M30 553h572v-92h-235v-461h-102v461h-235v92zM206 761l108 -68l109 68l40 -53l-149 -110l-150 110z" />
    <glyph glyph-name="tcaron" unicode="&#x165;" horiz-adv-x="632" 
d="M30 553h572v-92h-235v-461h-102v461h-235v92zM208 761l108 -68l109 68l40 -53l-149 -110l-150 110z" />
    <glyph glyph-name="Tbar" unicode="&#x166;" horiz-adv-x="632" 
d="M30 553h572v-92h-235v-137h117v-82h-117v-242h-102v242h-117v82h117v137h-235v92z" />
    <glyph glyph-name="tbar" unicode="&#x167;" horiz-adv-x="632" 
d="M30 553h572v-92h-235v-137h117v-82h-117v-242h-102v242h-117v82h117v137h-235v92z" />
    <glyph glyph-name="Utilde" unicode="&#x168;" 
d="M48 553h102v-283q0 -92 44.5 -143t134.5 -51t135 51.5t45 142.5v283h101v-282q0 -136 -75 -210.5t-206 -74.5t-206 74.5t-75 210.5v282zM472 727l40 -51q-40 -62 -114 -62q-31 0 -74 19t-67 19q-47 0 -77 -38l-48 48q47 72 128 72q38 0 78 -18t61 -18q45 0 73 29z" />
    <glyph glyph-name="utilde" unicode="&#x169;" 
d="M48 553h102v-283q0 -92 44.5 -143t134.5 -51t135 51.5t45 142.5v283h101v-282q0 -136 -75 -210.5t-206 -74.5t-206 74.5t-75 210.5v282zM479 727l40 -51q-40 -62 -114 -62q-31 0 -74 19t-67 19q-47 0 -77 -38l-48 48q47 72 128 72q38 0 78 -18t61 -18q45 0 73 29z" />
    <glyph glyph-name="Umacron" unicode="&#x16a;" 
d="M48 553h102v-283q0 -92 44.5 -143t134.5 -51t135 51.5t45 142.5v283h101v-282q0 -136 -75 -210.5t-206 -74.5t-206 74.5t-75 210.5v282zM148 707h362v-81h-362v81z" />
    <glyph glyph-name="umacron" unicode="&#x16b;" 
d="M48 553h102v-283q0 -92 44.5 -143t134.5 -51t135 51.5t45 142.5v283h101v-282q0 -136 -75 -210.5t-206 -74.5t-206 74.5t-75 210.5v282zM148 707h362v-81h-362v81z" />
    <glyph glyph-name="Ubreve" unicode="&#x16c;" 
d="M48 553h102v-283q0 -92 44.5 -143t134.5 -51t135 51.5t45 142.5v283h101v-282q0 -136 -75 -210.5t-206 -74.5t-206 74.5t-75 210.5v282zM436 739l52 -53q-68 -73 -159 -73t-160 73l52 53q45 -46 108 -46q62 0 107 46z" />
    <glyph glyph-name="ubreve" unicode="&#x16d;" 
d="M48 553h102v-283q0 -92 44.5 -143t134.5 -51t135 51.5t45 142.5v283h101v-282q0 -136 -75 -210.5t-206 -74.5t-206 74.5t-75 210.5v282zM436 739l52 -53q-68 -73 -159 -73t-160 73l52 53q45 -46 108 -46q62 0 107 46z" />
    <glyph glyph-name="Uring" unicode="&#x16e;" 
d="M48 553h102v-283q0 -92 44.5 -143t134.5 -51t135 51.5t45 142.5v283h101v-282q0 -136 -75 -210.5t-206 -74.5t-206 74.5t-75 210.5v282zM463 723q0 -56 -38.5 -90.5t-92.5 -34.5t-92.5 34.5t-38.5 90.5q0 55 38.5 89.5t92.5 34.5t92.5 -34.5t38.5 -89.5zM274 723
q0 -28 16 -43t42 -15t42 15t16 43q0 27 -16 42t-42 15t-42 -15t-16 -42z" />
    <glyph glyph-name="uring" unicode="&#x16f;" 
d="M48 553h102v-283q0 -92 44.5 -143t134.5 -51t135 51.5t45 142.5v283h101v-282q0 -136 -75 -210.5t-206 -74.5t-206 74.5t-75 210.5v282zM460 723q0 -56 -38.5 -90.5t-92.5 -34.5t-92.5 34.5t-38.5 90.5q0 55 38.5 89.5t92.5 34.5t92.5 -34.5t38.5 -89.5zM271 723
q0 -28 16 -43t42 -15t42 15t16 43q0 27 -16 42t-42 15t-42 -15t-16 -42z" />
    <glyph glyph-name="Uhungarumlaut" unicode="&#x170;" 
d="M48 553h102v-283q0 -92 44.5 -143t134.5 -51t135 51.5t45 142.5v283h101v-282q0 -136 -75 -210.5t-206 -74.5t-206 74.5t-75 210.5v282zM202 627l46 183l87 -21l-48 -182zM336 627l50 183l86 -21l-51 -182z" />
    <glyph glyph-name="uhungarumlaut" unicode="&#x171;" 
d="M48 553h102v-283q0 -92 44.5 -143t134.5 -51t135 51.5t45 142.5v283h101v-282q0 -136 -75 -210.5t-206 -74.5t-206 74.5t-75 210.5v282zM216 627l46 183l87 -21l-48 -182zM350 627l50 183l86 -21l-51 -182z" />
    <glyph glyph-name="Uogonek" unicode="&#x172;" 
d="M48 553h102v-283q0 -92 44.5 -143t134.5 -51t135 51.5t45 142.5v283h101v-282q0 -126 -65 -199t-179 -84q-15 -27 -15 -60q0 -52 44 -90l-48 -39q-78 35 -78 109q0 49 27 80q-116 9 -182 82.5t-66 200.5v282z" />
    <glyph glyph-name="uogonek" unicode="&#x173;" 
d="M48 553h102v-283q0 -92 44.5 -143t134.5 -51t135 51.5t45 142.5v283h101v-282q0 -126 -65 -199t-179 -84q-15 -27 -15 -60q0 -52 44 -90l-48 -39q-78 35 -78 109q0 49 27 80q-116 9 -182 82.5t-66 200.5v282z" />
    <glyph glyph-name="Wcircumflex" unicode="&#x174;" horiz-adv-x="1011" 
d="M30 553h108l151 -464h17l131 464h134l135 -464h17l153 464h106l-197 -553h-152l-124 443h-12l-124 -443h-150zM612 601l-108 68l-109 -68l-40 53l149 110l150 -110z" />
    <glyph glyph-name="wcircumflex" unicode="&#x175;" horiz-adv-x="1011" 
d="M30 553h108l151 -464h17l131 464h134l135 -464h17l153 464h106l-197 -553h-152l-124 443h-12l-124 -443h-150zM612 601l-108 68l-109 -68l-40 53l149 110l150 -110z" />
    <glyph glyph-name="Ycircumflex" unicode="&#x176;" horiz-adv-x="686" 
d="M30 553h116l194 -314h12l188 314h116l-263 -415v-138h-100v138zM455 601l-108 68l-109 -68l-40 53l149 110l150 -110z" />
    <glyph glyph-name="ycircumflex" unicode="&#x177;" horiz-adv-x="686" 
d="M30 553h116l194 -314h12l188 314h116l-263 -415v-138h-100v138zM450 601l-108 68l-109 -68l-40 53l149 110l150 -110z" />
    <glyph glyph-name="Ydieresis" unicode="&#x178;" horiz-adv-x="686" 
d="M30 553h116l194 -314h12l188 314h116l-263 -415v-138h-100v138zM223 746q27 0 46.5 -19t19.5 -45q0 -27 -19 -46.5t-47 -19.5q-27 0 -46 19.5t-19 46.5q0 26 19 45t46 19zM460 746q28 0 47.5 -19t19.5 -45q0 -27 -19.5 -46.5t-47.5 -19.5q-26 0 -45.5 19.5t-19.5 46.5
q0 26 19.5 45t45.5 19z" />
    <glyph glyph-name="Zacute" unicode="&#x179;" horiz-adv-x="608" 
d="M51 553h507v-89l-388 -377l184 4h214v-91h-528v91l394 374l-172 -3h-211v91zM246 627l48 183l87 -21l-50 -182z" />
    <glyph glyph-name="zacute" unicode="&#x17a;" horiz-adv-x="608" 
d="M51 553h507v-89l-388 -377l184 4h214v-91h-528v91l394 374l-172 -3h-211v91zM246 627l48 183l87 -21l-50 -182z" />
    <glyph glyph-name="Zdotaccent" unicode="&#x17b;" horiz-adv-x="608" 
d="M51 553h507v-89l-388 -377l184 4h214v-91h-528v91l394 374l-172 -3h-211v91zM303 746q28 0 48 -19t20 -46q0 -28 -20 -48t-48 -20t-47.5 20t-19.5 48q0 27 19.5 46t47.5 19z" />
    <glyph glyph-name="zdotaccent" unicode="&#x17c;" horiz-adv-x="608" 
d="M51 553h507v-89l-388 -377l184 4h214v-91h-528v91l394 374l-172 -3h-211v91zM303 746q28 0 48 -19t20 -46q0 -28 -20 -48t-48 -20t-47.5 20t-19.5 48q0 27 19.5 46t47.5 19z" />
    <glyph glyph-name="Zcaron" unicode="&#x17d;" horiz-adv-x="608" 
d="M51 553h507v-89l-388 -377l184 4h214v-91h-528v91l394 374l-172 -3h-211v91zM196 761l108 -68l109 68l40 -53l-149 -110l-150 110z" />
    <glyph glyph-name="zcaron" unicode="&#x17e;" horiz-adv-x="608" 
d="M51 553h507v-89l-388 -377l184 4h214v-91h-528v91l394 374l-172 -3h-211v91zM196 761l108 -68l109 68l40 -53l-149 -110l-150 110z" />
    <glyph glyph-name="AEacute" unicode="&#x1fc;" horiz-adv-x="1095" 
d="M383 553h649v-91h-401v-133h361v-90h-361v-146h421v-93h-522v100h-331l-71 -100h-119zM433 462l-169 -268h266v268h-97zM538 627l48 183l87 -21l-50 -182z" />
    <glyph glyph-name="aeacute" unicode="&#x1fd;" horiz-adv-x="1095" 
d="M383 553h649v-91h-401v-133h361v-90h-361v-146h421v-93h-522v100h-331l-71 -100h-119zM433 462l-169 -268h266v268h-97zM531 627l48 183l87 -21l-50 -182z" />
    <glyph glyph-name="Oslashacute" unicode="&#x1fe;" horiz-adv-x="701" 
d="M483 590l80 -42l-23 -39q119 -84 119 -232q0 -129 -89 -209.5t-220 -80.5q-50 0 -105 15l-26 -44l-77 42l23 40q-58 39 -91 100t-33 137q0 128 89 208.5t220 80.5q56 0 109 -17zM212 122l200 347q-28 9 -62 9q-90 0 -148.5 -54t-58.5 -147q0 -100 69 -155zM493 427
l-201 -345q27 -6 58 -6q90 0 149 54t59 147q0 95 -65 150zM318 627l48 183l87 -21l-50 -182z" />
    <glyph glyph-name="oslashacute" unicode="&#x1ff;" horiz-adv-x="690" 
d="M483 590l80 -42l-23 -39q119 -84 119 -232q0 -129 -89 -209.5t-220 -80.5q-50 0 -105 15l-26 -44l-77 42l23 40q-58 39 -91 100t-33 137q0 128 89 208.5t220 80.5q56 0 109 -17zM212 122l200 347q-28 9 -62 9q-90 0 -148.5 -54t-58.5 -147q0 -100 69 -155zM493 427
l-201 -345q27 -6 58 -6q90 0 149 54t59 147q0 95 -65 150zM325 627l48 183l87 -21l-50 -182z" />
    <glyph glyph-name="uni0200" unicode="&#x200;" horiz-adv-x="735" 
d="M337 462l-119 -285h298l-116 285h-63zM275 553h192l235 -553h-107l-38 87h-377l-38 -87h-109zM426 810l46 -183l-84 -20l-48 182zM288 810l50 -183l-85 -20l-51 182z" />
    <glyph glyph-name="uni0201" unicode="&#x201;" horiz-adv-x="735" 
d="M337 462l-119 -285h298l-116 285h-63zM275 553h192l235 -553h-107l-38 87h-377l-38 -87h-109zM427 810l46 -183l-84 -20l-48 182zM289 810l50 -183l-85 -20l-51 182z" />
    <glyph glyph-name="uni0202" unicode="&#x202;" horiz-adv-x="735" 
d="M337 462l-119 -285h298l-116 285h-63zM275 553h192l235 -553h-107l-38 87h-377l-38 -87h-109zM474 588l-108 68l-109 -68l-40 53l149 110l150 -110z" />
    <glyph glyph-name="uni0203" unicode="&#x203;" horiz-adv-x="735" 
d="M337 462l-119 -285h298l-116 285h-63zM275 553h192l235 -553h-107l-38 87h-377l-38 -87h-109zM476 601l-108 68l-109 -68l-40 53l149 110l150 -110z" />
    <glyph glyph-name="uni0204" unicode="&#x204;" horiz-adv-x="608" 
d="M53 553h495v-92h-393v-133h354v-91h-354v-144h408v-93h-510v553zM377 810l46 -183l-84 -20l-48 182zM239 810l50 -183l-85 -20l-51 182z" />
    <glyph glyph-name="uni0205" unicode="&#x205;" horiz-adv-x="608" 
d="M53 553h495v-92h-393v-133h354v-91h-354v-144h408v-93h-510v553zM373 810l46 -183l-84 -20l-48 182zM235 810l50 -183l-85 -20l-51 182z" />
    <glyph glyph-name="uni0206" unicode="&#x206;" horiz-adv-x="608" 
d="M53 553h495v-92h-393v-133h354v-91h-354v-144h408v-93h-510v553zM411 595l-108 68l-109 -68l-40 53l149 110l150 -110z" />
    <glyph glyph-name="uni0207" unicode="&#x207;" horiz-adv-x="608" 
d="M53 553h495v-92h-393v-133h354v-91h-354v-144h408v-93h-510v553zM411 595l-108 68l-109 -68l-40 53l149 110l150 -110z" />
    <glyph glyph-name="uni0208" unicode="&#x208;" horiz-adv-x="208" 
d="M53 553h102v-553h-102v553zM176 810l46 -183l-84 -20l-48 182zM38 810l50 -183l-85 -20l-51 182z" />
    <glyph glyph-name="uni0209" unicode="&#x209;" horiz-adv-x="208" 
d="M53 553h102v-553h-102v553zM173 810l46 -183l-84 -20l-48 182zM35 810l50 -183l-85 -20l-51 182z" />
    <glyph glyph-name="uni020A" unicode="&#x20a;" horiz-adv-x="208" 
d="M53 553h102v-553h-102v553zM213 601l-108 68l-109 -68l-40 53l149 110l150 -110z" />
    <glyph glyph-name="uni020B" unicode="&#x20b;" horiz-adv-x="208" 
d="M53 553h102v-553h-102v553zM212 603l-108 68l-109 -68l-40 53l149 110l150 -110z" />
    <glyph glyph-name="uni020C" unicode="&#x20c;" horiz-adv-x="701" 
d="M143 276q0 -93 58.5 -147.5t148.5 -54.5t149 54.5t59 147.5t-59 147.5t-149 54.5t-148.5 -54.5t-58.5 -147.5zM659 276q0 -129 -89 -209.5t-220 -80.5t-220 80.5t-89 209.5t89 209.5t220 80.5t220 -80.5t89 -209.5zM404 810l46 -183l-84 -20l-48 182zM266 810l50 -183
l-85 -20l-51 182z" />
    <glyph glyph-name="uni020D" unicode="&#x20d;" horiz-adv-x="701" 
d="M143 276q0 -93 58.5 -147.5t148.5 -54.5t149 54.5t59 147.5t-59 147.5t-149 54.5t-148.5 -54.5t-58.5 -147.5zM659 276q0 -129 -89 -209.5t-220 -80.5t-220 80.5t-89 209.5t89 209.5t220 80.5t220 -80.5t89 -209.5zM409 810l46 -183l-84 -20l-48 182zM271 810l50 -183
l-85 -20l-51 182z" />
    <glyph glyph-name="uni020E" unicode="&#x20e;" horiz-adv-x="701" 
d="M143 276q0 -93 58.5 -147.5t148.5 -54.5t149 54.5t59 147.5t-59 147.5t-149 54.5t-148.5 -54.5t-58.5 -147.5zM659 276q0 -129 -89 -209.5t-220 -80.5t-220 80.5t-89 209.5t89 209.5t220 80.5t220 -80.5t89 -209.5zM457 601l-108 68l-109 -68l-40 53l149 110l150 -110z
" />
    <glyph glyph-name="uni020F" unicode="&#x20f;" horiz-adv-x="701" 
d="M143 276q0 -93 58.5 -147.5t148.5 -54.5t149 54.5t59 147.5t-59 147.5t-149 54.5t-148.5 -54.5t-58.5 -147.5zM659 276q0 -129 -89 -209.5t-220 -80.5t-220 80.5t-89 209.5t89 209.5t220 80.5t220 -80.5t89 -209.5zM457 601l-108 68l-109 -68l-40 53l149 110l150 -110z
" />
    <glyph glyph-name="uni0210" unicode="&#x210;" horiz-adv-x="637" 
d="M53 553h325q97 0 161 -59.5t64 -154.5q0 -64 -31 -112.5t-84 -73.5l87 -153h-111l-70 128h-239v-128h-102v553zM155 460v-239h219q58 0 93 31.5t35 86.5q0 56 -35 88.5t-93 32.5h-219zM367 810l46 -183l-84 -20l-48 182zM229 810l50 -183l-85 -20l-51 182z" />
    <glyph glyph-name="uni0211" unicode="&#x211;" horiz-adv-x="637" 
d="M53 553h325q97 0 161 -59.5t64 -154.5q0 -64 -31 -112.5t-84 -73.5l87 -153h-111l-70 128h-239v-128h-102v553zM155 460v-239h219q58 0 93 31.5t35 86.5q0 56 -35 88.5t-93 32.5h-219zM361 810l46 -183l-84 -20l-48 182zM223 810l50 -183l-85 -20l-51 182z" />
    <glyph glyph-name="uni0212" unicode="&#x212;" horiz-adv-x="637" 
d="M53 553h325q97 0 161 -59.5t64 -154.5q0 -64 -31 -112.5t-84 -73.5l87 -153h-111l-70 128h-239v-128h-102v553zM155 460v-239h219q58 0 93 31.5t35 86.5q0 56 -35 88.5t-93 32.5h-219zM413 601l-108 68l-109 -68l-40 53l149 110l150 -110z" />
    <glyph glyph-name="uni0213" unicode="&#x213;" horiz-adv-x="637" 
d="M53 553h325q97 0 161 -59.5t64 -154.5q0 -64 -31 -112.5t-84 -73.5l87 -153h-111l-70 128h-239v-128h-102v553zM155 460v-239h219q58 0 93 31.5t35 86.5q0 56 -35 88.5t-93 32.5h-219zM407 601l-108 68l-109 -68l-40 53l149 110l150 -110z" />
    <glyph glyph-name="uni0214" unicode="&#x214;" 
d="M48 553h102v-283q0 -92 44.5 -143t134.5 -51t135 51.5t45 142.5v283h101v-282q0 -136 -75 -210.5t-206 -74.5t-206 74.5t-75 210.5v282zM393 810l46 -183l-84 -20l-48 182zM255 810l50 -183l-85 -20l-51 182z" />
    <glyph glyph-name="uni0215" unicode="&#x215;" 
d="M48 553h102v-283q0 -92 44.5 -143t134.5 -51t135 51.5t45 142.5v283h101v-282q0 -136 -75 -210.5t-206 -74.5t-206 74.5t-75 210.5v282zM393 810l46 -183l-84 -20l-48 182zM255 810l50 -183l-85 -20l-51 182z" />
    <glyph glyph-name="uni0216" unicode="&#x216;" 
d="M48 553h102v-283q0 -92 44.5 -143t134.5 -51t135 51.5t45 142.5v283h101v-282q0 -136 -75 -210.5t-206 -74.5t-206 74.5t-75 210.5v282zM437 601l-108 68l-109 -68l-40 53l149 110l150 -110z" />
    <glyph glyph-name="uni0217" unicode="&#x217;" 
d="M48 553h102v-283q0 -92 44.5 -143t134.5 -51t135 51.5t45 142.5v283h101v-282q0 -136 -75 -210.5t-206 -74.5t-206 74.5t-75 210.5v282zM437 601l-108 68l-109 -68l-40 53l149 110l150 -110z" />
    <glyph glyph-name="Scommaaccent" unicode="&#x218;" horiz-adv-x="640" 
d="M581 490l-49 -75q-94 61 -221 61q-154 0 -154 -74q0 -29 22 -41.5t65 -17.5l172 -20q184 -23 184 -161q0 -88 -75.5 -132t-205.5 -44q-163 0 -280 84l48 79q110 -74 247 -74q77 0 122.5 21.5t45.5 63.5q0 59 -86 68l-182 20q-87 10 -132 46t-45 107q0 81 71.5 123
t182.5 42q162 0 270 -76zM314 -37q29 0 48 -20t19 -49q0 -10 -4 -26l-51 -131l-55 13l14 82q-18 7 -29 24.5t-11 38.5q0 28 20 48t49 20z" />
    <glyph glyph-name="scommaaccent" unicode="&#x219;" horiz-adv-x="640" 
d="M581 490l-49 -75q-94 61 -221 61q-154 0 -154 -74q0 -29 22 -41.5t65 -17.5l172 -20q184 -23 184 -161q0 -88 -75.5 -132t-205.5 -44q-163 0 -280 84l48 79q110 -74 247 -74q77 0 122.5 21.5t45.5 63.5q0 59 -86 68l-182 20q-87 10 -132 46t-45 107q0 81 71.5 123
t182.5 42q162 0 270 -76zM314 -37q29 0 48 -20t19 -49q0 -10 -4 -26l-51 -131l-55 13l14 82q-18 7 -29 24.5t-11 38.5q0 28 20 48t49 20z" />
    <glyph glyph-name="uni021A" unicode="&#x21a;" horiz-adv-x="632" 
d="M30 553h572v-92h-235v-461h-102v461h-235v92zM317 -37q29 0 48 -20t19 -49q0 -10 -4 -26l-51 -131l-55 13l14 82q-18 7 -29 24.5t-11 38.5q0 28 20 48t49 20z" />
    <glyph glyph-name="uni021B" unicode="&#x21b;" horiz-adv-x="632" 
d="M30 553h572v-92h-235v-461h-102v461h-235v92zM317 -37q29 0 48 -20t19 -49q0 -10 -4 -26l-51 -131l-55 13l14 82q-18 7 -29 24.5t-11 38.5q0 28 20 48t49 20z" />
    <glyph glyph-name="dotlessj" unicode="&#x237;" horiz-adv-x="597" 
d="M444 553h99v-314q0 -113 -66 -183t-200 -70q-85 0 -150 37.5t-100 107.5l87 45q23 -47 67 -73t95 -26q92 0 130 44t38 128v304z" />
    <glyph glyph-name="circumflex" unicode="&#x2c6;" horiz-adv-x="352" 
d="M284 601l-108 68l-109 -68l-40 53l149 110l150 -110z" />
    <glyph glyph-name="caron" unicode="&#x2c7;" horiz-adv-x="352" 
d="M69 761l108 -68l109 68l40 -53l-149 -110l-150 110z" />
    <glyph glyph-name="breve" unicode="&#x2d8;" horiz-adv-x="380" 
d="M296 739l52 -53q-68 -73 -159 -73t-160 73l52 53q45 -46 108 -46q62 0 107 46z" />
    <glyph glyph-name="dotaccent" unicode="&#x2d9;" horiz-adv-x="227" 
d="M114 746q28 0 48 -19t20 -46q0 -28 -20 -48t-48 -20t-47.5 20t-19.5 48q0 27 19.5 46t47.5 19z" />
    <glyph glyph-name="ring" unicode="&#x2da;" horiz-adv-x="335" 
d="M298 723q0 -56 -38.5 -90.5t-92.5 -34.5t-92.5 34.5t-38.5 90.5q0 55 38.5 89.5t92.5 34.5t92.5 -34.5t38.5 -89.5zM109 723q0 -28 16 -43t42 -15t42 15t16 43q0 27 -16 42t-42 15t-42 -15t-16 -42z" />
    <glyph glyph-name="ogonek" unicode="&#x2db;" horiz-adv-x="380" 
d="M165 7l62 -3q-26 -36 -26 -75q0 -52 44 -90l-48 -39q-78 35 -78 109q0 59 46 98z" />
    <glyph glyph-name="tilde" unicode="&#x2dc;" horiz-adv-x="417" 
d="M355 727l40 -51q-40 -62 -114 -62q-31 0 -74 19t-67 19q-47 0 -77 -38l-48 48q47 72 128 72q38 0 78 -18t61 -18q45 0 73 29z" />
    <glyph glyph-name="hungarumlaut" unicode="&#x2dd;" horiz-adv-x="333" 
d="M28 627l46 183l87 -21l-48 -182zM162 627l50 183l86 -21l-51 -182z" />
    <glyph glyph-name="uni0400" unicode="&#x400;" horiz-adv-x="608" 
d="M53 553h495v-92h-393v-133h354v-91h-354v-144h408v-93h-510v553zM318 810l48 -183l-85 -20l-50 182z" />
    <glyph glyph-name="afii10023" unicode="&#x401;" horiz-adv-x="608" 
d="M53 553h495v-92h-393v-133h354v-91h-354v-144h408v-93h-510v553zM184 746q27 0 46.5 -19t19.5 -45q0 -27 -19 -46.5t-47 -19.5q-27 0 -46 19.5t-19 46.5q0 26 19 45t46 19zM421 746q28 0 47.5 -19t19.5 -45q0 -27 -19.5 -46.5t-47.5 -19.5q-26 0 -45.5 19.5t-19.5 46.5
q0 26 19.5 45t45.5 19z" />
    <glyph glyph-name="afii10051" unicode="&#x402;" horiz-adv-x="777" 
d="M29 553h561v-90h-239v-88h136q128 0 192 -67.5t64 -187.5q0 -75 -32.5 -154t-88.5 -135l-71 59q90 105 90 226q0 96 -39.5 132.5t-141.5 36.5h-109v-285h-101v463h-221v90z" />
    <glyph glyph-name="afii10052" unicode="&#x403;" horiz-adv-x="586" 
d="M53 553h504v-92h-402v-461h-102v553zM272 627l48 183l87 -21l-50 -182z" />
    <glyph glyph-name="afii10053" unicode="&#x404;" horiz-adv-x="661" 
d="M415 326v-88h-273q11 -73 65.5 -116.5t136.5 -43.5q126 0 197 94l80 -47q-91 -139 -275 -139q-135 0 -221.5 79t-86.5 211t86.5 211t219.5 79q187 0 275 -139l-78 -45q-69 92 -197 92q-80 0 -133 -39.5t-66 -108.5h270z" />
    <glyph glyph-name="afii10054" unicode="&#x405;" horiz-adv-x="640" 
d="M581 490l-49 -75q-94 61 -221 61q-154 0 -154 -74q0 -29 22 -41.5t65 -17.5l172 -20q184 -23 184 -161q0 -88 -75.5 -132t-205.5 -44q-163 0 -280 84l48 79q110 -74 247 -74q77 0 122.5 21.5t45.5 63.5q0 59 -86 68l-182 20q-87 10 -132 46t-45 107q0 81 71.5 123
t182.5 42q162 0 270 -76z" />
    <glyph glyph-name="afii10055" unicode="&#x406;" horiz-adv-x="208" 
d="M53 553h102v-553h-102v553z" />
    <glyph glyph-name="afii10056" unicode="&#x407;" horiz-adv-x="208" 
d="M53 553h102v-553h-102v553zM-15 746q27 0 46.5 -19t19.5 -45q0 -27 -19 -46.5t-47 -19.5q-27 0 -46 19.5t-19 46.5q0 26 19 45t46 19zM222 746q28 0 47.5 -19t19.5 -45q0 -27 -19.5 -46.5t-47.5 -19.5q-26 0 -45.5 19.5t-19.5 46.5q0 26 19.5 45t45.5 19z" />
    <glyph glyph-name="afii10057" unicode="&#x408;" horiz-adv-x="597" 
d="M444 553h99v-314q0 -113 -66 -183t-200 -70q-85 0 -150 37.5t-100 107.5l87 45q23 -47 67 -73t95 -26q92 0 130 44t38 128v304z" />
    <glyph glyph-name="afii10058" unicode="&#x409;" horiz-adv-x="1058" 
d="M211 553h415v-133h176q98 0 161 -56.5t63 -151.5t-63.5 -153.5t-160.5 -58.5h-278v461h-228l-61 -324q-25 -137 -164 -137h-49v95h43q60 0 71 55zM626 329v-236h169q62 0 95.5 30.5t33.5 88.5t-33.5 87.5t-95.5 29.5h-169z" />
    <glyph glyph-name="afii10059" unicode="&#x40a;" horiz-adv-x="1020" 
d="M53 553h102v-221h328v221h102v-133h176q97 0 160.5 -56.5t63.5 -151.5t-63.5 -153.5t-160.5 -58.5h-278v241h-328v-241h-102v553zM585 329v-236h169q62 0 95.5 30.5t33.5 88.5t-33.5 87.5t-95.5 29.5h-169z" />
    <glyph glyph-name="afii10060" unicode="&#x40b;" horiz-adv-x="779" 
d="M29 553h561v-90h-239v-88h136q128 0 192 -67.5t64 -187.5v-120h-102v120q0 93 -39.5 129t-139.5 36h-111v-285h-101v463h-221v90z" />
    <glyph glyph-name="afii10061" unicode="&#x40c;" horiz-adv-x="647" 
d="M53 553h101v-214h193l146 214h117l-176 -256l190 -297h-120l-154 247h-196v-247h-101v553zM268 624l48 183l87 -21l-50 -182z" />
    <glyph glyph-name="uni040D" unicode="&#x40d;" horiz-adv-x="677" 
d="M53 553h101v-418l369 418h101v-553h-101v416l-368 -416h-102v553zM327 810l48 -183l-85 -20l-50 182z" />
    <glyph glyph-name="afii10062" unicode="&#x40e;" horiz-adv-x="658" 
d="M24 553h105l84 -239q14 -40 59 -40h166l92 279h102l-146 -441q-17 -50 -58.5 -81t-94.5 -31h-149v87h143q51 0 67 44l17 52h-145q-113 0 -152 111zM439 736l52 -53q-68 -73 -159 -73t-160 73l52 53q45 -46 108 -46q62 0 107 46z" />
    <glyph glyph-name="afii10145" unicode="&#x40f;" horiz-adv-x="647" 
d="M53 553h101v-462h338v462h101v-553h-214l-9 -114h-85l-9 114h-223v553z" />
    <glyph glyph-name="afii10017" unicode="&#x410;" horiz-adv-x="735" 
d="M337 462l-119 -285h298l-116 285h-63zM275 553h192l235 -553h-107l-38 87h-377l-38 -87h-109z" />
    <glyph glyph-name="afii10018" unicode="&#x411;" horiz-adv-x="627" 
d="M53 553h472v-92h-371v-99h250q83 0 137 -50t54 -128q0 -77 -54.5 -130.5t-136.5 -53.5h-351v553zM154 272v-180h241q51 0 75 25t24 67q0 40 -24.5 64t-75.5 24h-240z" />
    <glyph glyph-name="afii10019" unicode="&#x412;" horiz-adv-x="648" 
d="M53 553h353q76 0 122.5 -39t46.5 -104q0 -69 -47 -101q86 -38 86 -139q0 -71 -51.5 -120.5t-131.5 -49.5h-378v553zM155 461v-128h260q28 0 44.5 18.5t16.5 44.5q0 65 -76 65h-245zM155 244v-152h272q42 0 65 21.5t23 55.5q0 35 -21.5 55t-56.5 20h-282z" />
    <glyph glyph-name="afii10020" unicode="&#x413;" horiz-adv-x="586" 
d="M53 553h504v-92h-402v-461h-102v553z" />
    <glyph glyph-name="afii10021" unicode="&#x414;" horiz-adv-x="730" 
d="M199 553h431v-461h67v-203h-87l-9 111h-472l-9 -111h-87v203h72zM281 464l-69 -372h316v372h-247z" />
    <glyph glyph-name="afii10022" unicode="&#x415;" horiz-adv-x="608" 
d="M53 553h495v-92h-393v-133h354v-91h-354v-144h408v-93h-510v553z" />
    <glyph glyph-name="afii10024" unicode="&#x416;" horiz-adv-x="935" 
d="M42 553h115l129 -218h131v218h101v-218h131l129 218h115l-156 -257l174 -296h-117l-141 245h-135v-245h-101v245h-135l-141 -245h-118l175 296z" />
    <glyph glyph-name="afii10025" unicode="&#x417;" horiz-adv-x="658" 
d="M207 341h213q66 0 66 56q0 79 -165 79q-71 0 -120 -13t-102 -46l-43 75q116 74 264 74q130 0 199 -43q68 -42 68 -121q0 -63 -50 -93q87 -34 87 -133q0 -80 -73 -134q-75 -56 -233 -56q-165 0 -287 79l47 77q111 -66 246 -66q198 0 198 103q0 36 -23 54t-76 18h-216v90z
" />
    <glyph glyph-name="afii10026" unicode="&#x418;" horiz-adv-x="677" 
d="M53 553h101v-418l369 418h101v-553h-101v416l-368 -416h-102v553z" />
    <glyph glyph-name="afii10027" unicode="&#x419;" horiz-adv-x="677" 
d="M53 553h101v-418l369 418h101v-553h-101v416l-368 -416h-102v553zM445 714l52 -53q-68 -73 -159 -73t-160 73l52 53q45 -46 108 -46q62 0 107 46z" />
    <glyph glyph-name="afii10028" unicode="&#x41a;" horiz-adv-x="647" 
d="M53 553h101v-214h193l146 214h117l-176 -256l190 -297h-120l-154 247h-196v-247h-101v553z" />
    <glyph glyph-name="afii10029" unicode="&#x41b;" horiz-adv-x="692" 
d="M206 553h433v-553h-102v461h-247l-61 -324q-25 -137 -163 -137h-56v95h49q60 0 71 55z" />
    <glyph glyph-name="afii10030" unicode="&#x41c;" horiz-adv-x="836" 
d="M53 553h148l216 -435h5l217 435h144v-553h-101v427h-10l-210 -427h-91l-209 427h-11v-427h-98v553z" />
    <glyph glyph-name="afii10031" unicode="&#x41d;" horiz-adv-x="665" 
d="M53 553h102v-221h355v221h101v-553h-101v241h-355v-241h-102v553z" />
    <glyph glyph-name="afii10032" unicode="&#x41e;" horiz-adv-x="701" 
d="M143 276q0 -93 58.5 -147.5t148.5 -54.5t149 54.5t59 147.5t-59 147.5t-149 54.5t-148.5 -54.5t-58.5 -147.5zM659 276q0 -129 -89 -209.5t-220 -80.5t-220 80.5t-89 209.5t89 209.5t220 80.5t220 -80.5t89 -209.5z" />
    <glyph glyph-name="afii10033" unicode="&#x41f;" horiz-adv-x="647" 
d="M53 553h540v-553h-101v462h-338v-462h-101v553z" />
    <glyph glyph-name="afii10034" unicode="&#x420;" horiz-adv-x="635" 
d="M53 553h325q97 0 161 -59.5t64 -154.5t-64 -153t-161 -58h-223v-128h-102v553zM155 460v-239h219q58 0 93 31.5t35 86.5q0 56 -35 88.5t-93 32.5h-219z" />
    <glyph glyph-name="afii10035" unicode="&#x421;" 
d="M621 427l-79 -46q-69 94 -197 94q-93 0 -148.5 -54t-55.5 -145q0 -88 56.5 -143.5t147.5 -55.5q125 0 197 95l80 -47q-91 -139 -275 -139q-134 0 -220.5 79t-86.5 211t87 211t220 79q186 0 274 -139z" />
    <glyph glyph-name="afii10036" unicode="&#x422;" horiz-adv-x="632" 
d="M30 553h572v-92h-235v-461h-102v461h-235v92z" />
    <glyph glyph-name="afii10037" unicode="&#x423;" horiz-adv-x="658" 
d="M24 553h105l84 -239q14 -40 59 -40h166l92 279h102l-146 -441q-17 -50 -58.5 -81t-94.5 -31h-149v87h143q51 0 67 44l17 52h-145q-113 0 -152 111z" />
    <glyph glyph-name="afii10038" unicode="&#x424;" horiz-adv-x="864" 
d="M382 490v63h100v-63h125q96 0 159.5 -59.5t63.5 -154.5t-63 -152.5t-160 -57.5h-125v-66h-100v66h-125q-97 0 -160.5 58t-63.5 152q0 95 64 154.5t160 59.5h125zM382 398h-120q-60 0 -93.5 -31.5t-33.5 -89.5q0 -57 34.5 -88t92.5 -31h120v240zM482 398v-240h120
q57 0 92 31.5t35 87.5q0 58 -33.5 89.5t-93.5 31.5h-120z" />
    <glyph glyph-name="afii10039" unicode="&#x425;" horiz-adv-x="671" 
d="M43 553h116l153 -223h47l153 223h116l-186 -262l201 -291h-118l-163 238h-53l-164 -238h-118l203 288z" />
    <glyph glyph-name="afii10040" unicode="&#x426;" horiz-adv-x="678" 
d="M53 553h102v-461h334v461h101v-461h61v-203h-86l-9 111h-503v553z" />
    <glyph glyph-name="afii10041" unicode="&#x427;" horiz-adv-x="640" 
d="M50 553h102v-202q0 -133 131 -133h200v335h102v-553h-102v125h-220q-95 0 -154 59t-59 156v213z" />
    <glyph glyph-name="afii10042" unicode="&#x428;" horiz-adv-x="892" 
d="M53 553h100v-461h243v461h100v-461h242v461h100v-553h-785v553z" />
    <glyph glyph-name="afii10043" unicode="&#x429;" horiz-adv-x="926" 
d="M804 0h-751v553h100v-461h243v461h100v-461h242v461h100v-461h61v-203h-86z" />
    <glyph glyph-name="afii10044" unicode="&#x42a;" horiz-adv-x="720" 
d="M24 553h237v-131h203q98 0 161 -57.5t63 -152.5t-63.5 -153.5t-160.5 -58.5h-305v462l-135 6v85zM261 329v-236h198q58 0 92.5 32t34.5 87t-34.5 86t-92.5 31h-198z" />
    <glyph glyph-name="afii10045" unicode="&#x42b;" horiz-adv-x="805" 
d="M650 553h102v-553h-102v553zM53 553h102v-133h210q97 0 160.5 -56.5t63.5 -151.5t-63.5 -153.5t-160.5 -58.5h-312v553zM155 329v-236h202q62 0 96 31t34 88q0 58 -34 87.5t-96 29.5h-202z" />
    <glyph glyph-name="afii10046" unicode="&#x42c;" horiz-adv-x="622" 
d="M53 553h102v-133h210q97 0 160.5 -56.5t63.5 -151.5t-63.5 -153.5t-160.5 -58.5h-312v553zM155 329v-236h202q62 0 96 31t34 88q0 58 -34 87.5t-96 29.5h-202z" />
    <glyph glyph-name="afii10047" unicode="&#x42d;" horiz-adv-x="661" 
d="M250 326h270q-13 69 -66 108.5t-133 39.5q-129 0 -196 -92l-79 45q90 139 275 139q133 0 219.5 -79t86.5 -211t-86.5 -211t-221.5 -79q-184 0 -275 139l81 47q70 -94 196 -94q82 0 136.5 43.5t65.5 116.5h-273v88z" />
    <glyph glyph-name="afii10048" unicode="&#x42e;" horiz-adv-x="891" 
d="M53 553h100v-216h106q18 109 99 169t196 60q130 0 215.5 -76.5t85.5 -213.5t-85.5 -213.5t-215.5 -76.5q-122 0 -205.5 68t-93.5 191h-102v-245h-100v553zM354 276q0 -94 51.5 -148t148.5 -54t148.5 54t51.5 148t-51.5 148t-148.5 54t-148.5 -54t-51.5 -148z" />
    <glyph glyph-name="afii10049" unicode="&#x42f;" horiz-adv-x="638" 
d="M584 553v-553h-102v130h-241l-71 -130h-112l87 154q-111 56 -111 185q0 95 63.5 154.5t160.5 59.5h326zM482 460h-219q-57 0 -92 -33t-35 -88t34.5 -85.5t92.5 -30.5h219v237z" />
    <glyph glyph-name="afii10065" unicode="&#x430;" horiz-adv-x="735" 
d="M337 462l-119 -285h298l-116 285h-63zM275 553h192l235 -553h-107l-38 87h-377l-38 -87h-109z" />
    <glyph glyph-name="afii10066" unicode="&#x431;" horiz-adv-x="627" 
d="M53 553h472v-92h-371v-99h250q83 0 137 -50t54 -128q0 -77 -54.5 -130.5t-136.5 -53.5h-351v553zM154 272v-180h241q51 0 75 25t24 67q0 40 -24.5 64t-75.5 24h-240z" />
    <glyph glyph-name="afii10067" unicode="&#x432;" horiz-adv-x="648" 
d="M53 553h353q76 0 122.5 -39t46.5 -104q0 -69 -47 -101q86 -38 86 -139q0 -71 -51.5 -120.5t-131.5 -49.5h-378v553zM155 461v-128h260q28 0 44.5 18.5t16.5 44.5q0 65 -76 65h-245zM155 244v-152h272q42 0 65 21.5t23 55.5q0 35 -21.5 55t-56.5 20h-282z" />
    <glyph glyph-name="afii10068" unicode="&#x433;" horiz-adv-x="586" 
d="M53 553h504v-92h-402v-461h-102v553z" />
    <glyph glyph-name="afii10069" unicode="&#x434;" horiz-adv-x="730" 
d="M199 553h431v-461h67v-203h-87l-9 111h-472l-9 -111h-87v203h72zM281 464l-69 -372h316v372h-247z" />
    <glyph glyph-name="afii10070" unicode="&#x435;" horiz-adv-x="608" 
d="M53 553h495v-92h-393v-133h354v-91h-354v-144h408v-93h-510v553z" />
    <glyph glyph-name="afii10072" unicode="&#x436;" horiz-adv-x="935" 
d="M42 553h115l129 -218h131v218h101v-218h131l129 218h115l-156 -257l174 -296h-117l-141 245h-135v-245h-101v245h-135l-141 -245h-118l175 296z" />
    <glyph glyph-name="afii10073" unicode="&#x437;" horiz-adv-x="658" 
d="M207 341h213q66 0 66 56q0 79 -165 79q-71 0 -120 -13t-102 -46l-43 75q116 74 264 74q130 0 199 -43q68 -42 68 -121q0 -63 -50 -93q87 -34 87 -133q0 -80 -73 -134q-75 -56 -233 -56q-165 0 -287 79l47 77q111 -66 246 -66q198 0 198 103q0 36 -23 54t-76 18h-216v90z
" />
    <glyph glyph-name="afii10074" unicode="&#x438;" horiz-adv-x="677" 
d="M53 553h101v-418l369 418h101v-553h-101v416l-368 -416h-102v553z" />
    <glyph glyph-name="afii10075" unicode="&#x439;" horiz-adv-x="677" 
d="M53 553h101v-418l369 418h101v-553h-101v416l-368 -416h-102v553zM441 733l52 -53q-68 -73 -159 -73t-160 73l52 53q45 -46 108 -46q62 0 107 46z" />
    <glyph glyph-name="afii10076" unicode="&#x43a;" horiz-adv-x="647" 
d="M53 553h101v-214h193l146 214h117l-176 -256l190 -297h-120l-154 247h-196v-247h-101v553z" />
    <glyph glyph-name="afii10077" unicode="&#x43b;" horiz-adv-x="692" 
d="M206 553h433v-553h-102v461h-247l-61 -324q-25 -137 -163 -137h-56v95h49q60 0 71 55z" />
    <glyph glyph-name="afii10078" unicode="&#x43c;" horiz-adv-x="836" 
d="M53 553h148l216 -435h5l217 435h144v-553h-101v427h-10l-210 -427h-91l-209 427h-11v-427h-98v553z" />
    <glyph glyph-name="afii10079" unicode="&#x43d;" horiz-adv-x="665" 
d="M53 553h102v-221h355v221h101v-553h-101v241h-355v-241h-102v553z" />
    <glyph glyph-name="afii10080" unicode="&#x43e;" horiz-adv-x="701" 
d="M143 276q0 -93 58.5 -147.5t148.5 -54.5t149 54.5t59 147.5t-59 147.5t-149 54.5t-148.5 -54.5t-58.5 -147.5zM659 276q0 -129 -89 -209.5t-220 -80.5t-220 80.5t-89 209.5t89 209.5t220 80.5t220 -80.5t89 -209.5z" />
    <glyph glyph-name="afii10081" unicode="&#x43f;" horiz-adv-x="647" 
d="M53 553h540v-553h-101v462h-338v-462h-101v553z" />
    <glyph glyph-name="afii10082" unicode="&#x440;" horiz-adv-x="638" 
d="M53 553h325q97 0 161 -59.5t64 -154.5t-64 -153t-161 -58h-223v-128h-102v553zM155 460v-239h219q58 0 93 31.5t35 86.5q0 56 -35 88.5t-93 32.5h-219z" />
    <glyph glyph-name="afii10083" unicode="&#x441;" 
d="M621 427l-79 -46q-69 94 -197 94q-93 0 -148.5 -54t-55.5 -145q0 -88 56.5 -143.5t147.5 -55.5q125 0 197 95l80 -47q-91 -139 -275 -139q-134 0 -220.5 79t-86.5 211t87 211t220 79q186 0 274 -139z" />
    <glyph glyph-name="afii10084" unicode="&#x442;" horiz-adv-x="632" 
d="M30 553h572v-92h-235v-461h-102v461h-235v92z" />
    <glyph glyph-name="afii10085" unicode="&#x443;" horiz-adv-x="658" 
d="M24 553h105l84 -239q14 -40 59 -40h166l92 279h102l-146 -441q-17 -50 -58.5 -81t-94.5 -31h-149v87h143q51 0 67 44l17 52h-145q-113 0 -152 111z" />
    <glyph glyph-name="afii10086" unicode="&#x444;" horiz-adv-x="864" 
d="M382 490v63h100v-63h125q96 0 159.5 -59.5t63.5 -154.5t-63 -152.5t-160 -57.5h-125v-66h-100v66h-125q-97 0 -160.5 58t-63.5 152q0 95 64 154.5t160 59.5h125zM382 398h-120q-60 0 -93.5 -31.5t-33.5 -89.5q0 -57 34.5 -88t92.5 -31h120v240zM482 398v-240h120
q57 0 92 31.5t35 87.5q0 58 -33.5 89.5t-93.5 31.5h-120z" />
    <glyph glyph-name="afii10087" unicode="&#x445;" horiz-adv-x="671" 
d="M43 553h116l153 -223h47l153 223h116l-186 -262l201 -291h-118l-163 238h-53l-164 -238h-118l203 288z" />
    <glyph glyph-name="afii10088" unicode="&#x446;" horiz-adv-x="678" 
d="M53 553h102v-461h334v461h101v-461h61v-203h-86l-9 111h-503v553z" />
    <glyph glyph-name="afii10089" unicode="&#x447;" horiz-adv-x="640" 
d="M50 553h102v-202q0 -133 131 -133h200v335h102v-553h-102v125h-220q-95 0 -154 59t-59 156v213z" />
    <glyph glyph-name="afii10090" unicode="&#x448;" horiz-adv-x="892" 
d="M53 553h100v-461h243v461h100v-461h242v461h100v-553h-785v553z" />
    <glyph glyph-name="afii10091" unicode="&#x449;" horiz-adv-x="926" 
d="M804 0h-751v553h100v-461h243v461h100v-461h242v461h100v-461h61v-203h-86z" />
    <glyph glyph-name="afii10092" unicode="&#x44a;" horiz-adv-x="720" 
d="M24 553h237v-131h203q98 0 161 -57.5t63 -152.5t-63.5 -153.5t-160.5 -58.5h-305v462l-135 6v85zM261 329v-236h198q58 0 92.5 32t34.5 87t-34.5 86t-92.5 31h-198z" />
    <glyph glyph-name="afii10093" unicode="&#x44b;" horiz-adv-x="805" 
d="M650 553h102v-553h-102v553zM53 553h102v-133h210q97 0 160.5 -56.5t63.5 -151.5t-63.5 -153.5t-160.5 -58.5h-312v553zM155 329v-236h202q62 0 96 31t34 88q0 58 -34 87.5t-96 29.5h-202z" />
    <glyph glyph-name="afii10094" unicode="&#x44c;" horiz-adv-x="622" 
d="M53 553h102v-133h210q97 0 160.5 -56.5t63.5 -151.5t-63.5 -153.5t-160.5 -58.5h-312v553zM155 329v-236h202q62 0 96 31t34 88q0 58 -34 87.5t-96 29.5h-202z" />
    <glyph glyph-name="afii10095" unicode="&#x44d;" horiz-adv-x="661" 
d="M250 326h270q-13 69 -66 108.5t-133 39.5q-129 0 -196 -92l-79 45q90 139 275 139q133 0 219.5 -79t86.5 -211t-86.5 -211t-221.5 -79q-184 0 -275 139l81 47q70 -94 196 -94q82 0 136.5 43.5t65.5 116.5h-273v88z" />
    <glyph glyph-name="afii10096" unicode="&#x44e;" horiz-adv-x="891" 
d="M53 553h100v-216h106q18 109 99 169t196 60q130 0 215.5 -76.5t85.5 -213.5t-85.5 -213.5t-215.5 -76.5q-122 0 -205.5 68t-93.5 191h-102v-245h-100v553zM354 276q0 -94 51.5 -148t148.5 -54t148.5 54t51.5 148t-51.5 148t-148.5 54t-148.5 -54t-51.5 -148z" />
    <glyph glyph-name="afii10097" unicode="&#x44f;" horiz-adv-x="638" 
d="M584 553v-553h-102v130h-241l-71 -130h-112l87 154q-111 56 -111 185q0 95 63.5 154.5t160.5 59.5h326zM482 460h-219q-57 0 -92 -33t-35 -88t34.5 -85.5t92.5 -30.5h219v237z" />
    <glyph glyph-name="uni0450" unicode="&#x450;" horiz-adv-x="608" 
d="M53 553h495v-92h-393v-133h354v-91h-354v-144h408v-93h-510v553zM318 810l48 -183l-85 -20l-50 182z" />
    <glyph glyph-name="afii10071" unicode="&#x451;" horiz-adv-x="608" 
d="M53 553h495v-92h-393v-133h354v-91h-354v-144h408v-93h-510v553zM182 746q27 0 46.5 -19t19.5 -45q0 -27 -19 -46.5t-47 -19.5q-27 0 -46 19.5t-19 46.5q0 26 19 45t46 19zM419 746q28 0 47.5 -19t19.5 -45q0 -27 -19.5 -46.5t-47.5 -19.5q-26 0 -45.5 19.5t-19.5 46.5
q0 26 19.5 45t45.5 19z" />
    <glyph glyph-name="afii10099" unicode="&#x452;" horiz-adv-x="777" 
d="M29 553h561v-90h-239v-88h136q128 0 192 -67.5t64 -187.5q0 -75 -32.5 -154t-88.5 -135l-71 59q90 105 90 226q0 96 -39.5 132.5t-141.5 36.5h-109v-285h-101v463h-221v90z" />
    <glyph glyph-name="afii10100" unicode="&#x453;" horiz-adv-x="586" 
d="M53 553h504v-92h-402v-461h-102v553zM245 627l48 183l87 -21l-50 -182z" />
    <glyph glyph-name="afii10101" unicode="&#x454;" horiz-adv-x="661" 
d="M415 326v-88h-273q11 -73 65.5 -116.5t136.5 -43.5q126 0 197 94l80 -47q-91 -139 -275 -139q-135 0 -221.5 79t-86.5 211t86.5 211t219.5 79q187 0 275 -139l-78 -45q-69 92 -197 92q-80 0 -133 -39.5t-66 -108.5h270z" />
    <glyph glyph-name="afii10102" unicode="&#x455;" horiz-adv-x="640" 
d="M581 490l-49 -75q-94 61 -221 61q-154 0 -154 -74q0 -29 22 -41.5t65 -17.5l172 -20q184 -23 184 -161q0 -88 -75.5 -132t-205.5 -44q-163 0 -280 84l48 79q110 -74 247 -74q77 0 122.5 21.5t45.5 63.5q0 59 -86 68l-182 20q-87 10 -132 46t-45 107q0 81 71.5 123
t182.5 42q162 0 270 -76z" />
    <glyph glyph-name="afii10103" unicode="&#x456;" horiz-adv-x="208" 
d="M53 553h102v-553h-102v553z" />
    <glyph glyph-name="afii10104" unicode="&#x457;" horiz-adv-x="208" 
d="M53 553h102v-553h-102v553zM-15 746q27 0 46.5 -19t19.5 -45q0 -27 -19 -46.5t-47 -19.5q-27 0 -46 19.5t-19 46.5q0 26 19 45t46 19zM222 746q28 0 47.5 -19t19.5 -45q0 -27 -19.5 -46.5t-47.5 -19.5q-26 0 -45.5 19.5t-19.5 46.5q0 26 19.5 45t45.5 19z" />
    <glyph glyph-name="afii10105" unicode="&#x458;" horiz-adv-x="597" 
d="M444 553h99v-314q0 -113 -66 -183t-200 -70q-85 0 -150 37.5t-100 107.5l87 45q23 -47 67 -73t95 -26q92 0 130 44t38 128v304z" />
    <glyph glyph-name="afii10106" unicode="&#x459;" horiz-adv-x="1058" 
d="M211 553h415v-133h176q98 0 161 -56.5t63 -151.5t-63.5 -153.5t-160.5 -58.5h-278v461h-228l-61 -324q-25 -137 -164 -137h-49v95h43q60 0 71 55zM626 329v-236h169q62 0 95.5 30.5t33.5 88.5t-33.5 87.5t-95.5 29.5h-169z" />
    <glyph glyph-name="afii10107" unicode="&#x45a;" horiz-adv-x="1020" 
d="M53 553h102v-221h328v221h102v-133h176q97 0 160.5 -56.5t63.5 -151.5t-63.5 -153.5t-160.5 -58.5h-278v241h-328v-241h-102v553zM585 329v-236h169q62 0 95.5 30.5t33.5 88.5t-33.5 87.5t-95.5 29.5h-169z" />
    <glyph glyph-name="afii10108" unicode="&#x45b;" horiz-adv-x="779" 
d="M29 553h561v-90h-239v-88h136q128 0 192 -67.5t64 -187.5v-120h-102v120q0 93 -39.5 129t-139.5 36h-111v-285h-101v463h-221v90z" />
    <glyph glyph-name="afii10109" unicode="&#x45c;" horiz-adv-x="647" 
d="M53 553h101v-214h193l146 214h117l-176 -256l190 -297h-120l-154 247h-196v-247h-101v553zM268 624l48 183l87 -21l-50 -182z" />
    <glyph glyph-name="uni045D" unicode="&#x45d;" horiz-adv-x="676" 
d="M322 810l48 -183l-85 -20l-49 182zM47 553h101v-418l368 418h101v-553h-101v416l-368 -416h-101v553z" />
    <glyph glyph-name="afii10110" unicode="&#x45e;" horiz-adv-x="658" 
d="M24 553h105l84 -239q14 -40 59 -40h166l92 279h102l-146 -441q-17 -50 -58.5 -81t-94.5 -31h-149v87h143q51 0 67 44l17 52h-145q-113 0 -152 111zM439 736l52 -53q-68 -73 -159 -73t-160 73l52 53q45 -46 108 -46q62 0 107 46z" />
    <glyph glyph-name="afii10193" unicode="&#x45f;" horiz-adv-x="647" 
d="M53 553h101v-462h338v462h101v-553h-214l-9 -114h-85l-9 114h-223v553z" />
    <glyph glyph-name="afii10147" unicode="&#x472;" horiz-adv-x="701" 
d="M41 277q0 128 89 208.5t220 80.5t220 -80.5t89 -208.5q0 -129 -89 -209.5t-220 -80.5t-220 80.5t-89 209.5zM148 230q14 -72 69.5 -113t132.5 -41q85 0 142 48t64 132q-44 -37 -120 -37q-35 0 -90.5 23t-82.5 23q-72 0 -115 -35zM145 306q49 40 124 40q41 0 93 -22
t82 -22q68 0 106 33q-18 67 -72 105t-128 38q-82 0 -138.5 -46t-66.5 -126z" />
    <glyph glyph-name="afii10195" unicode="&#x473;" horiz-adv-x="701" 
d="M41 277q0 128 89 208.5t220 80.5t220 -80.5t89 -208.5q0 -129 -89 -209.5t-220 -80.5t-220 80.5t-89 209.5zM148 230q14 -72 69.5 -113t132.5 -41q85 0 142 48t64 132q-44 -37 -120 -37q-35 0 -90.5 23t-82.5 23q-72 0 -115 -35zM145 306q49 40 124 40q41 0 93 -22
t82 -22q68 0 106 33q-18 67 -72 105t-128 38q-82 0 -138.5 -46t-66.5 -126z" />
    <glyph glyph-name="afii10050" unicode="&#x490;" horiz-adv-x="588" 
d="M53 553h409l11 115h84v-207h-402v-461h-102v553z" />
    <glyph glyph-name="afii10098" unicode="&#x491;" horiz-adv-x="588" 
d="M53 553h409l11 115h84v-207h-402v-461h-102v553z" />
    <glyph glyph-name="uni04D8" unicode="&#x4d8;" horiz-adv-x="679" 
d="M37 328h499q-13 71 -67 110.5t-138 39.5q-51 0 -99.5 -17.5t-79.5 -47.5l-59 64q88 89 238 89q136 0 223.5 -77.5t87.5 -212.5q0 -133 -85.5 -211.5t-217.5 -78.5q-130 0 -216 78t-86 211v53zM539 243h-399q8 -79 60.5 -124t138.5 -45t138 44t62 125z" />
    <glyph glyph-name="afii10846" unicode="&#x4d9;" horiz-adv-x="679" 
d="M37 328h499q-13 71 -67 110.5t-138 39.5q-51 0 -99.5 -17.5t-79.5 -47.5l-59 64q88 89 238 89q136 0 223.5 -77.5t87.5 -212.5q0 -133 -85.5 -211.5t-217.5 -78.5q-130 0 -216 78t-86 211v53zM539 243h-399q8 -79 60.5 -124t138.5 -45t138 44t62 125z" />
    <glyph glyph-name="Wgrave" unicode="&#x1e80;" horiz-adv-x="1011" 
d="M30 553h108l151 -464h17l131 464h134l135 -464h17l153 464h106l-197 -553h-152l-124 443h-12l-124 -443h-150zM504 810l48 -183l-85 -20l-50 182z" />
    <glyph glyph-name="wgrave" unicode="&#x1e81;" horiz-adv-x="1011" 
d="M30 553h108l151 -464h17l131 464h134l135 -464h17l153 464h106l-197 -553h-152l-124 443h-12l-124 -443h-150zM504 810l48 -183l-85 -20l-50 182z" />
    <glyph glyph-name="Wacute" unicode="&#x1e82;" horiz-adv-x="1011" 
d="M30 553h108l151 -464h17l131 464h134l135 -464h17l153 464h106l-197 -553h-152l-124 443h-12l-124 -443h-150zM459 627l48 183l87 -21l-50 -182z" />
    <glyph glyph-name="wacute" unicode="&#x1e83;" horiz-adv-x="1011" 
d="M30 553h108l151 -464h17l131 464h134l135 -464h17l153 464h106l-197 -553h-152l-124 443h-12l-124 -443h-150zM464 627l48 183l87 -21l-50 -182z" />
    <glyph glyph-name="Wdieresis" unicode="&#x1e84;" horiz-adv-x="1011" 
d="M30 553h108l151 -464h17l131 464h134l135 -464h17l153 464h106l-197 -553h-152l-124 443h-12l-124 -443h-150zM386 746q27 0 46.5 -19t19.5 -45q0 -27 -19 -46.5t-47 -19.5q-27 0 -46 19.5t-19 46.5q0 26 19 45t46 19zM623 746q28 0 47.5 -19t19.5 -45q0 -27 -19.5 -46.5
t-47.5 -19.5q-26 0 -45.5 19.5t-19.5 46.5q0 26 19.5 45t45.5 19z" />
    <glyph glyph-name="wdieresis" unicode="&#x1e85;" horiz-adv-x="1011" 
d="M30 553h108l151 -464h17l131 464h134l135 -464h17l153 464h106l-197 -553h-152l-124 443h-12l-124 -443h-150zM386 746q27 0 46.5 -19t19.5 -45q0 -27 -19 -46.5t-47 -19.5q-27 0 -46 19.5t-19 46.5q0 26 19 45t46 19zM623 746q28 0 47.5 -19t19.5 -45q0 -27 -19.5 -46.5
t-47.5 -19.5q-26 0 -45.5 19.5t-19.5 46.5q0 26 19.5 45t45.5 19z" />
    <glyph glyph-name="Ygrave" unicode="&#x1ef2;" horiz-adv-x="686" 
d="M30 553h116l194 -314h12l188 314h116l-263 -415v-138h-100v138zM342 810l48 -183l-85 -20l-50 182z" />
    <glyph glyph-name="ygrave" unicode="&#x1ef3;" horiz-adv-x="686" 
d="M30 553h116l194 -314h12l188 314h116l-263 -415v-138h-100v138zM344 810l48 -183l-85 -20l-50 182z" />
    <glyph glyph-name="endash" unicode="&#x2013;" horiz-adv-x="482" 
d="M40 327h402v-89h-402v89z" />
    <glyph glyph-name="emdash" unicode="&#x2014;" horiz-adv-x="562" 
d="M40 327h482v-89h-482v89z" />
    <glyph glyph-name="quoteleft" unicode="&#x2018;" horiz-adv-x="242" 
d="M156 600l-18 -81q18 -7 29 -24t11 -38q0 -28 -20.5 -48t-49.5 -20q-28 0 -47.5 18.5t-19.5 49.5q0 12 5 25l55 130z" />
    <glyph glyph-name="quoteright" unicode="&#x2019;" horiz-adv-x="212" 
d="M63 384l18 81q-40 14 -40 62q0 29 20 48t50 19q27 0 47 -19t20 -49q0 -11 -5 -24l-55 -130z" />
    <glyph glyph-name="quotesinglbase" unicode="&#x201a;" horiz-adv-x="221" 
d="M63 -89l18 81q-40 14 -40 62q0 29 20 48t50 19q27 0 47 -19t20 -49q0 -11 -5 -24l-55 -130z" />
    <glyph glyph-name="quotedblleft" unicode="&#x201c;" horiz-adv-x="370" 
d="M295 579l-11 -64q18 -7 29.5 -24t11.5 -38q0 -29 -20 -48.5t-50 -19.5q-28 0 -47.5 18.5t-19.5 49.5q0 12 5 25l50 113zM149 596l-18 -81q18 -7 29 -24t11 -38q0 -28 -20.5 -48t-49.5 -20q-28 0 -47.5 18.5t-19.5 49.5q0 12 5 25l55 130z" />
    <glyph glyph-name="quotedblright" unicode="&#x201d;" horiz-adv-x="370" 
d="M64 395l11 64q-18 7 -29.5 24t-11.5 38q0 29 20 48.5t50 19.5q27 0 47 -19t20 -49q0 -12 -5 -25l-50 -113zM210 378l18 81q-18 7 -29 24t-11 38q0 29 20 48.5t50 19.5q28 0 47.5 -18.5t19.5 -49.5q0 -12 -5 -25l-55 -130z" />
    <glyph glyph-name="quotedblbase" unicode="&#x201e;" horiz-adv-x="361" 
d="M64 -81l11 64q-18 7 -29.5 24t-11.5 38q0 29 20 48.5t50 19.5q27 0 47 -19t20 -49q0 -12 -5 -25l-50 -113zM210 -98l18 81q-18 7 -29 24t-11 38q0 29 20 48.5t50 19.5q28 0 47.5 -18.5t19.5 -49.5q0 -12 -5 -25l-55 -130z" />
    <glyph glyph-name="bullet" unicode="&#x2022;" horiz-adv-x="263" 
d="M128 398q41 0 70 -29t29 -70t-29 -69.5t-70 -28.5t-70 29t-29 69q0 41 29 70t70 29z" />
    <glyph glyph-name="ellipsis" unicode="&#x2026;" horiz-adv-x="695" 
d="M114 150q34 0 58 -24t24 -58q0 -33 -24 -55.5t-58 -22.5t-57.5 22.5t-23.5 55.5q0 34 23.5 58t57.5 24zM340 150q34 0 58 -24t24 -58t-23.5 -56t-58.5 -22q-34 0 -57.5 22.5t-23.5 55.5q0 34 23.5 58t57.5 24zM567 150q34 0 57.5 -24t23.5 -58q0 -33 -23.5 -55.5
t-57.5 -22.5q-35 0 -58.5 22t-23.5 56t23.5 58t58.5 24z" />
    <glyph glyph-name="perthousand" unicode="&#x2030;" horiz-adv-x="1100" 
d="M505 560l73 -34l-319 -554l-74 34zM584 -12q-65 0 -108.5 42.5t-43.5 107.5t43.5 107t108.5 42t108 -42t43 -107q0 -66 -43 -108t-108 -42zM584 62q32 0 53 20t21 56q0 35 -21 54.5t-53 19.5t-54 -19.5t-22 -54.5q0 -36 22 -56t54 -20zM181 249q-64 0 -107.5 42
t-43.5 107t43.5 107t107.5 42q66 0 109 -41.5t43 -107.5q0 -65 -43 -107t-109 -42zM181 323q32 0 53.5 19.5t21.5 55.5t-21.5 55.5t-53.5 19.5q-33 0 -54.5 -19.5t-21.5 -55.5t21.5 -55.5t54.5 -19.5zM916 -12q-65 0 -108.5 42.5t-43.5 107.5t43.5 107t108.5 42t108 -42
t43 -107q0 -66 -43 -108t-108 -42zM916 62q32 0 53 20t21 56q0 35 -21 54.5t-53 19.5t-54 -19.5t-22 -54.5q0 -36 22 -56t54 -20z" />
    <glyph glyph-name="guilsinglleft" unicode="&#x2039;" horiz-adv-x="282" 
d="M201 436l52 -51l-97 -117l97 -117l-52 -51l-174 168z" />
    <glyph glyph-name="guilsinglright" unicode="&#x203a;" horiz-adv-x="282" 
d="M81 436l174 -168l-174 -168l-52 51l97 117l-97 117z" />
    <glyph glyph-name="Euro" unicode="&#x20ac;" 
d="M9 370h44q29 92 108 144t186 52q186 0 274 -139l-79 -46q-70 95 -197 95q-65 0 -113 -28t-71 -78h258v-74h-410v74zM9 256h410v-74h-256q23 -50 71 -78t111 -28q125 0 197 96l80 -47q-91 -139 -275 -139q-108 0 -186.5 52t-106.5 144h-45v74z" />
    <glyph glyph-name="afii61352" unicode="&#x2116;" horiz-adv-x="986" 
d="M690 158h241v-71h-241v71zM810 201q-59 0 -99.5 36.5t-40.5 95.5t41 96t99 37q60 0 100.5 -37t40.5 -96t-40.5 -95.5t-100.5 -36.5zM810 271q28 0 46 16.5t18 45.5t-18 45.5t-46 16.5q-27 0 -45 -16.5t-18 -45.5t18 -45.5t45 -16.5zM53 553h102l367 -411v411h101v-553
h-103l-367 413v-413h-100v553z" />
    <glyph glyph-name="trademark" unicode="&#x2122;" horiz-adv-x="656" 
d="M21 553h330l90 -175l89 175h78v-266h-62v167l-87 -167h-38l-87 167v-167h-62v206h-85v-206h-63v206h-103v60z" />
    <glyph glyph-name="minus" unicode="&#x2212;" horiz-adv-x="395" 
d="M40 327h315v-89h-315v89z" />
    <glyph glyph-name="percent" horiz-adv-x="769" 
d="M505 560l73 -34l-319 -554l-74 34zM584 -12q-65 0 -108.5 42.5t-43.5 107.5t43.5 107t108.5 42t108 -42t43 -107q0 -66 -43 -108t-108 -42zM584 62q32 0 53 20t21 56q0 35 -21 54.5t-53 19.5t-54 -19.5t-22 -54.5q0 -36 22 -56t54 -20zM181 249q-64 0 -107.5 42
t-43.5 107t43.5 107t107.5 42q66 0 109 -41.5t43 -107.5q0 -65 -43 -107t-109 -42zM181 323q32 0 53.5 19.5t21.5 55.5t-21.5 55.5t-53.5 19.5q-33 0 -54.5 -19.5t-21.5 -55.5t21.5 -55.5t54.5 -19.5z" />
    <glyph glyph-name="cyrbreve" horiz-adv-x="380" 
d="M296 748l52 -52q-68 -73 -159 -73t-160 73l52 52q45 -45 108 -45q62 0 107 45z" />
    <glyph glyph-name="commaaccent" horiz-adv-x="242" 
d="M114 -37q29 0 48 -20t19 -49q0 -10 -4 -26l-51 -131l-55 13l14 82q-18 7 -29 24.5t-11 38.5q0 28 20 48t49 20z" />
    <glyph glyph-name="dblgrave" horiz-adv-x="333" 
d="M252 810l46 -183l-84 -20l-48 182zM114 810l50 -183l-85 -20l-51 182z" />
    <glyph glyph-name="Imacron" horiz-adv-x="208" 
d="M53 553h102v-553h-102v553zM-76 707h362v-81h-362v81z" />
    <glyph glyph-name="ibreve" horiz-adv-x="208" 
d="M53 553h102v-553h-102v553zM218 739l52 -53q-68 -73 -159 -73t-160 73l52 53q45 -46 108 -46q62 0 107 46z" />
    </font>
</defs>
</svg>
