<svg width="61" height="61" viewBox="0 0 61 61" fill="none" xmlns="http://www.w3.org/2000/svg">
<rect x="1" y="1" width="59" height="59" rx="6" fill="white" stroke="#F98341" stroke-width="2"/>
<rect x="5" y="5" width="51" height="51" rx="4" fill="#F98341"/>
<path d="M29.7205 14.0333C27.201 14.2725 25.3263 14.804 23.2056 15.8803C20.6927 17.1626 18.4391 19.1823 16.7904 21.6273C16.0991 22.6637 15.2481 24.4111 14.836 25.6469C14.5102 26.6434 14.2443 27.7796 14.0848 28.9024C13.9717 29.6864 13.9717 32.3041 14.0848 33.088C14.364 35.048 14.8825 36.7621 15.6935 38.4032C16.6043 40.2635 17.5018 41.5125 18.9776 42.9941C20.4467 44.4558 21.7165 45.366 23.5048 46.243C24.7545 46.8542 25.5589 47.1532 26.8287 47.4721C30.1526 48.3092 33.4898 48.1498 36.734 47.0004C37.7245 46.6483 39.4396 45.7912 40.3238 45.1999C42.3115 43.8778 44.133 42.0108 45.436 39.9645C45.9146 39.2137 46.6858 37.6192 46.9982 36.7355C48.5605 32.3373 48.2879 27.6201 46.2337 23.4942C45.4094 21.8333 44.4853 20.5244 43.189 19.189C41.7531 17.7007 40.3437 16.6776 38.4624 15.7474C36.4946 14.7774 34.6598 14.2525 32.4793 14.0532C31.8013 13.9934 30.2656 13.9801 29.7205 14.0333ZM31.6417 21.2486C31.8013 21.3283 32.0206 21.5276 32.1403 21.6871L32.3464 21.9728L32.3663 26.5305L32.3796 31.0949L35.8631 34.5829C38.8413 37.5727 39.3466 38.1108 39.413 38.3434C39.5327 38.7619 39.5061 39.041 39.32 39.4263C39.0208 40.0243 38.3959 40.31 37.7311 40.1572C37.412 40.0841 37.2857 39.9645 33.6228 36.317C31.5021 34.2109 29.787 32.4502 29.7138 32.3107C29.5875 32.0649 29.5875 31.8988 29.6008 27.0155L29.6208 21.9728L29.8202 21.6871C30.2257 21.1157 31.0301 20.923 31.6417 21.2486Z" fill="white"/>
</svg>
