<svg width="61" height="61" viewBox="0 0 61 61" fill="none" xmlns="http://www.w3.org/2000/svg">
<rect x="1" y="1.00098" width="59" height="59" rx="6" fill="white" stroke="#F98341" stroke-width="2"/>
<rect x="5" y="5.00098" width="51" height="51" rx="4" fill="#F98341"/>
<path d="M20.5113 14.6657C19.4986 14.7986 19.1315 14.9695 18.9543 15.4062C18.834 15.6847 18.8467 15.8936 18.9859 16.1721C19.0556 16.2986 19.7011 16.9885 20.4163 17.7037C21.7708 19.0455 22.024 19.343 22.1505 19.748C22.2834 20.1404 22.2455 20.7037 22.0746 21.0898C21.6505 22.0076 20.6189 22.4253 19.6442 22.0582C19.3151 21.9379 19.1252 21.7797 17.7897 20.4569C16.9733 19.6468 16.2391 18.9506 16.1631 18.9126C15.9733 18.8176 15.6062 18.824 15.3973 18.9316C14.9733 19.1531 14.8024 19.5708 14.6884 20.6784C14.4922 22.5708 15.2011 24.5329 16.5935 25.9253C17.1821 26.5139 17.6821 26.8684 18.429 27.2228C19.4227 27.7038 19.91 27.7987 21.2075 27.7924C22.0809 27.7861 22.4417 27.7608 22.9164 27.6532L23.5176 27.5203L28.8215 32.8178L34.1253 38.1216L33.9861 38.7166C33.8722 39.2166 33.8469 39.5077 33.8469 40.4571C33.8405 41.7862 33.9291 42.2103 34.3975 43.1913C34.7836 43.9888 35.1 44.4382 35.7076 45.0458C36.6697 46.0078 37.7709 46.5964 39.1507 46.8875C40.0178 47.0711 41.8659 46.9318 42.3469 46.647C42.7077 46.4382 42.8786 45.9192 42.7204 45.5078C42.6887 45.4128 42.0052 44.6723 41.214 43.8749C40.2963 42.9508 39.714 42.3179 39.6254 42.1343C39.5305 41.9445 39.4672 41.6976 39.4482 41.4065C39.3659 40.0141 40.6824 39.0584 42.0115 39.5457C42.3406 39.6723 42.5241 39.8242 43.8659 41.1596C44.6824 41.9698 45.4356 42.666 45.5305 42.6976C45.8027 42.8052 46.0685 42.7799 46.3343 42.6343C46.6318 42.4634 46.752 42.2546 46.866 41.7166C47.5052 38.6786 45.9672 35.6406 43.1381 34.3305C42.2077 33.9001 41.771 33.8178 40.4798 33.8178C39.5431 33.8241 39.233 33.8494 38.7393 33.957L38.138 34.0963L32.8405 28.7988C29.1696 25.1278 27.5493 23.4633 27.5746 23.4C27.7519 22.9506 27.8721 22.0898 27.8784 21.2797C27.8784 20.0961 27.7139 19.343 27.2202 18.3303C26.6063 17.0645 25.4987 15.9379 24.2645 15.3113C23.1822 14.7543 21.7202 14.5075 20.5113 14.6657Z" fill="white"/>
<path d="M44.068 14.6973C43.7453 14.8429 38.9794 17.7037 38.8148 17.8556C38.4351 18.1974 38.3718 18.7354 38.6693 19.1341C38.7642 19.267 38.9098 19.4379 38.9857 19.5012L39.125 19.6278L35.9414 22.8113L32.7578 25.9949L34.1059 27.3367L35.4477 28.6848L38.6313 25.5012L41.8149 22.3177L42.0301 22.5518C42.4478 22.9886 42.7199 23.1468 43.0427 23.1468C43.587 23.1468 43.6313 23.0898 45.2389 20.4252C47.0554 17.4189 47.0554 17.4126 46.9985 17.0328C46.9605 16.7607 46.8909 16.672 46.125 15.8872C45.663 15.4189 45.1883 14.9505 45.0554 14.8492C44.7769 14.6214 44.3655 14.5581 44.068 14.6973Z" fill="white"/>
<path d="M20.0304 36.261C15.4544 40.8433 15.2646 41.0458 15.0431 41.5015C14.3025 43.0269 14.5747 44.6915 15.7582 45.875C16.7772 46.894 18.2013 47.2484 19.5621 46.8244C20.4229 46.5522 20.4608 46.5206 25.4356 41.5459L30.1318 36.8496L27.4546 34.1724L24.7837 31.5015L20.0304 36.261ZM25.6191 35.6471C25.9419 35.7863 26.0621 35.9002 26.1761 36.2167C26.2647 36.4382 26.271 36.5268 26.2077 36.761C26.1444 37.0078 25.8216 37.3496 23.1507 40.0269C21.5115 41.6724 20.0747 43.0649 19.9671 43.1155C19.157 43.5016 18.3216 42.6661 18.7076 41.856C18.8469 41.5648 24.6697 35.7673 24.9419 35.6534C25.2267 35.5331 25.3343 35.5268 25.6191 35.6471Z" fill="white"/>
</svg>
