<svg width="61" height="61" viewBox="0 0 61 61" fill="none" xmlns="http://www.w3.org/2000/svg">
<rect x="1" y="1" width="59" height="59" rx="6" fill="white" stroke="#F98341" stroke-width="2"/>
<rect x="5" y="5" width="51" height="51" rx="4" fill="#F98341"/>
<path d="M30.2815 15.552C29.9216 15.7353 29.7111 16.1019 29.7111 16.5568C29.7111 17.7857 29.3309 19.938 28.8489 21.4249C27.9798 24.1271 26.9071 25.3764 24.3678 26.646L23.6006 27.0262V34.6984V42.3637L24.6394 42.7032C25.9973 43.1445 26.7781 43.3618 27.7354 43.5587C29.6432 43.9457 30.5055 44 35.1088 44C39.4405 44 39.5491 43.9864 40.3096 43.5858C40.7033 43.3754 41.2737 42.8526 41.5249 42.4724C41.8915 41.9292 42.0341 40.8836 41.844 40.1436L41.7489 39.7973L41.9934 39.7158C42.8285 39.4375 43.5889 38.6159 43.8605 37.6926C43.9963 37.2377 44.003 36.4704 43.874 36.0495L43.779 35.744L44.2203 35.5471C44.8585 35.2687 45.4017 34.7391 45.714 34.1009C45.9313 33.646 45.9652 33.5102 45.9924 32.9263C46.0263 32.1591 45.8837 31.6024 45.4967 31.0592C45.3677 30.8827 45.2863 30.7062 45.3066 30.6654C45.3338 30.6247 45.4221 30.4957 45.5103 30.3803C45.5918 30.2716 45.7412 29.9661 45.843 29.7013C45.9992 29.2871 46.0127 29.1581 45.9924 28.5878C45.972 28.0379 45.9381 27.8749 45.7547 27.5015C45.3677 26.6868 44.6888 26.0961 43.7722 25.7906C43.3309 25.6412 43.2426 25.6412 39.0671 25.614L34.8033 25.5937L34.9323 25.3424C35.3668 24.4734 35.781 21.8662 35.7877 19.9312C35.7877 19.0418 35.7674 18.777 35.6587 18.4715C35.1835 17.0728 34.199 16.0748 32.875 15.647C32.4337 15.5045 32.1554 15.4637 31.4425 15.4366C30.6481 15.4094 30.5327 15.423 30.2815 15.552Z" fill="white"/>
<path d="M16.2271 25.6616C15.9555 25.7295 15.7383 25.8857 15.5821 26.1233C15.4599 26.3066 15.4531 26.6597 15.4531 34.8071V43.3008L15.6093 43.5316C15.9216 44.0001 15.9623 44.0069 18.5559 43.9865C20.7761 43.9661 20.8847 43.9594 21.0613 43.8236C21.1631 43.7489 21.3125 43.5995 21.3872 43.4977C21.5297 43.3144 21.5297 43.2736 21.5501 34.9157L21.5637 26.5171L21.4143 26.2116C21.1224 25.6413 21.0952 25.6345 18.6102 25.6209C17.4153 25.6141 16.3426 25.6345 16.2271 25.6616Z" fill="white"/>
</svg>
