<svg width="61" height="61" viewBox="0 0 61 61" fill="none" xmlns="http://www.w3.org/2000/svg">
<rect x="1" y="1.00098" width="59" height="59" rx="6" fill="white" stroke="#F98341" stroke-width="2"/>
<rect x="5" y="5.00098" width="51" height="51" rx="4" fill="#F98341"/>
<path d="M46.1235 13.9944C46.1033 14.0213 44.8311 17.4542 43.2964 21.6208C41.755 25.7873 40.4828 29.2404 40.4626 29.2942C40.4357 29.3616 40.2607 29.4221 39.9578 29.4693C39.3789 29.5635 38.8741 29.7923 38.3894 30.1895L38.0125 30.4991L37.2249 30.2231C36.2691 29.8933 35.6633 29.8597 34.9431 30.102C34.4517 30.2635 33.819 30.6943 33.5497 31.0511C33.2536 31.4415 32.6545 32.8079 32.7555 32.8819C32.7689 32.8954 35.7037 33.9656 39.2779 35.2648C42.8522 36.5639 45.8206 37.6476 45.8812 37.6745C45.9687 37.7082 46.036 37.6072 46.1975 37.1427C46.6149 35.9984 46.6216 35.2984 46.2177 34.4368C45.8273 33.6089 45.2013 33.1041 44.0234 32.6867C43.7272 32.5858 43.4647 32.4646 43.4378 32.4309C43.4108 32.3906 43.3839 32.2492 43.3839 32.1146C43.3839 31.603 43.0272 30.8491 42.556 30.3443L42.3204 30.0952L45.134 22.4756C46.6822 18.2821 47.9678 14.8089 47.9947 14.7483C48.0284 14.6608 47.8803 14.58 47.2072 14.331C46.7495 14.1627 46.3322 14.0079 46.2716 13.9809C46.2043 13.9607 46.1437 13.9607 46.1235 13.9944Z" fill="white"/>
<path d="M23.7291 25.747C23.7291 26.1172 23.4801 26.9855 23.2445 27.4298C22.9618 27.975 22.1406 28.7962 21.5953 29.0789C21.1511 29.3145 20.2828 29.5636 19.9126 29.5636H19.6904V30.5732V31.5829H19.8789C20.2693 31.5896 21.0232 31.7916 21.5078 32.0339C22.1338 32.3368 22.9214 33.1041 23.2445 33.7167C23.4801 34.1609 23.7291 35.0292 23.7291 35.3995V35.6216H24.7388H25.7484V35.3995C25.7484 35.0292 25.9975 34.1609 26.2331 33.7167C26.5562 33.1109 27.337 32.3503 27.9697 32.0339C28.4476 31.7916 29.2015 31.5896 29.6054 31.5829H29.7871V30.5732V29.5636H29.565C29.1948 29.5636 28.3265 29.3145 27.8822 29.0789C27.337 28.7962 26.5158 27.975 26.2331 27.4298C25.9975 26.9855 25.7484 26.1172 25.7484 25.747V25.5249H24.7388H23.7291V25.747Z" fill="white"/>
<path d="M31.8471 35.1772C31.2884 36.436 30.023 37.6476 28.697 38.1726C27.62 38.6034 26.7853 38.7044 25.3112 38.563C24.7593 38.5091 24.2948 38.4688 24.2813 38.4822C24.2477 38.5091 25.015 40.2996 25.3179 40.8987C26.1795 42.5949 27.1757 43.7258 28.5489 44.5537C29.3499 45.0383 30.373 45.422 31.3221 45.5836L31.8067 45.6711V46.2634V46.849L32.5337 47.0913C33.678 47.475 34.1492 47.5491 35.2194 47.5423C36.3435 47.5423 37.2051 47.4144 38.1138 47.125C39.4937 46.6875 40.6784 45.9807 41.7352 44.9643C42.4958 44.2441 43.0612 43.5036 43.7949 42.2853C44.3132 41.4237 45.2421 39.6063 45.195 39.5659C45.1411 39.5255 32.1366 34.8138 32.076 34.8138C32.0356 34.8138 31.9346 34.9753 31.8471 35.1772Z" fill="white"/>
<path d="M17.6445 38.0649C17.5031 39.3573 16.6752 40.5622 15.504 41.1747C15.0261 41.4305 14.1712 41.6795 13.7876 41.6795H13.5654V42.6757V43.6719L14.0905 43.746C15.8271 44.0018 17.2272 45.274 17.5704 46.9164C17.6243 47.1654 17.6714 47.4481 17.6714 47.5491V47.7375H18.6811H19.6908V47.5154C19.6908 47.1452 19.9398 46.2769 20.1754 45.8326C20.4985 45.2268 21.2793 44.4662 21.912 44.1499C22.3899 43.9075 23.1438 43.7056 23.5477 43.6989H23.7294V42.6892V41.6795H23.5073C23.1371 41.6795 22.2688 41.4305 21.8245 41.1949C21.2793 40.9122 20.4581 40.091 20.1754 39.5458C19.9398 39.1015 19.6908 38.2332 19.6908 37.863V37.6409H18.6878H17.6849L17.6445 38.0649Z" fill="white"/>
</svg>
