<svg width="61" height="61" viewBox="0 0 61 61" fill="none" xmlns="http://www.w3.org/2000/svg">
<rect x="1" y="0.999512" width="59" height="59" rx="6" fill="white" stroke="#F98341" stroke-width="2"/>
<rect x="5" y="4.99951" width="51" height="51" rx="4" fill="#F98341"/>
<path d="M25.8096 15.9936C25.4282 16.1812 25.3282 16.4001 25.3094 17.1191L25.2844 17.7632H22.8458C20.1508 17.7632 20.1195 17.7694 19.8382 18.1634C19.7069 18.351 19.7006 18.4197 19.6818 19.9329L19.6631 21.5149H32.8316H46.0001L45.9813 19.9329C45.9563 17.6006 46.1876 17.7632 42.8111 17.7632H40.3663V17.1942C40.3663 16.2813 40.0974 15.9186 39.4283 15.9186C38.7593 15.9186 38.4904 16.2813 38.4904 17.1942V17.7632H36.1143H33.7382V17.1942C33.7382 16.2813 33.4694 15.9186 32.8003 15.9186C32.1313 15.9186 31.8624 16.2813 31.8624 17.1942V17.7632H29.5176H27.1728V17.1817C27.1728 16.7002 27.1477 16.5689 27.0289 16.3625C26.7851 15.9311 26.2598 15.7685 25.8096 15.9936Z" fill="white"/>
<path d="M19.5818 24.1787C19.3379 28.8309 17.4183 33.583 14.6358 36.4218C14.3419 36.7282 14.0668 37.0471 14.0355 37.1284C13.8854 37.5348 14.0918 38.0726 14.4794 38.2789C14.6858 38.3915 15.1422 38.3977 27.1602 38.3977C39.3345 38.3977 39.6284 38.3977 39.8535 38.2789C39.9785 38.2101 40.2849 37.9538 40.5288 37.6974C42.2546 35.9278 43.799 33.2891 44.7057 30.5629C45.3622 28.5995 45.8124 26.2109 45.9125 24.2163L45.95 23.3909H32.7878H19.6255L19.5818 24.1787Z" fill="white"/>
<path d="M45.8121 32.9951C44.9617 35.0711 43.361 37.5097 41.8603 39.0166C41.1787 39.6919 40.8723 39.9233 40.3784 40.1109L40.022 40.2422L29.8423 40.2609L19.6689 40.2734V41.7804C19.6689 43.1623 19.6815 43.2998 19.794 43.5249C19.8753 43.6875 20.0066 43.8188 20.1692 43.9001C20.413 44.0251 20.5131 44.0251 32.8312 44.0251C45.1493 44.0251 45.2493 44.0251 45.4932 43.9001C45.6558 43.8188 45.7871 43.6875 45.8684 43.5249C45.9934 43.2811 45.9934 43.1873 45.9809 37.9536L45.9622 32.6262L45.8121 32.9951Z" fill="white"/>
</svg>
