<svg width="61" height="61" viewBox="0 0 61 61" fill="none" xmlns="http://www.w3.org/2000/svg">
<rect x="1" y="0.999512" width="59" height="59" rx="6" fill="white" stroke="#F98341" stroke-width="2"/>
<rect x="5" y="4.99951" width="51" height="51" rx="4" fill="#F98341"/>
<path d="M18.5854 15.0599C17.6293 15.202 16.964 15.5444 16.2599 16.255C15.6527 16.8557 15.3232 17.4242 15.1294 18.2058C15.0067 18.6967 15.0002 18.968 15.0002 29.465C15.0002 41.4607 14.9744 40.6791 15.4589 41.6739C15.8206 42.4103 16.5506 43.1467 17.2611 43.4955C18.2172 43.9671 17.2288 43.9348 30.9428 43.9218L43.2679 43.9025L43.7523 43.6635C44.3531 43.3663 44.773 42.94 45.0572 42.3328L45.2639 41.9L45.2833 40.1752L45.3027 38.4569L43.087 38.4246C40.7034 38.3988 40.4321 38.3665 39.5342 37.9789C37.9774 37.3265 36.7307 36.0669 36.1299 34.5617C35.7875 33.7091 35.71 33.2763 35.71 32.2427C35.71 31.2092 35.7875 30.7764 36.1299 29.9237C36.7048 28.4767 37.9903 27.1589 39.4179 26.5517C40.445 26.1189 40.6517 26.0866 43.087 26.0608L45.3027 26.0285L45.2833 24.3102L45.2639 22.5855L45.0572 22.1527C44.773 21.5455 44.3531 21.1191 43.7523 20.822L43.2679 20.583L42.2343 20.5507L41.1943 20.5184L41.162 18.8066C41.1232 16.9785 41.1039 16.8557 40.755 16.3131C40.5483 15.9772 40.0186 15.4927 39.6763 15.3183C39.0303 14.9889 39.2629 14.9953 28.7271 15.0018C23.3268 15.0083 18.7662 15.0341 18.5854 15.0599ZM38.436 19.1425L38.4166 20.5184H28.5979H18.7792L18.4885 20.3569C18.0557 20.1114 17.8231 19.7367 17.7908 19.2329C17.7585 18.7743 17.8813 18.4577 18.2107 18.1477C18.6241 17.7536 17.9265 17.7795 28.6496 17.773H38.4489L38.436 19.1425Z" fill="white"/>
<path d="M40.9689 28.2053C39.4702 28.5283 38.146 29.8654 37.8359 31.3705C37.3967 33.4635 38.624 35.5499 40.6782 36.2024C41.1174 36.338 41.2079 36.3445 44.2762 36.3445C47.3511 36.3445 47.4221 36.3445 47.5965 36.2088C47.6934 36.1378 47.8355 35.9957 47.9066 35.8988C48.0422 35.7244 48.0422 35.6533 48.0422 32.2426C48.0422 28.8319 48.0422 28.7608 47.9066 28.5864C47.8355 28.4895 47.6934 28.3474 47.5965 28.2763C47.4221 28.1471 47.3381 28.1407 44.4054 28.1278C42.0218 28.1213 41.2983 28.1342 40.9689 28.2053ZM42.6096 31.0798C42.7388 31.1703 42.9262 31.3576 43.0231 31.4933C43.1781 31.7193 43.1975 31.8098 43.1975 32.2426C43.1975 32.6754 43.1781 32.7658 43.0231 32.9919C42.9262 33.1276 42.7388 33.3149 42.6032 33.4053C42.4029 33.541 42.2931 33.5668 41.8732 33.5668C41.4534 33.5668 41.3435 33.541 41.1433 33.4053C41.0076 33.3149 40.8203 33.1276 40.7234 32.9919C40.5684 32.7658 40.549 32.6754 40.549 32.2361C40.549 31.7839 40.5684 31.7129 40.7428 31.461C41.0335 31.0475 41.4146 30.8731 41.9443 30.899C42.2673 30.9183 42.4288 30.9636 42.6096 31.0798Z" fill="white"/>
</svg>
