<svg width="61" height="62" viewBox="0 0 61 62" fill="none" xmlns="http://www.w3.org/2000/svg">
<rect x="1" y="1.99854" width="59" height="59" rx="6" fill="white" stroke="#F98341" stroke-width="2"/>
<rect x="5" y="5.99854" width="51" height="51" rx="4" fill="#F98341"/>
<path d="M23.3237 14.7597C22.7879 14.8936 22.386 15.1233 21.9778 15.5315C21.5632 15.9461 21.308 16.399 21.1932 16.954C21.1422 17.19 21.123 18.9824 21.123 22.7587V28.2317L21.7609 28.2062C23.1069 28.1488 24.6569 28.4294 25.9965 28.9653C27.3296 29.4947 28.548 30.3112 29.6196 31.3956L30.2384 32.0207H35.5072C40.6613 32.0207 40.7825 32.0207 41.0249 32.1483C41.312 32.295 41.5352 32.6586 41.5352 32.9775C41.5352 33.2965 41.312 33.6601 41.0249 33.8068C40.7825 33.9343 40.6613 33.9343 36.126 33.9343H31.4695L31.7119 34.4957C32.1201 35.4461 32.4071 36.4795 32.5156 37.398L32.5602 37.7616H36.6682C40.6549 37.7616 40.7825 37.768 41.0249 37.8892C41.312 38.0359 41.5352 38.3995 41.5352 38.7185C41.5352 39.0374 41.312 39.401 41.0249 39.5477C40.7825 39.6689 40.6549 39.6753 36.6682 39.6753H32.5666L32.4837 40.2557C32.1201 42.8328 30.5892 45.4672 28.5607 46.9981L28.1206 47.3298H35.7496C41.1206 47.3298 43.4808 47.3107 43.7168 47.2597C44.8012 47.03 45.7006 46.1242 45.9302 45.0462C45.9812 44.8038 46.0004 41.557 46.0004 33.8387V22.9628H42.2305H38.4606L38.2055 22.8225C38.0524 22.7332 37.8993 22.5801 37.8291 22.4397C37.7143 22.2165 37.7079 22.006 37.7079 18.4339V14.6704L30.6785 14.6767C25.2756 14.6831 23.5661 14.7023 23.3237 14.7597ZM41.0249 26.4074C41.312 26.5541 41.5352 26.9177 41.5352 27.2366C41.5352 27.5555 41.312 27.9191 41.0249 28.0659C40.7761 28.1934 40.6677 28.1934 33.5553 28.1934H26.3409L26.0858 28.0531C25.4415 27.6895 25.4351 26.8156 26.073 26.4329L26.3218 26.2798H33.549C40.6677 26.2798 40.7761 26.2798 41.0249 26.4074Z" fill="white"/>
<path d="M39.6211 18.1467V21.0491H42.5362H45.4577L42.5553 18.1467C40.9606 16.552 39.6466 15.2444 39.6402 15.2444C39.6275 15.2444 39.6211 16.552 39.6211 18.1467Z" fill="white"/>
<path d="M21.1865 30.1453C19.1325 30.4004 17.4166 31.236 15.9877 32.684C14.7184 33.9662 13.9912 35.3312 13.6148 37.1237C13.4617 37.8764 13.4617 39.5604 13.6148 40.3131C13.9912 42.1055 14.7247 43.4769 15.9877 44.7527C17.2699 46.0476 18.6732 46.8067 20.4848 47.183C21.2311 47.3361 22.9087 47.3361 23.6869 47.183C25.4092 46.8386 26.8381 46.0731 28.1138 44.8101C29.4024 43.5407 30.1678 42.1246 30.5442 40.3131C30.6973 39.5604 30.6973 37.8764 30.5442 37.1237C30.2954 35.9436 29.8425 34.8528 29.1919 33.8705C28.79 33.2645 27.5461 32.0142 26.9529 31.6251C25.9259 30.9426 24.816 30.4769 23.7252 30.2664C23.2085 30.1644 21.633 30.0878 21.1865 30.1453ZM25.6516 36.1668C25.9387 36.3136 26.1619 36.6771 26.1619 36.9961C26.1619 37.1045 26.1045 37.2959 26.0407 37.4298C25.8876 37.7233 21.4225 42.1757 21.1418 42.316C20.8675 42.45 20.5932 42.4436 20.3062 42.2969C20.0191 42.1438 18.1119 40.2301 17.9715 39.9495C17.5824 39.1713 18.45 38.3037 19.2282 38.6928C19.343 38.7503 19.7257 39.0883 20.0893 39.4392L20.7399 40.0898L22.6727 38.1634C23.7316 37.1109 24.6884 36.1987 24.7905 36.1413C25.052 36.0074 25.3518 36.0137 25.6516 36.1668Z" fill="white"/>
</svg>
