<svg width="17" height="18" viewBox="0 0 17 18" fill="none" xmlns="http://www.w3.org/2000/svg">
<path d="M1.13317 2.02122L1.13348 2.02081C1.24123 1.87547 1.44827 1.65994 1.6696 1.45373C1.89084 1.24761 2.12224 1.05462 2.27737 0.953325L2.27747 0.953259C3.96058 -0.151544 6.01442 -0.160496 7.78402 0.93171L7.78419 0.931816C7.89811 1.00149 8.02464 1.10318 8.59579 1.65857C9.16546 2.21253 10.1743 3.2145 12.0506 5.07993C13.4585 6.48233 14.4682 7.49199 15.132 8.16271C15.464 8.4981 15.7094 8.74858 15.8748 8.92097C15.9575 9.00721 16.02 9.07366 16.0632 9.12132C16.0849 9.14518 16.1014 9.16401 16.1132 9.1781C16.119 9.18515 16.1235 9.19071 16.1266 9.19492C16.1292 9.19834 16.1303 9.2001 16.1306 9.20056C16.1307 9.20071 16.1307 9.20073 16.1307 9.20064L16.1312 9.20163L16.1312 9.20162C16.2745 9.45623 16.2202 9.81603 16.0137 10.0279C15.9484 10.0931 15.8495 10.1481 15.7368 10.1833C15.6243 10.2185 15.5019 10.2327 15.3918 10.2194L15.3917 10.2194L15.2166 10.1987L11.2174 6.22678L11.2174 6.22676L7.20045 2.24261L7.19148 2.23372L7.19069 2.23507L6.89635 2.06102L6.89613 2.06089C5.78941 1.4141 4.49203 1.38102 3.37277 1.96945C3.22671 2.0462 3.13498 2.09911 3.02753 2.18585C2.92142 2.2715 2.80051 2.38974 2.59461 2.59563C2.38872 2.80152 2.27048 2.92244 2.18483 3.02854C2.09809 3.13599 2.04518 3.22773 1.96843 3.37378L1.96841 3.37383C1.37731 4.50128 1.41308 5.80706 2.07386 6.91127L1.13317 2.02122ZM1.13317 2.02122C-0.0238443 3.54922 -0.203501 5.59463 0.664707 7.31291L0.664787 7.31307C0.684237 7.35191 0.701336 7.387 0.717246 7.41965C0.769794 7.52749 0.809361 7.60868 0.877826 7.7103C0.967032 7.8427 1.10543 8.00953 1.38399 8.30687C1.87417 8.83009 2.79212 9.75095 4.62413 11.5888C4.874 11.8394 5.14088 12.1072 5.426 12.3933L5.42602 12.3933C7.36717 14.3426 8.45941 15.4376 9.09767 16.0663C9.7375 16.6965 9.91825 16.8552 10.0387 16.9362L10.0387 16.9362L10.0391 16.9365C11.0924 17.6607 12.4982 17.777 13.635 17.2322L13.635 17.2322C14.2188 16.9528 14.7095 16.5271 15.0508 16.0067L15.0509 16.0065C15.8154 14.8507 15.8702 13.4928 15.2037 12.2267L15.2036 12.2265L15.0412 11.9143L11.2664 8.12308C9.91218 6.76342 8.95349 5.80473 8.31583 5.17391C7.99698 4.85847 7.75856 4.62517 7.59116 4.46477C7.50744 4.38454 7.44168 4.32274 7.39261 4.27809C7.34262 4.23261 7.31215 4.20698 7.29788 4.19715L7.29784 4.19713C7.17112 4.10975 6.97871 4.02225 6.77417 3.95359C6.56983 3.885 6.3579 3.83672 6.19335 3.82546L6.19315 3.82545C5.84329 3.80006 5.35598 3.90294 5.02363 4.06808C4.81601 4.17397 4.70797 4.25504 4.481 4.48202C4.25403 4.70899 4.17295 4.81703 4.06706 5.02465C3.90192 5.357 3.79904 5.8443 3.82443 6.19416L3.82446 6.1946C3.83432 6.34932 3.88184 6.55773 3.9485 6.76036C4.01519 6.96311 4.09939 7.15501 4.18017 7.27773L4.18054 7.27831C4.1876 7.28938 4.20918 7.31583 4.24959 7.36096C4.2889 7.40485 4.34355 7.4637 4.4141 7.53809C4.55515 7.68682 4.7589 7.89671 5.0287 8.17129C5.56825 8.72041 6.37127 9.52753 7.46369 10.62C8.98474 12.141 9.77992 12.9348 10.2145 13.3557C10.432 13.5664 10.558 13.6825 10.639 13.7495C10.719 13.8156 10.7523 13.8314 10.7847 13.8435L10.7851 13.8436C10.9724 13.9151 11.1923 13.8916 11.3888 13.7732L11.389 13.7731C11.6557 13.6137 11.7809 13.2791 11.6847 12.9677C11.6847 12.9676 11.6846 12.9675 11.6846 12.9675L11.6301 12.7953L8.55011 9.71538C7.47695 8.64222 6.69845 7.85962 6.1813 7.3329C5.92275 7.06956 5.72933 6.86999 5.59702 6.72997C5.53089 6.65999 5.47977 6.60461 5.44332 6.56346C5.42511 6.5429 5.41029 6.52559 5.39898 6.5116C5.38845 6.49857 5.37908 6.48615 5.37332 6.47594C5.18838 6.1516 5.23617 5.76203 5.49859 5.49961C5.7697 5.2285 6.15988 5.18677 6.49235 5.38592L6.49246 5.38598C6.51118 5.39726 6.54368 5.42468 6.58731 5.46396C6.6326 5.50473 6.69381 5.56196 6.77192 5.63655C6.92818 5.7858 7.15305 6.00553 7.45529 6.30436C8.05984 6.90207 8.97469 7.81692 10.271 9.11873L13.8859 12.75L13.8925 12.7567L13.8963 12.7652L14.0068 13.0176C14.0068 13.0177 14.0069 13.0178 14.0069 13.0179C14.0714 13.16 14.1445 13.3603 14.1732 13.4678L14.1733 13.4683C14.2878 13.9141 14.2202 14.5382 14.0134 14.9542L14.0132 14.9545C13.9334 15.1123 13.7664 15.3164 13.5841 15.4988C13.4017 15.6812 13.1975 15.8481 13.0398 15.9279L13.0396 15.9281C12.452 16.2215 11.6556 16.2066 11.0453 15.8871L11.0453 15.8871L10.7922 15.7544L10.7855 15.7508L10.7801 15.7455L6.52334 11.4887L2.26656 7.23189L2.26544 7.23301L2.25895 7.22212L2.07392 6.91137L1.13317 2.02122ZM5.39145 12.4277L5.39059 12.4286L5.39145 12.4277Z" fill="#1F2337" stroke="white" stroke-width="0.1"/>
</svg>
