<svg width="54" height="54" viewBox="0 0 54 54" fill="none" xmlns="http://www.w3.org/2000/svg">
<circle cx="27" cy="27" r="27" fill="url(#paint0_linear_5_1229)"/>
<path d="M24.8839 17.1161C24.3957 16.628 23.6043 16.628 23.1161 17.1161C22.628 17.6043 22.628 18.3957 23.1161 18.8839L24.8839 17.1161ZM33 27L33.8839 27.8839L34.7678 27L33.8839 26.1161L33 27ZM23.1161 35.1161C22.628 35.6043 22.628 36.3957 23.1161 36.8839C23.6043 37.372 24.3957 37.372 24.8839 36.8839L23.1161 35.1161ZM23.1161 18.8839L32.1161 27.8839L33.8839 26.1161L24.8839 17.1161L23.1161 18.8839ZM32.1161 26.1161L23.1161 35.1161L24.8839 36.8839L33.8839 27.8839L32.1161 26.1161Z" fill="#F5F7FB"/>
<defs>
<linearGradient id="paint0_linear_5_1229" x1="27" y1="0" x2="27" y2="54" gradientUnits="userSpaceOnUse">
<stop stop-color="#FF894E"/>
<stop offset="0.932292" stop-color="#F56014"/>
<stop offset="1" stop-color="#DA5D1F"/>
</linearGradient>
</defs>
</svg>
