<svg width="345" height="99" viewBox="0 0 345 99" fill="none" xmlns="http://www.w3.org/2000/svg">
<mask id="path-1-inside-1_2_1082" fill="white">
<path fill-rule="evenodd" clip-rule="evenodd" d="M38.0087 1.02254C37.2828 0.45752 36.2915 1.25868 36.5371 2.21184L39.5747 13.9999H10C4.47715 13.9999 0 18.4771 0 23.9999V88.9999C0 94.5228 4.47715 98.9999 10 98.9999H335C340.523 98.9999 345 94.5228 345 88.9999V23.9999C345 18.4771 340.523 13.9999 335 13.9999H54.6802L38.0087 1.02254Z"/>
</mask>
<path d="M36.5371 2.21184L34.6004 2.7109L34.6004 2.7109L36.5371 2.21184ZM38.0087 1.02254L36.7802 2.60076L36.7802 2.60076L38.0087 1.02254ZM39.5747 13.9999V15.9999H42.1554L41.5115 13.5009L39.5747 13.9999ZM54.6802 13.9999L53.4517 15.5781L53.9936 15.9999H54.6802V13.9999ZM38.4739 1.71278C38.5588 2.04225 38.4285 2.39099 38.1657 2.60337C38.0316 2.71177 37.823 2.81777 37.5481 2.83293C37.2505 2.84934 36.9744 2.752 36.7802 2.60076L39.2372 -0.555676C38.0212 -1.50223 36.5568 -1.23934 35.6514 -0.507624C34.7729 0.202367 34.2699 1.42827 34.6004 2.7109L38.4739 1.71278ZM41.5115 13.5009L38.4739 1.71277L34.6004 2.7109L37.638 14.499L41.5115 13.5009ZM10 15.9999H39.5747V11.9999H10V15.9999ZM2 23.9999C2 19.5816 5.58172 15.9999 10 15.9999V11.9999C3.37258 11.9999 -2 17.3725 -2 23.9999H2ZM2 88.9999V23.9999H-2V88.9999H2ZM10 96.9999C5.58172 96.9999 2 93.4182 2 88.9999H-2C-2 95.6273 3.37258 101 10 101V96.9999ZM335 96.9999H10V101H335V96.9999ZM343 88.9999C343 93.4182 339.418 96.9999 335 96.9999V101C341.627 101 347 95.6273 347 88.9999H343ZM343 23.9999V88.9999H347V23.9999H343ZM335 15.9999C339.418 15.9999 343 19.5816 343 23.9999H347C347 17.3725 341.627 11.9999 335 11.9999V15.9999ZM54.6802 15.9999H335V11.9999H54.6802V15.9999ZM36.7802 2.60076L53.4517 15.5781L55.9087 12.4217L39.2372 -0.555676L36.7802 2.60076Z" fill="#F86B24" mask="url(#path-1-inside-1_2_1082)"/>
</svg>
