<svg width="377" height="90" viewBox="0 0 377 90" fill="none" xmlns="http://www.w3.org/2000/svg">
<mask id="path-1-inside-1_2_333" fill="white">
<path fill-rule="evenodd" clip-rule="evenodd" d="M2.08765 0.69248C1.18965 0.493156 0.637494 1.6419 1.26798 2.39776L13 16.4626V80C13 85.5228 17.4771 90 23 90H367C372.523 90 377 85.5228 377 80V15C377 9.47715 372.523 5 367 5H23C22.5972 5 22.2001 5.02381 21.8098 5.07009L2.08765 0.69248Z"/>
</mask>
<path d="M1.26798 2.39776L-0.267851 3.67886L1.26798 2.39776ZM2.08765 0.69248L1.65427 2.64496H1.65427L2.08765 0.69248ZM13 16.4626H15V15.7379L14.5358 15.1815L13 16.4626ZM21.8098 5.07009L21.3764 7.02257L21.708 7.09618L22.0453 7.05617L21.8098 5.07009ZM2.80382 1.11666C3.02176 1.37794 3.05359 1.74884 2.90721 2.05336C2.83251 2.20879 2.68945 2.39399 2.44763 2.52551C2.18579 2.66792 1.89464 2.69831 1.65427 2.64496L2.52103 -1.26C1.01666 -1.59392 -0.193642 -0.728685 -0.697944 0.320493C-1.18727 1.33852 -1.11628 2.66173 -0.267851 3.67886L2.80382 1.11666ZM14.5358 15.1815L2.80382 1.11666L-0.267851 3.67886L11.4641 17.7437L14.5358 15.1815ZM15 80V16.4626H11V80H15ZM23 88C18.5817 88 15 84.4183 15 80H11C11 86.6274 16.3726 92 23 92V88ZM367 88H23V92H367V88ZM375 80C375 84.4183 371.418 88 367 88V92C373.627 92 379 86.6274 379 80H375ZM375 15V80H379V15H375ZM367 7C371.418 7 375 10.5817 375 15H379C379 8.37258 373.627 3 367 3V7ZM23 7H367V3H23V7ZM22.0453 7.05617C22.3576 7.01914 22.6761 7 23 7V3C22.5184 3 22.0425 3.02847 21.5742 3.08401L22.0453 7.05617ZM1.65427 2.64496L21.3764 7.02257L22.2432 3.11761L2.52103 -1.26L1.65427 2.64496Z" fill="#F86B24" mask="url(#path-1-inside-1_2_333)"/>
</svg>
