<svg width="47" height="42" viewBox="0 0 47 42" fill="none" xmlns="http://www.w3.org/2000/svg">
<path d="M11.4474 0.832348C8.55157 1.19546 6.1278 2.38465 4.07623 4.45438C2.23344 6.30624 1.12596 8.26704 0.490514 10.8179C-0.635129 15.2388 0.18187 19.5961 2.88704 23.6902C4.6209 26.3136 6.8631 28.7192 10.9753 32.3867C13.5897 34.7196 21.5691 41.528 21.9594 41.7549C22.3225 41.9728 22.4587 42 23.2303 42C24.0019 42 24.1381 41.9728 24.5012 41.7549C24.8915 41.528 32.889 34.7106 35.4853 32.3867C39.6157 28.7011 41.8397 26.3045 43.5736 23.6902C46.2788 19.5961 47.0957 15.2388 45.9701 10.8179C45.3347 8.26704 44.2272 6.30624 42.3844 4.45438C40.5507 2.61159 38.5899 1.54949 36.0209 1.00483C34.7318 0.732494 32.3535 0.705261 31.2278 0.959438C28.0869 1.64027 25.6813 3.21072 23.4845 6.00667L23.2303 6.32439L22.9852 6.00667C20.8156 3.26519 18.4463 1.69474 15.4234 1.00483C14.5247 0.796036 12.455 0.705261 11.4474 0.832348ZM14.4793 3.60107C17.0574 4.05495 19.2815 5.5437 21.0426 8.00378C21.3421 8.43044 21.7143 8.93879 21.8596 9.14758C22.5313 10.0917 23.9293 10.0917 24.6011 9.14758C24.7463 8.93879 25.1185 8.43044 25.4181 8.00378C27.8237 4.64501 31.1734 3.06548 34.8226 3.56475C38.8713 4.1185 42.0304 6.95076 43.2377 11.1175C44.1909 14.4127 43.7733 17.8713 42.0394 20.985C40.587 23.5903 38.1632 26.3227 33.9421 30.1081C31.8996 31.9328 23.312 39.3221 23.2303 39.3221C23.1395 39.3221 14.5883 31.96 12.5185 30.1081C6.02795 24.2893 3.46802 20.6582 2.85073 16.4007C2.45131 13.6501 3.02321 10.6908 4.41211 8.35781C6.49999 4.84472 10.5668 2.92023 14.4793 3.60107Z" fill="#F86B24"/>
</svg>
