<svg width="13" height="22" viewBox="0 0 13 22" fill="none" xmlns="http://www.w3.org/2000/svg">
<path d="M2.88388 1.11612C2.39573 0.627961 1.60427 0.627961 1.11612 1.11612C0.627961 1.60427 0.627961 2.39573 1.11612 2.88388L2.88388 1.11612ZM11 11L11.8839 11.8839L12.7678 11L11.8839 10.1161L11 11ZM1.11612 19.1161C0.627961 19.6043 0.627961 20.3957 1.11612 20.8839C1.60427 21.372 2.39573 21.372 2.88388 20.8839L1.11612 19.1161ZM1.11612 2.88388L10.1161 11.8839L11.8839 10.1161L2.88388 1.11612L1.11612 2.88388ZM10.1161 10.1161L1.11612 19.1161L2.88388 20.8839L11.8839 11.8839L10.1161 10.1161Z" fill="#F5F7FB"/>
</svg>
