<svg width="393" height="77" viewBox="0 0 393 77" fill="none" xmlns="http://www.w3.org/2000/svg">
<path d="M9.81165 58.0013C5.66506 53.8158 3.59177 48.7348 3.59177 42.7582C3.59177 36.7817 5.66506 31.7007 9.81165 27.5151C13.9582 23.3296 18.9614 21.2368 24.8211 21.2368C26.9431 21.2368 28.9775 21.5483 30.9242 22.1713C32.871 22.7748 34.4771 23.5243 35.7424 24.4198C37.0273 25.2958 38.1467 26.1719 39.1006 27.0479C40.074 27.924 40.7748 28.654 41.2031 29.238L41.8747 30.2017L39.7722 32.0121C39.6554 31.8175 39.4607 31.5352 39.1882 31.1653C38.9351 30.7954 38.3511 30.1627 37.4361 29.2672C36.5211 28.3717 35.5186 27.593 34.4284 26.9311C33.3577 26.2497 31.956 25.6268 30.2234 25.0622C28.4908 24.4977 26.69 24.2154 24.8211 24.2154C19.7206 24.2154 15.3988 26.0064 11.8557 29.5884C8.33212 33.151 6.5703 37.5409 6.5703 42.7582C6.5703 47.9755 8.33212 52.3752 11.8557 55.9572C15.3988 59.5198 19.7206 61.3011 24.8211 61.3011C26.729 61.3011 28.5492 61.0383 30.2818 60.5127C32.0144 59.9676 33.4453 59.3154 34.5744 58.5562C35.723 57.7969 36.7256 57.0377 37.5821 56.2785C38.4387 55.5192 39.0714 54.8865 39.4802 54.3804L40.0642 53.5335L42.1667 55.3148C42.011 55.5484 41.7677 55.8696 41.4367 56.2785C41.1252 56.6873 40.4147 57.4076 39.305 58.4394C38.2148 59.4711 37.0468 60.3861 35.8008 61.1843C34.5744 61.9825 32.9586 62.7028 30.9534 63.3452C28.9677 63.9681 26.9236 64.2796 24.8211 64.2796C18.9614 64.2796 13.9582 62.1869 9.81165 58.0013ZM51.774 59.9286C48.9512 57.0085 47.5398 53.4751 47.5398 49.3285C47.5398 45.182 48.9512 41.6583 51.774 38.7577C54.6162 35.8375 57.9841 34.3775 61.8776 34.3775C65.7906 34.3775 69.1585 35.8375 71.9813 38.7577C74.8236 41.6583 76.2447 45.182 76.2447 49.3285C76.2447 53.4751 74.8236 57.0085 71.9813 59.9286C69.1585 62.8293 65.7906 64.2796 61.8776 64.2796C57.9841 64.2796 54.6162 62.8293 51.774 59.9286ZM70.1124 58.0305C72.4096 55.636 73.5582 52.7451 73.5582 49.3577C73.5582 45.9509 72.4096 43.06 70.1124 40.6849C67.8347 38.2904 65.0995 37.0932 61.9068 37.0932C58.7142 37.0932 55.9692 38.2904 53.6721 40.6849C51.3749 43.06 50.2263 45.9509 50.2263 49.3577C50.2263 52.7451 51.3749 55.636 53.6721 58.0305C55.9692 60.4056 58.7142 61.5931 61.9068 61.5931C65.0995 61.5931 67.8347 60.4056 70.1124 58.0305ZM123.492 63.6956V46.642C123.492 43.7219 122.724 41.4052 121.186 39.6921C119.667 37.9595 117.75 37.0932 115.433 37.0932C112.961 37.0932 110.897 38.0374 109.242 39.9257C107.587 41.8141 106.76 44.3546 106.76 47.5473V63.6956H104.074V46.642C104.074 43.7219 103.305 41.4052 101.767 39.6921C100.229 37.9595 98.3015 37.0932 95.9848 37.0932C93.5124 37.0932 91.4489 38.0374 89.7941 39.9257C88.1394 41.8141 87.312 44.3546 87.312 47.5473V63.6956H84.6255V34.9907H87.312V39.1665C87.3899 39.0497 87.4872 38.8842 87.604 38.6701C87.7403 38.4559 88.0518 38.0666 88.5385 37.502C89.0446 36.9374 89.5995 36.4507 90.203 36.0419C90.8259 35.6136 91.6533 35.234 92.6851 34.9031C93.7363 34.5527 94.8362 34.3775 95.9848 34.3775C97.3475 34.3775 98.5935 34.6111 99.7226 35.0783C100.871 35.5455 101.786 36.1003 102.468 36.7428C103.168 37.3657 103.752 37.9984 104.22 38.6408C104.706 39.2833 105.057 39.8186 105.271 40.2469L105.563 40.977C105.641 40.8212 105.738 40.5973 105.855 40.3053C105.972 39.9938 106.303 39.4585 106.848 38.6993C107.393 37.94 107.987 37.2781 108.629 36.7136C109.291 36.1295 110.225 35.5942 111.432 35.1075C112.659 34.6208 113.992 34.3775 115.433 34.3775C118.509 34.3775 121.069 35.4774 123.113 37.6772C125.157 39.877 126.179 42.8653 126.179 46.642V63.6956H123.492ZM147.73 34.9907V37.6772H140.546V63.6956H137.86V37.6772H133.071V34.9907H137.86V29.0044C137.86 26.4931 138.483 24.5755 139.728 23.2517C140.994 21.9085 142.765 21.2368 145.043 21.2368C145.686 21.2368 146.318 21.3147 146.941 21.4705C147.584 21.6262 148.07 21.7819 148.401 21.9377L148.927 22.1421V24.8286C147.739 24.2251 146.445 23.9234 145.043 23.9234C143.68 23.9234 142.59 24.3614 141.773 25.2374C140.955 26.1135 140.546 27.3691 140.546 29.0044V34.9907H147.73ZM156.724 59.9286C153.901 57.0085 152.489 53.4751 152.489 49.3285C152.489 45.182 153.901 41.6583 156.724 38.7577C159.566 35.8375 162.934 34.3775 166.827 34.3775C170.74 34.3775 174.108 35.8375 176.931 38.7577C179.773 41.6583 181.194 45.182 181.194 49.3285C181.194 53.4751 179.773 57.0085 176.931 59.9286C174.108 62.8293 170.74 64.2796 166.827 64.2796C162.934 64.2796 159.566 62.8293 156.724 59.9286ZM175.062 58.0305C177.359 55.636 178.508 52.7451 178.508 49.3577C178.508 45.9509 177.359 43.06 175.062 40.6849C172.784 38.2904 170.049 37.0932 166.856 37.0932C163.664 37.0932 160.919 38.2904 158.622 40.6849C156.325 43.06 155.176 45.9509 155.176 49.3577C155.176 52.7451 156.325 55.636 158.622 58.0305C160.919 60.4056 163.664 61.5931 166.856 61.5931C170.049 61.5931 172.784 60.4056 175.062 58.0305ZM203.621 34.3775V37.0932H202.424C199.64 37.0932 197.245 38.0666 195.24 40.0133C193.254 41.9601 192.262 44.4714 192.262 47.5473V63.6956H189.575V34.9907H192.262V39.7797C192.34 39.624 192.447 39.4293 192.583 39.1957C192.739 38.9426 193.099 38.5143 193.663 37.9108C194.247 37.2879 194.9 36.733 195.62 36.2463C196.34 35.7597 197.304 35.3314 198.511 34.9615C199.737 34.5721 201.042 34.3775 202.424 34.3775H203.621ZM212.294 32.5962V25.4126H214.688V34.9907H221.259V37.6772H214.688V56.5121C214.688 58.1473 215.097 59.403 215.915 60.279C216.732 61.1551 217.823 61.5931 219.185 61.5931C219.828 61.5931 220.46 61.525 221.083 61.3887C221.726 61.2524 222.203 61.1064 222.514 60.9507L223.069 60.7171V63.4036C221.882 64.0071 220.587 64.2991 219.185 64.2796C216.908 64.2796 215.136 63.6177 213.871 62.2939C212.625 60.9507 212.002 59.0234 212.002 56.5121V37.6772H206.307V34.9907H210.191C210.795 34.9907 211.291 34.7765 211.681 34.3483C212.089 33.9005 212.294 33.3165 212.294 32.5962Z" fill="#1F2337"/>
<path d="M231.099 21.8209H246.664C252.757 21.8209 257.867 23.8455 261.994 27.8948C266.122 31.944 268.185 36.8985 268.185 42.7582C268.185 48.618 266.122 53.5725 261.994 57.6217C257.867 61.671 252.757 63.6956 246.664 63.6956H231.099V21.8209ZM246.664 29.9096H240.093V55.636H246.664C250.129 55.636 253.088 54.3901 255.541 51.8983C257.994 49.4064 259.22 46.3695 259.22 42.7874C259.22 39.1859 258.023 36.1393 255.629 33.6474C253.234 31.1556 250.246 29.9096 246.664 29.9096ZM283.457 43.5175C282.036 45.0165 281.326 46.8659 281.326 49.0657C281.326 51.2461 282.036 53.0858 283.457 54.5848C284.879 56.0643 286.563 56.8041 288.509 56.8041C290.456 56.8041 292.14 56.0643 293.561 54.5848C294.982 53.0858 295.693 51.2461 295.693 49.0657C295.693 46.8659 294.982 45.0165 293.561 43.5175C292.14 42.0185 290.456 41.269 288.509 41.269C286.563 41.269 284.879 42.0185 283.457 43.5175ZM299.401 38.378C302.497 41.415 304.044 44.9678 304.044 49.0365C304.044 53.1052 302.497 56.6678 299.401 59.7242C296.325 62.7612 292.695 64.2796 288.509 64.2796C284.324 64.2796 280.683 62.7612 277.588 59.7242C274.493 56.6678 272.945 53.1052 272.945 49.0365C272.945 44.9678 274.493 41.415 277.588 38.378C280.683 35.3216 284.324 33.7934 288.509 33.7934C292.695 33.7934 296.325 35.3216 299.401 38.378ZM346.503 63.6956V47.5473C346.503 45.6784 346.055 44.2183 345.16 43.1671C344.264 42.0963 343.116 41.561 341.714 41.561C340.157 41.561 338.872 42.1742 337.86 43.4007C336.847 44.6077 336.341 46.2916 336.341 48.4525V63.6956H328.282V47.5473C328.282 45.6784 327.824 44.2183 326.909 43.1671C326.014 42.0963 324.875 41.561 323.492 41.561C321.935 41.561 320.64 42.1742 319.609 43.4007C318.596 44.6077 318.09 46.2916 318.09 48.4525V63.6956H310.031V34.3775H318.09V37.9692C318.285 37.6577 318.587 37.2781 318.995 36.8304C319.404 36.3631 320.271 35.7402 321.594 34.9615C322.938 34.1828 324.369 33.7934 325.887 33.7934C327.036 33.7934 328.116 33.9784 329.128 34.3483C330.141 34.6987 330.949 35.1172 331.552 35.6039C332.156 36.0711 332.671 36.5578 333.1 37.064C333.547 37.5507 333.849 37.979 334.005 38.3488L334.239 38.8745C334.316 38.7577 334.443 38.5824 334.618 38.3488C334.813 38.0958 335.212 37.6869 335.815 37.1224C336.438 36.5384 337.1 36.0225 337.801 35.5747C338.502 35.1075 339.417 34.6987 340.546 34.3483C341.695 33.9784 342.882 33.7934 344.109 33.7934C347.34 33.7934 349.891 34.8836 351.759 37.064C353.648 39.2249 354.592 42.4176 354.592 46.642V63.6956H346.503ZM378.508 63.6956V60.7171C378.274 60.9896 377.943 61.3303 377.515 61.7391C377.106 62.1285 376.201 62.6541 374.799 63.316C373.398 63.9584 371.938 64.2796 370.419 64.2796C367.499 64.2796 365.124 63.4717 363.294 61.8559C361.464 60.2206 360.549 58.2447 360.549 55.928C360.549 53.5335 361.318 51.5381 362.856 49.9418C364.394 48.3454 366.516 47.3039 369.222 46.8172L378.508 45.1527C378.508 43.9263 378.06 42.9237 377.165 42.145C376.269 41.3663 375.023 40.977 373.427 40.977C372.103 40.977 370.896 41.23 369.806 41.7362C368.716 42.2229 367.947 42.729 367.499 43.2547L366.827 43.9555L362.359 39.4877C362.476 39.3319 362.632 39.1275 362.827 38.8745C363.041 38.6019 363.498 38.1444 364.199 37.502C364.919 36.8596 365.698 36.295 366.535 35.8083C367.372 35.3022 368.472 34.8447 369.835 34.4359C371.198 34.0076 372.59 33.7934 374.011 33.7934C377.71 33.7934 380.727 34.9031 383.063 37.1224C385.399 39.3222 386.567 42.0963 386.567 45.4448V63.6956H378.508ZM372.522 57.7093C374.351 57.7093 375.802 57.135 376.873 55.9864C377.963 54.8184 378.508 53.2026 378.508 51.139V50.2338L371.938 51.431C369.738 51.7815 368.638 52.8814 368.638 54.7308C368.638 56.7165 369.932 57.7093 372.522 57.7093Z" fill="#F86B24"/>
<mask id="mask0_2_2146" style="mask-type:alpha" maskUnits="userSpaceOnUse" x="273" y="0" width="83" height="29">
<rect x="273.392" y="-3.05176e-05" width="82.587" height="28.4783" fill="white"/>
</mask>
<g mask="url(#mask0_2_2146)">
<path d="M270.543 25.6305L314.5 8.99994L361.5 26.4999" stroke="#F86B24" stroke-width="5.69565"/>
</g>
</svg>
