<svg width="166" height="18" viewBox="0 0 166 18" fill="none" xmlns="http://www.w3.org/2000/svg">
<path d="M123 9H165M165 9L155 1M165 9L155 17" stroke="#F86B24"/>
<path d="M8.14893 5.29785V13H6.94043V6.39893H4.13672V7.60742C4.13672 8.71387 4.08301 9.63949 3.97559 10.3843C3.86816 11.1291 3.70524 11.6948 3.48682 12.0815C3.27197 12.4683 3.03385 12.7368 2.77246 12.8872C2.51465 13.034 2.19954 13.1074 1.82715 13.1074C1.69466 13.1074 1.55501 13.0931 1.4082 13.0645C1.26139 13.0358 1.14681 13.0072 1.06445 12.9785L0.946289 12.9463V11.7915C1.16471 11.8631 1.36523 11.8989 1.54785 11.8989C1.75911 11.8989 1.93994 11.847 2.09033 11.7432C2.2443 11.6357 2.38932 11.437 2.52539 11.147C2.66146 10.8569 2.76172 10.4165 2.82617 9.82568C2.89062 9.23486 2.92285 8.49544 2.92285 7.60742V5.29785H8.14893ZM17.0031 13H15.7946V7.44629L11.5031 13H10.4611V5.29785H11.6696V10.8569L15.9611 5.29785H17.0031V13ZM22.9461 5.19043C23.3364 5.19043 23.7106 5.24235 24.0686 5.34619C24.4267 5.44645 24.7221 5.56999 24.9549 5.7168C25.1912 5.86361 25.3971 6.00863 25.5725 6.15186C25.748 6.29508 25.8769 6.41862 25.9593 6.52246L26.0774 6.67285L25.3094 7.44629C25.2879 7.41764 25.2556 7.37826 25.2127 7.32812C25.1733 7.27441 25.0802 7.17952 24.9334 7.04346C24.7866 6.90739 24.629 6.79102 24.4607 6.69434C24.2924 6.59408 24.0722 6.50277 23.8001 6.42041C23.5315 6.33447 23.2469 6.2915 22.9461 6.2915C22.1476 6.2915 21.4708 6.56901 20.9158 7.12402C20.3608 7.67546 20.0833 8.35042 20.0833 9.14893C20.0833 9.94743 20.359 10.6242 20.9104 11.1792C21.4654 11.7342 22.144 12.0117 22.9461 12.0117C23.2469 12.0117 23.5333 11.9705 23.8054 11.8882C24.0812 11.8022 24.3085 11.7002 24.4876 11.582C24.6702 11.4639 24.8295 11.3475 24.9656 11.2329C25.1053 11.1147 25.2091 11.0145 25.2771 10.9321L25.3631 10.7979L26.1365 11.5713C26.1079 11.6143 26.0631 11.6715 26.0022 11.7432C25.9449 11.8112 25.8142 11.9329 25.6101 12.1084C25.4096 12.2839 25.1948 12.4396 24.9656 12.5757C24.74 12.7118 24.4428 12.8353 24.074 12.9463C23.7088 13.0537 23.3328 13.1074 22.9461 13.1074C21.7931 13.1074 20.8263 12.7243 20.0457 11.958C19.2651 11.1917 18.8748 10.2554 18.8748 9.14893C18.8748 8.04248 19.2651 7.10612 20.0457 6.33984C20.8263 5.57357 21.7931 5.19043 22.9461 5.19043ZM26.9018 5.29785H32.7294V6.39893H30.4198V13H29.2113V6.39893H26.9018V5.29785ZM32.6192 13L35.8096 5.29785H37.0181L40.2086 13H38.9463L38.1192 10.9644H34.7086L33.8814 13H32.6192ZM36.4166 6.67285L35.149 9.86328H37.6788L36.4166 6.67285ZM48.1872 13H46.9787V7.44629L42.6872 13H41.6452V5.29785H42.8537V10.8569L47.1452 5.29785H48.1872V13ZM44.3952 3.32129C44.542 3.4681 44.7246 3.5415 44.9431 3.5415C45.1651 3.5415 45.3495 3.4681 45.4963 3.32129C45.6431 3.17448 45.7165 2.99007 45.7165 2.76807H46.5383C46.5383 3.2085 46.3879 3.57552 46.0871 3.86914C45.7863 4.16276 45.405 4.30957 44.9431 4.30957C44.4812 4.30957 44.0998 4.16276 43.799 3.86914C43.4982 3.57552 43.3479 3.2085 43.3479 2.76807H44.175C44.175 2.98649 44.2484 3.1709 44.3952 3.32129ZM49.6185 5.29785H55.4461V6.39893H53.1366V13H51.9281V6.39893H49.6185V5.29785ZM58.0913 11.8989H62.4365V13H56.8828V5.29785H62.3291V6.39893H58.0913V8.43457H61.4482V9.53564H58.0913V11.8989ZM69.8108 13H66.5129V5.29785H69.6443C70.2673 5.29785 70.7991 5.50374 71.2395 5.91553C71.6799 6.32731 71.9002 6.79997 71.9002 7.3335C71.9002 7.64144 71.8357 7.92432 71.7068 8.18213C71.5815 8.43994 71.4561 8.61898 71.3308 8.71924L71.1321 8.875C71.1607 8.88932 71.2001 8.91439 71.2503 8.9502C71.304 8.98242 71.3989 9.05583 71.5349 9.17041C71.671 9.28141 71.7874 9.40495 71.884 9.54102C71.9843 9.67708 72.0756 9.85433 72.158 10.0728C72.2439 10.2876 72.2869 10.5114 72.2869 10.7441C72.2869 11.36 72.0505 11.89 71.5779 12.334C71.1052 12.778 70.5162 13 69.8108 13ZM67.7214 11.9526H69.8108C70.1689 11.9526 70.4697 11.8327 70.7131 11.5928C70.9566 11.3493 71.0784 11.0485 71.0784 10.6904C71.0784 10.3324 70.9566 10.0316 70.7131 9.78809C70.4732 9.5446 70.1725 9.42285 69.8108 9.42285H67.7214V11.9526ZM69.6443 6.34521H67.7214V8.43457H69.6443C69.9451 8.43457 70.1939 8.3361 70.3909 8.13916C70.5914 7.93864 70.6917 7.68978 70.6917 7.39258C70.6917 7.0918 70.5914 6.84294 70.3909 6.646C70.1939 6.44548 69.9451 6.34521 69.6443 6.34521ZM80.3676 5.29785V13H79.1591V6.39893H75.3617V13H74.1532V5.29785H80.3676ZM82.6744 5.29785H85.752C86.486 5.29785 87.1001 5.53955 87.5943 6.02295C88.092 6.50277 88.3409 7.08822 88.3409 7.7793C88.3409 8.4668 88.092 9.05046 87.5943 9.53027C87.1001 10.0101 86.486 10.25 85.752 10.25H83.8829V13H82.6744V5.29785ZM85.752 6.39893H83.8829V9.14893H85.752C86.1315 9.14893 86.4556 9.01823 86.7242 8.75684C86.9927 8.49186 87.127 8.16602 87.127 7.7793C87.127 7.389 86.9927 7.06136 86.7242 6.79639C86.4556 6.53141 86.1315 6.39893 85.752 6.39893ZM88.6603 13L91.8508 5.29785H93.0593L96.2497 13H94.9875L94.1603 10.9644H90.7497L89.9225 13H88.6603ZM92.4577 6.67285L91.1901 9.86328H93.7199L92.4577 6.67285ZM100.984 13H97.6863V5.29785H100.818C101.441 5.29785 101.972 5.50374 102.413 5.91553C102.853 6.32731 103.074 6.79997 103.074 7.3335C103.074 7.64144 103.009 7.92432 102.88 8.18213C102.755 8.43994 102.63 8.61898 102.504 8.71924L102.305 8.875C102.334 8.88932 102.374 8.91439 102.424 8.9502C102.477 8.98242 102.572 9.05583 102.708 9.17041C102.844 9.28141 102.961 9.40495 103.057 9.54102C103.158 9.67708 103.249 9.85433 103.331 10.0728C103.417 10.2876 103.46 10.5114 103.46 10.7441C103.46 11.36 103.224 11.89 102.751 12.334C102.279 12.778 101.69 13 100.984 13ZM98.8948 11.9526H100.984C101.342 11.9526 101.643 11.8327 101.887 11.5928C102.13 11.3493 102.252 11.0485 102.252 10.6904C102.252 10.3324 102.13 10.0316 101.887 9.78809C101.647 9.5446 101.346 9.42285 100.984 9.42285H98.8948V11.9526ZM100.818 6.34521H98.8948V8.43457H100.818C101.118 8.43457 101.367 8.3361 101.564 8.13916C101.765 7.93864 101.865 7.68978 101.865 7.39258C101.865 7.0918 101.765 6.84294 101.564 6.646C101.367 6.44548 101.118 6.34521 100.818 6.34521ZM106.922 7.12402C106.37 7.67546 106.095 8.35042 106.095 9.14893C106.095 9.94743 106.37 10.6242 106.922 11.1792C107.477 11.7342 108.154 12.0117 108.952 12.0117C109.754 12.0117 110.431 11.7342 110.982 11.1792C111.537 10.6242 111.815 9.94743 111.815 9.14893C111.815 8.35042 111.537 7.67546 110.982 7.12402C110.431 6.56901 109.754 6.2915 108.952 6.2915C108.154 6.2915 107.477 6.56901 106.922 7.12402ZM106.057 11.958C105.276 11.1917 104.886 10.2554 104.886 9.14893C104.886 8.04248 105.276 7.10612 106.057 6.33984C106.838 5.57357 107.803 5.19043 108.952 5.19043C110.105 5.19043 111.072 5.57357 111.853 6.33984C112.633 7.10612 113.023 8.04248 113.023 9.14893C113.023 10.2554 112.633 11.1917 111.853 11.958C111.072 12.7243 110.105 13.1074 108.952 13.1074C107.803 13.1074 106.838 12.7243 106.057 11.958Z" fill="#F86B24"/>
</svg>
