<svg width="41" height="40" viewBox="0 0 41 40" fill="none" xmlns="http://www.w3.org/2000/svg">
<path d="M20.5578 39.7992C31.493 39.7992 40.3578 30.9344 40.3578 19.9992C40.3578 9.064 31.493 0.199219 20.5578 0.199219C9.6226 0.199219 0.757812 9.064 0.757812 19.9992C0.757812 30.9344 9.6226 39.7992 20.5578 39.7992Z" fill="url(#paint0_linear_5_1122)"/>
<path d="M8.13273 20.9681C10.4473 19.6931 13.0311 18.629 15.4452 17.5595C19.5984 15.8077 23.7681 14.0862 27.9799 12.4836C28.7994 12.2105 30.2717 11.9435 30.4161 13.1579C30.3371 14.8768 30.0119 16.5857 29.7888 18.2946C29.2226 22.0527 28.5682 25.7979 27.9301 29.5435C27.7102 30.7912 26.1472 31.4371 25.1472 30.6386C22.7438 29.0152 20.3219 27.4076 17.9492 25.7465C17.172 24.9568 17.8927 23.8226 18.5869 23.2587C20.5664 21.3079 22.6657 19.6505 24.5417 17.5988C25.0478 16.3768 23.5525 17.4067 23.0593 17.7223C20.3494 19.5897 17.7058 21.5712 14.8486 23.2125C13.3892 24.0159 11.6882 23.3293 10.2295 22.881C8.92148 22.3395 7.00483 21.7939 8.1326 20.9681L8.13273 20.9681Z" fill="white"/>
<defs>
<linearGradient id="paint0_linear_5_1122" x1="15.6101" y1="1.85054" x2="5.71012" y2="24.9492" gradientUnits="userSpaceOnUse">
<stop stop-color="#37AEE2"/>
<stop offset="1" stop-color="#1E96C8"/>
</linearGradient>
</defs>
</svg>
