<svg width="40" height="40" viewBox="0 0 40 40" fill="none" xmlns="http://www.w3.org/2000/svg">
<path d="M19.8058 39.7992C30.7411 39.7992 39.6058 30.9344 39.6058 19.9992C39.6058 9.06397 30.7411 0.199219 19.8058 0.199219C8.87061 0.199219 0.00585938 9.06397 0.00585938 19.9992C0.00585938 30.9344 8.87061 39.7992 19.8058 39.7992Z" fill="#25D366"/>
<path fill-rule="evenodd" clip-rule="evenodd" d="M20.4586 31.0148H20.4537C18.4832 31.0141 16.547 30.5197 14.8273 29.5817L8.58594 31.219L10.2562 25.118C9.22592 23.3324 8.68376 21.307 8.68465 19.2319C8.68723 12.7404 13.9689 7.45898 20.4585 7.45898C23.6081 7.46034 26.5642 8.68647 28.787 10.9119C31.0099 13.1373 32.2334 16.0954 32.2322 19.2412C32.2296 25.7313 26.95 31.0121 20.4586 31.0148ZM15.1163 27.4505L15.4737 27.6626C16.9761 28.5542 18.6984 29.0259 20.4544 29.0266H20.4584C25.852 29.0266 30.2419 24.6366 30.2441 19.2408C30.2451 16.626 29.2282 14.1674 27.3806 12.3176C25.533 10.4679 23.076 9.44873 20.4622 9.44782C15.0644 9.44782 10.6745 13.8374 10.6723 19.2328C10.6716 21.0819 11.1889 22.8827 12.1685 24.4407L12.4012 24.811L11.4126 28.4221L15.1163 27.4505ZM25.9872 21.7762C26.1924 21.8754 26.331 21.9423 26.3902 22.0411C26.4637 22.1638 26.4637 22.7528 26.2187 23.4401C25.9734 24.1272 24.7981 24.7544 24.2329 24.8388C23.7261 24.9146 23.0847 24.9462 22.38 24.7223C21.9527 24.5867 21.4048 24.4057 20.7029 24.1026C17.945 22.9117 16.0812 20.2387 15.7289 19.7335C15.7042 19.6981 15.687 19.6734 15.6774 19.6605L15.675 19.6573C15.5193 19.4496 14.4761 18.0578 14.4761 16.6173C14.4761 15.2622 15.1418 14.5519 15.4482 14.225C15.4692 14.2026 15.4885 14.182 15.5057 14.1631C15.7754 13.8686 16.0941 13.7949 16.2902 13.7949C16.4863 13.7949 16.6827 13.7967 16.8541 13.8053C16.8752 13.8064 16.8972 13.8063 16.92 13.8061C17.0914 13.8051 17.3051 13.8039 17.516 14.3103C17.5971 14.5053 17.7158 14.7942 17.841 15.099C18.0941 15.7153 18.3738 16.3962 18.423 16.4947C18.4966 16.642 18.5456 16.8137 18.4475 17.0101C18.4328 17.0396 18.4192 17.0674 18.4062 17.0939C18.3325 17.2443 18.2783 17.3549 18.1533 17.5008C18.1042 17.5582 18.0534 17.6201 18.0026 17.682C17.9014 17.8052 17.8002 17.9285 17.7121 18.0163C17.5648 18.1629 17.4115 18.3221 17.5831 18.6166C17.7547 18.9112 18.3451 19.8745 19.2196 20.6546C20.1598 21.4931 20.9768 21.8475 21.391 22.0272C21.4719 22.0623 21.5374 22.0907 21.5854 22.1147C21.8795 22.262 22.0511 22.2374 22.2227 22.0411C22.3944 21.8448 22.9582 21.1821 23.1542 20.8876C23.3503 20.5932 23.5465 20.6422 23.8161 20.7403C24.0858 20.8386 25.5322 21.5502 25.8264 21.6975C25.8838 21.7262 25.9375 21.7522 25.9872 21.7762Z" fill="#FDFDFD"/>
</svg>
