<svg width="38" height="38" viewBox="0 0 38 38" fill="none" xmlns="http://www.w3.org/2000/svg">
<circle cx="19" cy="19" r="17.5" fill="white" stroke="#D3D7DA" stroke-width="3"/>
<path d="M14.096 16.7585C13.5304 16.1532 12.5812 16.121 11.9759 16.6866C11.3706 17.2522 11.3384 18.2014 11.904 18.8067L14.096 16.7585ZM17.875 23L16.779 24.0241L17.9016 25.2255L18.9951 23.9976L17.875 23ZM26.1201 15.9976C26.6711 15.379 26.6163 14.4308 25.9976 13.8799C25.379 13.3289 24.4308 13.3837 23.8799 14.0024L26.1201 15.9976ZM11.904 18.8067L16.779 24.0241L18.971 21.9759L14.096 16.7585L11.904 18.8067ZM18.9951 23.9976L26.1201 15.9976L23.8799 14.0024L16.7549 22.0024L18.9951 23.9976Z" fill="#BABFC4"/>
</svg>
