<svg width="44" height="44" viewBox="0 0 44 44" fill="none" xmlns="http://www.w3.org/2000/svg">
<circle cx="22" cy="22" r="20" fill="#52DB59" stroke="white" stroke-width="4"/>
<path d="M17.096 19.7585C16.5304 19.1532 15.5812 19.121 14.9759 19.6866C14.3706 20.2522 14.3384 21.2014 14.904 21.8067L17.096 19.7585ZM20.875 26L19.779 27.0241L20.9016 28.2255L21.9951 26.9976L20.875 26ZM29.1201 18.9976C29.6711 18.379 29.6163 17.4308 28.9976 16.8799C28.379 16.3289 27.4308 16.3837 26.8799 17.0024L29.1201 18.9976ZM14.904 21.8067L19.779 27.0241L21.971 24.9759L17.096 19.7585L14.904 21.8067ZM21.9951 26.9976L29.1201 18.9976L26.8799 17.0024L19.7549 25.0024L21.9951 26.9976Z" fill="#F5F7FB"/>
</svg>
