<svg width="23" height="19" viewBox="0 0 23 19" fill="none" xmlns="http://www.w3.org/2000/svg">
<path d="M0.341601 8.71611C2.6562 7.44115 5.23994 6.37707 7.65405 5.30754C11.8073 3.55573 15.977 1.83429 20.1888 0.231647C21.0082 -0.0414276 22.4806 -0.30848 22.625 0.905919C22.5459 2.62489 22.2207 4.33379 21.9977 6.0427C21.4315 9.80073 20.7771 13.5459 20.1389 17.2916C19.9191 18.5392 18.3561 19.1851 17.356 18.3867C14.9527 16.7632 12.5308 15.1556 10.1581 13.4946C9.38085 12.7048 10.1016 11.5707 10.7957 11.0067C12.7752 9.05592 14.8745 7.3985 16.7506 5.34689C17.2566 4.12482 15.7614 5.15475 15.2682 5.47031C12.5583 7.33778 9.91463 9.31926 7.05749 10.9605C5.59807 11.7639 3.89708 11.0773 2.43832 10.629C1.13035 10.0875 -0.786173 9.54185 0.341601 8.71611Z" fill="white"/>
</svg>
