<svg width="24" height="24" viewBox="0 0 24 24" fill="none" xmlns="http://www.w3.org/2000/svg">
<path fill-rule="evenodd" clip-rule="evenodd" d="M12.4579 23.7867H12.4531C10.5213 23.786 8.62314 23.3013 6.93723 22.3817L0.818359 23.9869L2.45587 18.0056C1.44577 16.2551 0.914266 14.2695 0.915132 12.2352C0.917664 5.87106 6.09564 0.693359 12.4578 0.693359C15.5455 0.694692 18.4436 1.89675 20.6229 4.07853C22.8021 6.2602 24.0016 9.16017 24.0004 12.2443C23.9978 18.6069 18.8219 23.7841 12.4579 23.7867ZM7.22056 20.2924L7.57088 20.5004C9.04385 21.3744 10.7323 21.8369 12.4538 21.8376H12.4577C17.7455 21.8376 22.0492 17.5338 22.0513 12.2439C22.0523 9.6804 21.0553 7.27007 19.244 5.45666C17.4327 3.64325 15.024 2.64409 12.4615 2.6432C7.16965 2.6432 2.86589 6.94657 2.86379 12.2361C2.86305 14.0489 3.37026 15.8143 4.3306 17.3417L4.55871 17.7047L3.58953 21.2449L7.22056 20.2924ZM17.878 14.7295C18.0792 14.8267 18.215 14.8924 18.273 14.9892C18.3451 15.1094 18.3451 15.6869 18.1049 16.3607C17.8645 17.0344 16.7123 17.6492 16.1581 17.732C15.6612 17.8063 15.0325 17.8373 14.3416 17.6177C13.9227 17.4848 13.3855 17.3073 12.6974 17.0102C9.99364 15.8427 8.16645 13.2222 7.82111 12.7269C7.79692 12.6922 7.78 12.6679 7.77056 12.6553L7.76823 12.6522C7.6156 12.4486 6.59291 11.084 6.59291 9.67183C6.59291 8.34335 7.24549 7.64702 7.54587 7.3265C7.56645 7.30454 7.58537 7.28434 7.60232 7.26583C7.86668 6.97709 8.17915 6.9049 8.37141 6.9049C8.56366 6.9049 8.75614 6.90668 8.92417 6.91512C8.94491 6.91616 8.96647 6.91603 8.98877 6.9159C9.15684 6.91492 9.36637 6.91369 9.57308 7.4102C9.6526 7.60128 9.76895 7.88455 9.89168 8.18332C10.1398 8.78751 10.4141 9.45507 10.4623 9.55167C10.5344 9.69604 10.5825 9.8644 10.4863 10.057C10.4719 10.0858 10.4586 10.1131 10.4458 10.1391C10.3736 10.2865 10.3205 10.395 10.1979 10.5381C10.1497 10.5943 10.0999 10.655 10.0501 10.7156C9.95092 10.8365 9.8517 10.9573 9.76531 11.0434C9.62093 11.1872 9.47063 11.3432 9.63887 11.6319C9.8071 11.9207 10.3859 12.8651 11.2433 13.6299C12.165 14.4519 12.966 14.7994 13.372 14.9755C13.4513 15.0099 13.5155 15.0378 13.5626 15.0614C13.8509 15.2058 14.0192 15.1816 14.1874 14.9892C14.3557 14.7967 14.9084 14.147 15.1006 13.8583C15.2929 13.5697 15.4852 13.6178 15.7495 13.714C16.014 13.8103 17.4319 14.5079 17.7203 14.6523C17.7766 14.6805 17.8293 14.7059 17.878 14.7295Z" fill="#FDFDFD"/>
</svg>
