<svg width="34" height="34" viewBox="0 0 34 34" fill="none" xmlns="http://www.w3.org/2000/svg">
<path d="M17 34C26.3888 34 34 26.3888 34 17C34 7.61118 26.3888 0 17 0C7.61118 0 0 7.61118 0 17C0 26.3888 7.61118 34 17 34Z" fill="url(#paint0_linear_2_8904)"/>
<path d="M6.33148 17.8314C8.31877 16.7368 10.5371 15.8232 12.6098 14.9049C16.1757 13.4008 19.7558 11.9228 23.372 10.5468C24.0756 10.3123 25.3397 10.083 25.4637 11.1257C25.3958 12.6016 25.1166 14.0688 24.9251 15.5361C24.4389 18.7627 23.8771 21.9782 23.3292 25.1942C23.1404 26.2654 21.7985 26.82 20.9398 26.1344C18.8763 24.7406 16.7969 23.3603 14.7598 21.9342C14.0925 21.2561 14.7113 20.2823 15.3073 19.7981C17.0068 18.1232 18.8093 16.7002 20.42 14.9387C20.8545 13.8894 19.5707 14.7737 19.1473 15.0446C16.8205 16.648 14.5508 18.3493 12.0977 19.7585C10.8446 20.4482 9.38417 19.8588 8.1317 19.4738C7.00869 19.0089 5.36308 18.5405 6.33137 17.8315L6.33148 17.8314Z" fill="white"/>
<defs>
<linearGradient id="paint0_linear_2_8904" x1="12.752" y1="1.4178" x2="4.25198" y2="21.25" gradientUnits="userSpaceOnUse">
<stop stop-color="#37AEE2"/>
<stop offset="1" stop-color="#1E96C8"/>
</linearGradient>
</defs>
</svg>
