<svg width="34" height="34" viewBox="0 0 34 34" fill="none" xmlns="http://www.w3.org/2000/svg">
<path d="M17 0C26.3888 0 34 7.61116 34 17C34 26.3888 26.3888 34 17 34C7.61116 34 0 26.3888 0 17C0 7.61116 7.61116 0 17 0Z" fill="#7F4DA0"/>
<path d="M21.5291 14.8455C21.4464 14.1738 21.24 13.6464 20.8733 13.1792C20.3972 12.5776 19.7888 12.2174 18.888 12.0037C18.301 11.8613 18.0638 11.8776 17.8515 12.0716C17.6538 12.2533 17.6151 12.6175 17.7663 12.8534C17.8725 13.0246 17.9952 13.0859 18.3362 13.1529C18.7903 13.2364 19.1041 13.3449 19.3896 13.5081C19.9955 13.858 20.2777 14.4055 20.3079 15.2918C20.3221 15.708 20.358 15.836 20.5034 15.9836C20.7728 16.2534 21.2523 16.2009 21.4556 15.878C21.5303 15.7563 21.5417 15.7034 21.5495 15.4208C21.5547 15.2458 21.5472 14.9854 21.5291 14.8455Z" fill="white"/>
<path d="M23.9022 15.603C23.7826 13.545 22.9776 11.8893 21.537 10.7244C20.7254 10.0698 19.7443 9.61968 18.6688 9.40078C18.2749 9.32249 17.5496 9.25903 17.4251 9.29533C17.3077 9.32894 17.1416 9.45608 17.0676 9.57106C16.9893 9.69574 16.9717 9.97412 17.0385 10.1351C17.1463 10.4043 17.3468 10.4994 17.9083 10.5486C18.7739 10.6243 19.6668 10.9284 20.3414 11.3787C21.1116 11.8913 21.7239 12.5925 22.1199 13.4164C22.4622 14.1244 22.6726 15.1446 22.6668 16.0582C22.6649 16.3886 22.7159 16.5752 22.8488 16.7116C23.0493 16.9214 23.3417 16.9673 23.5997 16.828C23.8857 16.6776 23.9526 16.4136 23.9022 15.603Z" fill="white"/>
<path d="M26.5287 23.5282C26.4884 23.4106 26.3945 23.2292 26.3274 23.125C25.9046 22.4866 23.6332 20.709 22.4991 20.1277C21.8516 19.795 21.3718 19.6842 21.0162 19.7883C20.6337 19.8959 20.4324 20.0739 19.7915 20.8703C19.5332 21.1895 19.2681 21.4886 19.1977 21.5356C19.0232 21.6566 18.681 21.7541 18.4394 21.7541C17.8791 21.7506 16.8625 21.3878 16.0807 20.9106C15.4734 20.541 14.6951 19.8791 14.0978 19.2238C13.3932 18.4543 12.9135 17.7755 12.5343 17.0094C12.0445 16.0249 11.9204 15.4233 12.125 14.9831C12.1753 14.8723 12.2424 14.7547 12.2726 14.7177C12.3028 14.6841 12.6182 14.4254 12.9671 14.1431C13.6516 13.5988 13.7623 13.4744 13.8898 13.1014C14.0508 12.6276 14.0073 12.1438 13.759 11.6565C13.5677 11.2869 13.0678 10.4804 12.7055 9.95962C12.2257 9.27416 11.0312 7.8091 10.793 7.61079C10.3635 7.26136 9.81333 7.20083 9.20599 7.4361C8.56521 7.68476 7.36403 8.6525 6.85068 9.32792C6.38766 9.93946 6.2099 10.3729 6.18303 10.9442C6.15956 11.4146 6.19981 11.6095 6.44809 12.211C8.39073 16.9287 11.2895 20.6956 15.2721 23.6862C17.3523 25.2487 19.5097 26.4382 21.7476 27.2514C23.0527 27.7252 23.6197 27.7487 24.2874 27.3589C24.5692 27.1909 25.2671 26.4752 25.6563 25.9543C26.3005 25.0874 26.5387 24.6875 26.6058 24.3683C26.6528 24.1499 26.6159 23.7702 26.5287 23.5282Z" fill="white"/>
<path d="M26.3184 16.0757C26.2754 14.9116 26.0794 13.9567 25.6707 12.8922C25.2672 11.845 24.8589 11.1616 24.0877 10.2374C23.3585 9.37078 22.7922 8.87598 21.894 8.32519C20.6409 7.55778 19.1159 7.04995 17.4068 6.83637C16.824 6.76173 16.6921 6.76706 16.5133 6.88637C16.1668 7.11239 16.1714 7.67613 16.519 7.89876C16.6341 7.96958 16.7362 7.99538 17.2024 8.05641C17.9181 8.15276 18.3783 8.24357 18.9243 8.39256C21.0656 8.97791 22.7123 10.1744 23.8132 11.9505C24.7344 13.4309 25.1169 14.9114 25.0626 16.8023C25.0437 17.4415 25.0574 17.5541 25.1551 17.7076C25.3423 17.9939 25.8357 18.0505 26.0889 17.813C26.2464 17.6682 26.2761 17.5595 26.3072 17.0124C26.322 16.727 26.3252 16.3057 26.3184 16.0757Z" fill="white"/>
</svg>
