<svg width="34" height="34" viewBox="0 0 34 34" fill="none" xmlns="http://www.w3.org/2000/svg">
<path d="M17 34C26.3888 34 34 26.3888 34 17C34 7.61116 26.3888 0 17 0C7.61116 0 0 7.61116 0 17C0 26.3888 7.61116 34 17 34Z" fill="#25D366"/>
<path fill-rule="evenodd" clip-rule="evenodd" d="M17.5609 26.4576H17.5567C15.8649 26.457 14.2025 26.0325 12.726 25.2272L7.36719 26.6329L8.80129 21.3947C7.91667 19.8616 7.45118 18.1226 7.45194 16.341C7.45416 10.7674 11.9889 6.23291 17.5608 6.23291C20.265 6.23408 22.8031 7.28681 24.7116 9.19758C26.6201 11.1082 27.6706 13.648 27.6695 16.349C27.6673 21.9213 23.1343 26.4553 17.5609 26.4576ZM12.9741 23.3975L13.2809 23.5796C14.5709 24.3451 16.0496 24.7501 17.5573 24.7507H17.5607C22.1916 24.7507 25.9607 20.9815 25.9626 16.3487C25.9634 14.1037 25.0903 11.9927 23.504 10.4046C21.9177 8.81644 19.8082 7.9414 17.564 7.94062C12.9295 7.94062 9.16037 11.7094 9.15853 16.3419C9.15788 17.9295 9.60208 19.4756 10.4431 20.8133L10.6429 21.1312L9.79412 24.2317L12.9741 23.3975ZM22.3077 18.5254C22.4839 18.6105 22.6029 18.668 22.6537 18.7528C22.7168 18.8581 22.7168 19.3638 22.5064 19.9539C22.2958 20.5439 21.2868 21.0824 20.8014 21.1549C20.3663 21.22 19.8156 21.2471 19.2106 21.0548C18.8437 20.9384 18.3733 20.783 17.7706 20.5228C15.4027 19.5003 13.8025 17.2053 13.5001 16.7715C13.4789 16.7411 13.4641 16.7199 13.4558 16.7088L13.4537 16.7061C13.3201 16.5278 12.4244 15.3328 12.4244 14.096C12.4244 12.9325 12.9959 12.3227 13.259 12.042C13.277 12.0227 13.2936 12.0051 13.3084 11.9888C13.54 11.736 13.8136 11.6727 13.982 11.6727C14.1504 11.6727 14.3189 11.6743 14.4661 11.6817C14.4843 11.6826 14.5031 11.6825 14.5227 11.6824C14.6699 11.6815 14.8534 11.6804 15.0344 12.1153C15.104 12.2826 15.2059 12.5307 15.3134 12.7924C15.5308 13.3215 15.7709 13.9061 15.8132 13.9907C15.8763 14.1172 15.9184 14.2646 15.8342 14.4333C15.8216 14.4585 15.8099 14.4824 15.7987 14.5052C15.7355 14.6343 15.689 14.7293 15.5816 14.8546C15.5394 14.9039 15.4958 14.957 15.4522 15.0101C15.3653 15.1159 15.2784 15.2217 15.2028 15.2971C15.0763 15.4231 14.9447 15.5597 15.092 15.8126C15.2394 16.0655 15.7463 16.8926 16.4972 17.5623C17.3043 18.2823 18.0058 18.5866 18.3614 18.7408C18.4309 18.771 18.4871 18.7954 18.5284 18.816C18.7809 18.9425 18.9282 18.9213 19.0756 18.7528C19.2229 18.5842 19.707 18.0152 19.8753 17.7624C20.0437 17.5096 20.2121 17.5517 20.4436 17.636C20.6752 17.7204 21.917 18.3313 22.1696 18.4578C22.2189 18.4824 22.265 18.5047 22.3077 18.5254Z" fill="#FDFDFD"/>
</svg>
